<mxfile host="app.diagrams.net" modified="2024-05-29T23:24:01.857Z" agent="Mozilla/5.0 (Windows NT 10.0; Win64; x64) AppleWebKit/537.36 (KHTML, like Gecko) Chrome/125.0.0.0 Safari/537.36" etag="JKsL0oZ6BxnhYDLpEW1Z" version="24.4.10" type="github">
  <diagram name="Page-1" id="zKIGPbWKKwjHIFYuE0Dd">
    <mxGraphModel dx="584" dy="746" grid="1" gridSize="10" guides="1" tooltips="1" connect="1" arrows="1" fold="1" page="1" pageScale="1" pageWidth="850" pageHeight="1100" math="0" shadow="0">
      <root>
        <mxCell id="0" />
        <mxCell id="1" parent="0" />
        <mxCell id="BOXuw702CfrsA8beuOnQ-26" value="" style="rounded=1;whiteSpace=wrap;html=1;" parent="1" vertex="1">
          <mxGeometry x="862.5" y="338.44" width="225" height="201.56" as="geometry" />
        </mxCell>
        <mxCell id="BOXuw702CfrsA8beuOnQ-7" value="" style="ellipse;shape=cloud;whiteSpace=wrap;html=1;" parent="1" vertex="1">
          <mxGeometry x="1080" y="170" width="800" height="670" as="geometry" />
        </mxCell>
        <mxCell id="BOXuw702CfrsA8beuOnQ-8" value="Object Storage" style="text;html=1;align=center;verticalAlign=middle;resizable=0;points=[];autosize=1;strokeColor=none;fillColor=none;" parent="1" vertex="1">
          <mxGeometry x="1140" y="850" width="100" height="30" as="geometry" />
        </mxCell>
        <mxCell id="BOXuw702CfrsA8beuOnQ-12" value="Oracle DB" style="text;html=1;align=center;verticalAlign=middle;resizable=0;points=[];autosize=1;strokeColor=none;fillColor=none;" parent="1" vertex="1">
          <mxGeometry x="935" y="500" width="80" height="30" as="geometry" />
        </mxCell>
        <mxCell id="BOXuw702CfrsA8beuOnQ-17" value="Node Expres API&lt;div&gt;(Backend)&lt;/div&gt;" style="text;html=1;align=center;verticalAlign=middle;resizable=0;points=[];autosize=1;strokeColor=none;fillColor=none;" parent="1" vertex="1">
          <mxGeometry x="1220" y="500" width="110" height="40" as="geometry" />
        </mxCell>
        <mxCell id="BOXuw702CfrsA8beuOnQ-21" value="Cdady Webserver&lt;div&gt;(Frontend)&lt;/div&gt;" style="text;html=1;align=center;verticalAlign=middle;resizable=0;points=[];autosize=1;strokeColor=none;fillColor=none;" parent="1" vertex="1">
          <mxGeometry x="1640" y="510" width="120" height="40" as="geometry" />
        </mxCell>
        <mxCell id="BOXuw702CfrsA8beuOnQ-27" value="AMS (Posse) On Prem" style="text;html=1;align=center;verticalAlign=middle;whiteSpace=wrap;rounded=0;" parent="1" vertex="1">
          <mxGeometry x="890" y="377" width="170" height="30" as="geometry" />
        </mxCell>
        <mxCell id="BOXuw702CfrsA8beuOnQ-28" value="&lt;span&gt;&lt;span dir=&quot;ltr&quot; class=&quot;ui-provider a b c d e f g h i j k l m n o p q r s t u v w x y z ab ac ae af ag ah ai aj ak&quot;&gt;yyyymmdd_OMRR_Transparency.csv&lt;/span&gt;&lt;/span&gt;" style="text;html=1;align=center;verticalAlign=middle;whiteSpace=wrap;rounded=0;" parent="1" vertex="1">
          <mxGeometry x="1050" y="890" width="260" height="30" as="geometry" />
        </mxCell>
        <mxCell id="BOXuw702CfrsA8beuOnQ-41" value="" style="sketch=0;pointerEvents=1;shadow=0;dashed=0;html=1;strokeColor=none;fillColor=#434445;aspect=fixed;labelPosition=center;verticalLabelPosition=bottom;verticalAlign=top;align=center;outlineConnect=0;shape=mxgraph.vvd.web_browser;" parent="1" vertex="1">
          <mxGeometry x="1882.07" y="430.75" width="65.85" height="46.75" as="geometry" />
        </mxCell>
        <mxCell id="BOXuw702CfrsA8beuOnQ-43" value="" style="endArrow=classic;html=1;rounded=0;exitX=1;exitY=0.5;exitDx=0;exitDy=0;" parent="1" source="oFETP92tCU4r7-I8MrHl-13" target="BOXuw702CfrsA8beuOnQ-41" edge="1">
          <mxGeometry width="50" height="50" relative="1" as="geometry">
            <mxPoint x="1726.8200000000002" y="453.5779796511629" as="sourcePoint" />
            <mxPoint x="1500" y="690" as="targetPoint" />
          </mxGeometry>
        </mxCell>
        <mxCell id="BOXuw702CfrsA8beuOnQ-44" value="OMMR webpage" style="text;html=1;align=center;verticalAlign=middle;resizable=0;points=[];autosize=1;strokeColor=none;fillColor=none;" parent="1" vertex="1">
          <mxGeometry x="1860" y="480" width="110" height="30" as="geometry" />
        </mxCell>
        <mxCell id="BOXuw702CfrsA8beuOnQ-46" value="OpenShift Silver Cluster" style="text;html=1;align=center;verticalAlign=middle;resizable=0;points=[];autosize=1;strokeColor=none;fillColor=none;" parent="1" vertex="1">
          <mxGeometry x="1610" y="595" width="150" height="30" as="geometry" />
        </mxCell>
        <mxCell id="oFETP92tCU4r7-I8MrHl-7" value="" style="edgeStyle=orthogonalEdgeStyle;rounded=0;orthogonalLoop=1;jettySize=auto;html=1;entryX=0;entryY=0.75;entryDx=0;entryDy=0;" edge="1" parent="1" source="BOXuw702CfrsA8beuOnQ-47" target="oFETP92tCU4r7-I8MrHl-3">
          <mxGeometry relative="1" as="geometry">
            <mxPoint x="1386.75" y="458" as="targetPoint" />
          </mxGeometry>
        </mxCell>
        <mxCell id="oFETP92tCU4r7-I8MrHl-10" value="&#xa;&lt;span style=&quot;color: rgb(0, 0, 0); font-family: Helvetica; font-size: 12px; font-style: normal; font-variant-ligatures: normal; font-variant-caps: normal; font-weight: 400; letter-spacing: normal; orphans: 2; text-align: center; text-indent: 0px; text-transform: none; widows: 2; word-spacing: 0px; -webkit-text-stroke-width: 0px; white-space: nowrap; background-color: rgb(251, 251, 251); text-decoration-thickness: initial; text-decoration-style: initial; text-decoration-color: initial; display: inline !important; float: none;&quot;&gt;API Rest Call&lt;/span&gt;&lt;br style=&quot;forced-color-adjust: none; color: rgb(0, 0, 0); font-family: Helvetica; font-size: 12px; font-style: normal; font-variant-ligatures: normal; font-variant-caps: normal; font-weight: 400; letter-spacing: normal; orphans: 2; text-align: center; text-indent: 0px; text-transform: none; widows: 2; word-spacing: 0px; -webkit-text-stroke-width: 0px; white-space: nowrap; background-color: rgb(251, 251, 251); text-decoration-thickness: initial; text-decoration-style: initial; text-decoration-color: initial;&quot;&gt;&lt;span style=&quot;color: rgb(0, 0, 0); font-family: Helvetica; font-size: 12px; font-style: normal; font-variant-ligatures: normal; font-variant-caps: normal; font-weight: 400; letter-spacing: normal; orphans: 2; text-align: center; text-indent: 0px; text-transform: none; widows: 2; word-spacing: 0px; -webkit-text-stroke-width: 0px; white-space: nowrap; background-color: rgb(251, 251, 251); text-decoration-thickness: initial; text-decoration-style: initial; text-decoration-color: initial; display: inline !important; float: none;&quot;&gt;on a schedule&lt;/span&gt;&lt;div style=&quot;forced-color-adjust: none; color: rgb(0, 0, 0); font-family: Helvetica; font-size: 12px; font-style: normal; font-variant-ligatures: normal; font-variant-caps: normal; font-weight: 400; letter-spacing: normal; orphans: 2; text-align: center; text-indent: 0px; text-transform: none; widows: 2; word-spacing: 0px; -webkit-text-stroke-width: 0px; white-space: nowrap; background-color: rgb(251, 251, 251); text-decoration-thickness: initial; text-decoration-style: initial; text-decoration-color: initial;&quot;&gt;&amp;nbsp;(&lt;span style=&quot;forced-color-adjust: none; background-color: initial;&quot;&gt;Read and puts&amp;nbsp;&lt;/span&gt;&lt;/div&gt;&lt;div style=&quot;forced-color-adjust: none; color: rgb(0, 0, 0); font-family: Helvetica; font-size: 12px; font-style: normal; font-variant-ligatures: normal; font-variant-caps: normal; font-weight: 400; letter-spacing: normal; orphans: 2; text-align: center; text-indent: 0px; text-transform: none; widows: 2; word-spacing: 0px; -webkit-text-stroke-width: 0px; white-space: nowrap; background-color: rgb(251, 251, 251); text-decoration-thickness: initial; text-decoration-style: initial; text-decoration-color: initial;&quot;&gt;&lt;span style=&quot;forced-color-adjust: none; background-color: initial;&quot;&gt;into memory).&amp;nbsp;&lt;br style=&quot;forced-color-adjust: none;&quot;&gt;HTTP GET call&lt;br style=&quot;forced-color-adjust: none;&quot;&gt;and JSON response&lt;/span&gt;&lt;/div&gt;&#xa;&#xa;" style="edgeLabel;html=1;align=center;verticalAlign=middle;resizable=0;points=[];" vertex="1" connectable="0" parent="oFETP92tCU4r7-I8MrHl-7">
          <mxGeometry x="-0.0837" y="2" relative="1" as="geometry">
            <mxPoint x="18" y="-18" as="offset" />
          </mxGeometry>
        </mxCell>
        <mxCell id="BOXuw702CfrsA8beuOnQ-47" value="" style="outlineConnect=0;dashed=0;verticalLabelPosition=bottom;verticalAlign=top;align=center;html=1;shape=mxgraph.aws3.android;fillColor=#8CC64F;gradientColor=none;" parent="1" vertex="1">
          <mxGeometry x="1236.5" y="416" width="73.5" height="84" as="geometry" />
        </mxCell>
        <mxCell id="BOXuw702CfrsA8beuOnQ-56" value="" style="sketch=0;outlineConnect=0;fontColor=#232F3E;gradientColor=none;fillColor=#232F3D;strokeColor=none;dashed=0;verticalLabelPosition=bottom;verticalAlign=top;align=center;html=1;fontSize=12;fontStyle=0;aspect=fixed;pointerEvents=1;shape=mxgraph.aws4.user;" parent="1" vertex="1">
          <mxGeometry x="1960" y="445.37" width="60" height="60" as="geometry" />
        </mxCell>
        <mxCell id="oFETP92tCU4r7-I8MrHl-3" value="" style="shape=image;verticalLabelPosition=bottom;labelBackgroundColor=default;verticalAlign=top;aspect=fixed;imageAspect=0;image=data:image/png,iVBORw0KGgoAAAANSUhEUgAAApcAAAFrCAIAAAALtjU5AAAgAElEQVR4AeydB3wc5Zn/n3mnbFWXC8ZgMNUxLXRs2Srbd1ar4oILhBCSHJB2yeUgCQnlSEgotqSdmV0JQyB3l1ySf8JRLgmQkFCSQAgQbGwwbpKsspJWbaXV9p33/3lnZGETLINl2bL9zuf9rLbN7Mx33tFvnvI+LwBdKAFKgBKgBCgBSoASoAQoAUqAEqAEKAFKgBKgBCgBSoASoAQoAUqAEqAEKAFKgBKgBCgBSoASoAQoAUqAEqAEKAFKgBKgBGYEAQaA29dYAL0hAAQMAsQAywBM0ib7bJLV6EcHJ3DwT3TYLAKknZ3xk8XuO32cdqZmRK+iO0EJUAKUACVwdAjsr+LcPhVniU6wCDgEvCYYzMEeyU4eSnboFz4BgfH7p4MC184Ih4BlAem3XBM3YVTFj84lQ3+FEqAEKIEZRYABZsICn7Dr9Ce8ZuZpljkc7LEAYBZtR45AAdHxyRoHoJ+X/U8WIjdg5DwyM6pv0Z2hBCgBSoASmGYCDAvIBIyJPCIDMAIwHPGmM8zHsiA1+fjAtzvhlKdPDo8A+pi+DUY7Rxw5X8jwwRkkQk4XSoASoAQogZOIAALGCMz++q0JiW4QHkrKdcOQ18xD+jh1ArpXfJIYBbm12ndqtNsspN11CdoZNGqfnUR9lx4qJUAJUAInOwHNpkO6bBB10GxBYodrH/DcB2Y2z4CAPkiF08OxAvBGMNJ2pAgIwO8f5+aAMOeZD84Cp+UsjJ8gBjh23GPCMiTlTbvpOtm7ND1+SoASoAROcALMfgvLgJUHEwJBs6dJrJUFo5FniT4QJed5C8dZWNbEMAYg3zqgITCwYKTtSBFA8BGQGcbAsiaOs/C8RQ92cBwrCCzPEnXngaxjYiCPJyMK9ju3NEZ+gl/I9PAoAUrgJCWw/z96FsCkyQBRcYZBrABcHrCFgEqAnQvmMwGdCvzpYDwTTAvBcAZwpx3QDHlgFGg7YgQMeQfg5U4jzE0LCX/+dHIuTGcAdwqgUkAFDJ/HIN7IcUaGCLkZqIqfpFc0PWxKgBI4uQjsr+IMAxwHZGQ4YwC2CAyngeE8mFNh/NS6uWXfOMf3A9/tT6y46zfr7nvhMw+8eN2P/viFplf3b59vePvzG7fSdsQINLy9P94vNL163Y/++JkHXlx33wsr7vqN7/Ynzha/f8rybxo/tQ5mLSdnyrQAUCEgA8tzHKd5T/Y7uydXt6ZHSwlQApTASUJgv//zDImEczwIFihaYDprWenl6678TJPztt/W/2jLig2ttRs7/YH2Gqm9Vu6okfb6A23VBzYx0OENdNF2pAiIgY4PEfYH2mqkvRr/dn+gvXZDx6rGvSvuf8f+zWeuuiEw64rrTAvLoHABGPPJeUTogJN7knRoepiUACVACZzIBPSsZoakNvPjYW3EkqcmAAuws6Dkcu6C2nPrv+e/86lbH9u5uvG9msZWz8YuV0N/dSjhDkWdwSGHPOBQBp3BIbs8sH+rCvZWBcO0HTkCvfvjtcsDBL4y6NCeuENRXyjuaRp0b+j0b9x9bdP2L256r+6e/zt/5V3MomoovZycTcaKkIUFXgCk5zogvTIPcbecyN2cHhslQAlQAicIgf2tMYbRiqgKJMuZB7AC5JNHzgTFAPOBP487a/Vpt/yp/MF2t9xnb+x2Sb1uuY+244WAR4nYGrocTT3L7m9b8KWXLJ+6HgyfAjiVh3wrcNq5JuedZMEZWGA/1DWoqp8glzw9DEqAEjihCHzoXzWxwbXaqnoysxlMPBQDWmA9zX51/T3X/+gvbrnPG+x3y33OAJXw4+wOxqP0OwM9zkCPR4l4lMjqe/54df09hWe4AC1godACZoPmgCEqTrIfDshgJ3d4dKEEKAFKgBKYaQQ+pOJIGzLGITAbjAxJZJ4FwqIzltxS/51nPht4p/qBrZoVHnZJvR6ln9rix4sVru9n1cYub3DA1zzoknrtjeGah979bGCL+G+/mnvpjZpRPguB2WI0cfpYcqriM+1apftDCVAClMA/E/iQigucZoaR6LgFuHnG+ZWXr/rRmvv/Vteww9PU4W0e0JXbo0SoOX58SbjmRBlwSSQU4mjq8QYHHFKPV+paLbeuuf9vl664T5hXDtw8hrOSmW0ABJLEfsDyz52HvkMJUAKUACVwjAkc8H+aYcgEWCQyagBmFjtv+dWfCax56O0aqWPpg11lSqwsGPMoEW+w39EUtjd2exTiWqfteCHgaAo7msLeYL+vedAZ6Kl6JFXekrjm/r1iY9v1TduuvK6RmVtGzrtgJj51aosf40uT/jwlQAlQAh+PAM/zSBt0hEhdThZYM3Cz8s91eb72n9cF3q2WOm3K8NLmxFUt2SXNyeNFseh+HpLAkubkVS3Zpc0JmzJcLXWua9pqv/VR69kOMMxl+DxgWJYld3QIIZ7naVz8411M9FuUACVACRxdAgghjuN0i5zneeJI5+dbz/e6v/5fN7Xs9G7c45CHyoNjy0KJsuZ4eWjkkNpAv3C8ECgPjZQ1x5eFEuXBMYc8JDa03tSy0/HVx4WFduDnA2cVBEEXb57ndUU/un2T/holQAlQApTAxyPAMAynLWCYA6c7K7/y2PXB9yp/sE1sGa0IjlUEx6qCw/ZgxKn0HC8SRffzkAScSo89GKkKDuun2B2Kuh/a9flH9yy79RGYbwfjKXqXoFb4x7uG6LcoAUqAEjgWBIjblGV1lylCCM258Ip/eeSGlu32+9/zNEermpPLg8kqZcSt9FTLrX5pzyG1gX7heCHgl/ZUy61upadKGVkeTJYFRsSHRz0bd62Tt158YwhmLSb9ASFBEPSAy7HonvQ3KQFKgBKgBD6CgFahjdHy2PSJLEmtLt5ScurFNV9f0bhlRajd3tTlaIlf3RgtD8YdyqAod9QF3q8L7HTKA0653yVHXHKfS+51jzeS4+aSSeL6JE1bpY8+HikCGuoDRu3v23JEO0H6o35GPjhTLjniVPodykBdYGdd4H1R7nAog+XB+JLAqPuRlL2pq1besyqw9ZLar5uK5gHDCxzHfjAVuf6UDh7/iIuKvkUJUAKUwNEggEhpTQFQPnAFgFgDQDEHRgRgOoO74gueh7Z49gnzhBLowuyRe53ywLJgqiIYqwoO2IM9jmCXK7jXFex0KT1OJeKQB9yTCrlD6bMHaTtiBJxKr0fucsthlxLWTkEvIaz024IDtuBgVXCwMjRoD0ZcSo9X7hTlvR65y6n0VIYGljXHljSnHMqAdq7H78D0063fGXjkXu8DW4TLvgCmhWaAUgQW0jdZQAUA+QwI2kzlR6O70t+gBCgBSoASOIAAC8AAB4wFWCsgRKb7BjAaLVB6meee5/wKqa56sOaUByqVscpg1BbstwfDjmCHk7Quh9LrUAYcypBH6vNKvQdrbrnXpdB2xAi45bAodXrlTq/c5ZG73XKPS+l1Kn0Opd9O2kBFaMgWHNDFXpQ7vHKHSwnbgv3loWhZ85hDGTjYiXbLfSuaO6vveR6KLzOwBgtAPkfS1QFZASwcmUqFLpQAJUAJUALHggCvldckpTaRARiGY8FgMIBpzqKab62W3nE1TabiLjnikAcdSr8j2OsIdjuCnY5QpyMYtgcjdmXQrgx7pT5R6j1Y22flT3h36ZMpEfDIPaLUJUpdXqnbK4c9cg+5T9rnMNdUfLgyqJvjYY/c6ZE73Uq3U+m1BfsrQoNOrXTPwYTcuXHP6qYtl9R/l7PMM/MCEXHQZqQlU6eAcCy6Lv1NSoASoAQoAfL/16CHORlGm2KaZayzjWcuW//gnzwb3nXL4YP9W9ff90o9HjlMxCDYZQ912UJdtmCvPdhvV4Yc8rBbGvBI/QdrLhJQp+2IEXDLEQ85HeOhcaLfcr+D3E4N2ZRhmzJcEYpWEnO836n0upUuDzHZu9xKt0sJO4I9roM7Xdxynxjs8218b819vxfmX8Nb52pzpDAADKdNb2egVxIlQAlQApTAMSEgaP+FBe2/MgmRm4rBdMbVNzywummLR+r0Ng9NouIeqccf6PBJHR650xkkEl4VCleFiG1nJxNiDjnk6CTNLkftCm1HjIBDGdZkm8wDa1cGbcpwlRKtDI5WBGPlZHxgrDI4VEVscaLiLiWsq7hmlHd45A43sd0PGj3xhoa8gY5rA+9cc+ODYDwDjEWgzZViBFJen6r4Mbl46Y9SApQAJTAxVTgJh2sh8hL2XI/37ud8DTtrN43aGg/6b50U4pZ6agN7q6UOj9LpCHZXhcKOhyPOlohD6XVJYY/U61CGKpr6K5r67cqwTR76ULPLQ7QdUQIDDrnPLkfscsSm9FcqgxXBoaqW2DIlek1gcKk0aJN7qgJddinsDvW5g0TI3Uq3h2S6dWjJbpOpuCPQX7Np1Nuwo/reP6BzPcCVAMMYQMui0Kc+oxcTJUAJUAKUwNEngLSgpkWzqEi9VdOCC9b+cIX8vrup0xUYEEPRyewzYot3ilKXliTVWxXqrQz2OJQuj9ThD7TVNu2pDuzxNOwQm3b5AnvcG3f4pdYPtRqplbYjR2B3jbTDL+/0y7uq5d0+eY+zcadXaXfJ7bamPY6mVjGw2xtodUt7nVKnQwo7Se7buFHulTsnt8Xd8pBbGRKDvbVN75537ffBfAYwZESDQcuroNOUHv0rl/4iJUAJUAI6AUSGlQFYAYAzwNzLnXc8I0rtjsa+qge6RXlwEhX3SL0+KeyWe+3BSGWov6I5Ym/pcwTaqpt2XhvYsb5x2xdCb1z7w99773jCefsvbd/8ueO2X+7fXLf90vXvtB05Arf9wnXbz5y3/8x5+/84bv+F/fZfVvz7L6q+9WvH956uu/9PNzRvXi1tWynv8DXtdDW1uYN9diVCMhhIDT7NLt8XUP/IM+6VByofCjvkfo/cXnXHUzD3MuAMJkbLayPxcUQvJ0qAEqAEKIFjQYCkprMCaCOABevca9b6H3jVIYXdyog/MCQ2HlBF5J//v3ukiEPprwwNLm8eLG8eqGru9citq+Sd6za+vfLO5xfZbiz5lA1KLgDL2WA568PNfBaYaDtyBMwLwbIALGeA5UywLATrWWA9B/LOg9KL8i90nev6l5p7fr+mcfNqZadPIipuCw5UBgcrg4PaQEFSt+efz+/EOz6530t88kOuloj44KuFV64Co9WMgEcAiANEs9SPxcVLf5MSoAQoATJlGTJymoozxsJPr/pW9Ya3vJtGyh+KrJCHvRu6Jv6Pf9STiFMetClD5aHosubo8ubBylB3dbDVf/8bF133MHfe9ayxmCFZzCzLCgjxLCvs33gkCLQdSQJkIhuWQyzHshzL8DwZyM3ygHjgjKjgFOZTn7nghkdqHnyzLtjmCvZUBQcrQlGtDVUeaqSZa2NXXWikvHHQ9ciI66G/X7DqdjAVmDlgkebCYU30UqIEKAFKgBI4FgQY4ARiUFmsJcAuEL/5i/qm3U6SXj7sDURE6RC2uEvuWxoYuKY5cU1L3NYSqZO23Kq8NPfSWmDnAleqZ75PclTEF3uEGmKY/duR2uwR387+O4m0qUWO4E98FOp9m2c4QMXAzplzae2Xgi+vlLfaWyJLWuLXNCeWSANOZTJDXMtkJAPQtWI+/XWBne6v/xTyFvFCvtFgJu50Wvflo9DT9ygBSoASmH4CDPACYhHHG2dD6VX13/1dXVObUx52yMMeqc9zCBXv9cjhyuaRJc2Ja4JRu9Ref/+Ln/LcwhafCciI+KM6/kifTXXicfrBHeYvTOyh/uQwt3J4q7E8MEau+MzF3ltXPviyXWq/Jhhd0pyobB4hg/4njYt75G6P3O1Q+p3yQF3Tnprv/J9w6nJgSwy8hdyGIZrfdninhK5FCVAClMAUCTDA8QzPC8AWzb14xfof/aW2aa9jn4p7pclGH3nkXn8w7GwZLlOGbS1DfmX35TfJYD4HUB4wHEJkepWjthxLdfwkB3kM95NhECnTgvLBcs6VX1D8ym5by1CZMuxsGfYHwxPlYj4qdNLn3afiDmWwNtC27ocvz7mwHpginjMf5RP9SWDT71IClAAlcMITYAAhEAQjcCUXOr/ymY1v+gOddiVKPOqkCvpkKu6Ve+pCXS65t1Lu8z8SEe9/VbhgBbBzWCGf5DwdXXTHUB0/0YEew/3Upq4DVsgHdo7xolXi/a/6H4lUapPR1YW6vJNXfZG7vHKXVpJ92B/o+MzGv5+97PPAzkKMgee0eqyfiAL9MiVACVAClMARIYAQqbvKG4xgnHvVyu+tb9gsSj2VSsyuDHvIRCaTVWD1SuEaqc0d6PQ199Ypuy+6MQjWxcAXGzkDKc9+dJ2sx1AdP9GJOIb7yWrlWQysAEIJ5F1w0Y3BOmW3r7nXHeiskdoOca61uut2ktY+Ikrd1zW8vcjxr2CcD8BzLPWnf6IuQL9MCVAClMCRI4AYkmbMCkYwz7d/ofHaxq1uKVKhJGzKiFfqESdXcbmnRtoryp21oY4VjZvzrvwC8KchZDRoanGUbXGE9FwxYBiG1ZaJd44crcPZ0j/LNsMwSFsOZ3NTWAfpKg6AkAn40wqvuXlV0zu1oU6v1OFravVM6ncRyVRpHTZSDy7mlvvWNG6tuqkBzAsQZ+YQnV98CmeFrkoJUAKUwFQIkIFCRMVNYFlgvzm4svE9pzxYHkzalBFRCotS90dGSfU3PXKvT+7yBbtrpN3+778EZ3iAmy0AaxyfJ+3oGuMHUmBZdmaqOBkNpqmefrdx4F5P9ysy7M9IqvWxwM2GM701P3i5Rtotyp1ioGPyuLgodYhExYfKg3GnPLCycbvj5mYwn8nyVg7Rmi/TfeLo9ikBSoASOAiBfSpuBsuZVbe01DfttCnRZcG0ruI+afLx4n0uKewL9dZKu73f+x0UXwVsoVGrBEcS24hkHD0hFwRBV26O4wwGw4xVcf08cMcglswAmXiW1OkjNfPZQii60vO939VKu32h3kNOXufTVTw4tCyUtCnR+qZdVbc8ApazWD6PQ0c7B+IgfZm+TQlQApTAyUeAxEoRIMEMloXltz5SE9hTqcTKgjmbMuqTuqulzklscZccsUm93lB/vdLqv+tZKL2KQXm6SBD1RsajrOK68c2y7ExWcZ7nGYYRBAEhxLJHM42fAWRkNAk3kZKpeTDrKv/dz9Yrrd5Qvy1AZiKf5FxXS3t90l5bcKgslKoMjtYEWitu/TFYzkZ8Hs/A0TyMk+8apUdMCVAClMDBCXyg4tazl9/6qD/QWhEcWxr62CquDLqD/f7ALt/3fgMllyNkNY3PU8kCshzNRHWWZa1Wa2Fhodls1gVyZnrU9aB4SUmJLucHPzNH/BOknREyhYmJhMatMPsq/12/9TftcimRSqn/Y6r40lC6IhjzB9qW3/oYWM5FfD5V8SN+qugGKQFKgBL4uAQQsByDkAFB3ikVtzxW29hZpcTKWgZtobAY6PMFJrPPXHK/Q4m6lIHqwG7vnb+Fkk8DZzEw+2abnk5bnCFl4RjQrEDNew+cWbiaL7lz3tXfgIXLgCXmIQ+8wBpZpE+9JQDDIpaMqyPpWGToNMnOZxmSTM9q9xvaX/5Qtx7aTxMf8n7RAn0Mlz68jiUDssHIAHFf8wAGffNaCTVkMIF50SlXXyve+C3zrIUMK+hrkm0hFljDdE4rwgAyAcMI+m0WMkHpZeJdv60O7HYq/TZ52CX3T2KL+wJ9YqDHFuouaxmsUkZrGzsrbnkc8uYhA8cxHCIHShdKgBKgBCiBo04AgYUDI0lIyy+quvmx+oawTRkp29Rpa2kVAwO+puFJ/rMTFZejLmXQL7d673kWSi8F3iwgINJE4uLCAUp3RA8NAcMDicfymlICAsaEaiH/1TniFpPjUf6Sqw1FpwMUAeQBWASOqC4RXqKWHCcIZHVSsZWoOM8AqfVOdlbP4p48u55kEmht39f0N8hWtMYDmBlkMglmCy+YGE3IBRNvLAKh1HLqxefc0OK55/mbG583zL9csBSzepVacmvAAW8mM4tM18IAMjDaLGQ8+TkjlF7qvedZv9zqUgbJeZxcxZuGxcCAraWV9A1lpL4hXHXz45BfxBqBAyPSJtOZrh2n26UEKAFKgBI4GIHjV8WJMqNxQQWGzPexAvLemlUdLql/c7bvueKqe+FsN5jmgTaDeqkAeWQGLjNwc4DPA8YEjIEk4JGBYB8Uc9dN7P2s7H/mppXJIdandrtC7HwGDAgMLAislmPAGbUpSMZFnuNMc4CZx5RcfbnvO+u+82S99P765u2f2/BHmHUZIxSz5H6C3D0QJwFrJFO8T9dCVXy6yNLtUgKUACVwzAgcpyrOENcz0XBWH9XGAM8x10PR9mL/oLlmt9GNudpOg+dXliWfFxacyQhE7Xli9loRX6p5lgVNxY3aI687DXRf+SFd6mRO7QKAPAasCMwsGDkwcCBwwHGaFx2RkjfazxkNIJRCwcWzLr+58uZfX//g7lUPdHqVvpWhvddvfA3mlDGGeSxwgu5OIK4A4iCYtq5AVXza0NINUwKUACVwrAgcvypOLFiOWNG69Wpg4SYobivwpwx1A2a/Cp604O8rqnutyLXJesUNMPsyMkQazGQtzYtOkrKIU53XhsQR8dS3xR0qME5UPB/AyoCRBZ4j2ktUe19sfZ+EszwY5xrPcVTesum6hi31jXs9DYPVoVy5NCIqPWs2/gNmVwF7KgJSJEcYPwrNrT9dXYGq+HSRpdulBCgBSuCYETjCKs6ZeIbExbUAtGH64uLalsdzqnQBtvDs56Cg3SRmoXpY8I0I4hjypFhfQvBHzP43TQ6FvbgOiknJUARgQqQJmpDz42VYyE4jLTY+qUedCC5j0CvM6vlrJEzOahFtIuY8sKVgOM28oOyi6m+u+f5v1wY21yqtDilc1RxbGoyXBZMuZeDapndhrgv4Mxgw6cl32uD6A3PmjnCnoCp+hIHSzVEClAAlcOwJHGEVZ41ExcfTyI6KimtBbWDAxKMbwdpt8WOojnK+HotnlPeo4MUgYqjOgH9nnu/nReU3C2ddAWYyZyoCMPCsyaBlvQEgUreVZ8hEbIcQcT2bTTO9ORYMAhiMminNMWA0Al8K5oqzl9228ranP9fw9uqmd6vl3c7Q3oqW7mUP9y7Z1L80lHQog9dKO2COC4QzAEx60jhV8WN/MdA9oAQoAUrguCNwnKq4pt2aLa6N4AIWBAO6AaxdVqLiMVYc5d1J1qWCG2tCrqKaPk5sLap9c27Nr4xLV/ELFkPeKcCWgMGIOGKCs6S2OZl/e9y5ffAzyWpDtTQfOsNq6WgGAHMeGEtgziLjRfWOL/1pzfe3r36g1f9Qe22o3xEMVzV3V7Z0VDzcWr6ptaw55gxGrpXegzkOEBYAmPQ0e82jcOhbiIPv1iE/obb4IRHRL1AClAAlcLwROH5VnPi+9Uw0za/NGtF6sHbk+VVNxTG4VHBmGFcKucc475ihelSoHhX8cWNd0rTyryX+oOEqLVjOziX56kj3pTMfhKgPfiL3s8W15HYOUCEYzoLTXResfWh94+bqBztrpH5/aMQTHKlShquCw/ZgxBnsdivtHqW1PDToDnaulTfD3AowzAOS2a7lqOtDxqdxYhGq4gc/p/QTSoASoASOUwLHr4qPjxbXk9QFADNaA9b2fH8Wqkc4UQVnbp+KJ1hPkvVh0wrM16vEwe6Ncys7zSteMDvvYC8og+I5YOR4ngwcJxs9VJo4CZ8jQIhBPMvlsYZTzacsucD1nZV3vrS+sc19/x7vpoGyxq5rGnrL5GiZMlapxJ3SiBgYqG3sqW/ssgX7PMHWdfIbMLcMDHPHZ3DVi79w3CF/fArdjKr4FODRVSkBSoASmJkEjl8VJyXROC0djNGGapmZ1WDZU+DLgBjjvFnGlWNcWdLcGcaD2WoVvCp4MFRjVIvBn4CavvyVb8xf8ei8quvRaVdAXglo6eWW8Wm/SHgfAQtIAM4AnBF0neeIhJOnVhDm8bOunnPxZ8Uv/+qmpj1rmsLuB7pFJVohd1U1R2wtw5WhaLkctcmjLikqNg3VNEZqG3ttwQGv0r5efhPmLgXDbNBc8sSdjrTMuEPdQkyhFxEVR1plPUGvcl96qXj3szVSq1sedMlRN636MgW4dFVKgBKgBI4NgeNUxTXR4wFxBqKy2iszrATLrkJPBlwpzpMDt7pfw8i7f0si7xgnjvDioEHsMYvv5Dn/y3jp52DOuYIBzABWrWkRch5QEVhKwVoIZjNYGcYEBhNYzWA5Jf+i1ctv+fmaDa21DYPeplGXNGJXhuzByeqYuuRIZXDUK4fXS5thzjIwlOo+/PEB6/qNw3R1BKLi3MScZsgIJZf67n62Vmr1SoNuiar4dHGn26UEKAFKYBoJnJwqnkLeJBJTSMwwIgZRZXzDvPcdk+0x5sJbIe8CYMya2lkQmcRTHw6u1V3ngTOBaTazcMlla75zw4N/vDH4Xv3G3dVNvR5pwCUPOuUBp0JVfBq7K900JUAJUAKUwAEETk4Vx8S7LmoxcqLixM0OfizUxkz+7VxVAC6ug1PPAcGg+eoFAUoMvBUMwBfB+ZfOrf2q+L3nbgxtW9G4xbPhndqWTrfS6VJ6XHIfcUpLVMUP6GD0BSVACVAClMA0EjhpVZyY4EBs8Rx54s2AKw3uBOeLGMUdltVPCeJX4KyLgC0EPfiOjMVnzy27/srbflytbKsNDHgbuz1ypyu0tyq4297c6gjtdSlhj9TnpSo+jb2VbpoSoAQoAUrgQAIns4qnEAmNj/BijPEkGG/KUBMrqO/K8/XwKyL5n9k8b1VT8aftyDLXkldyydWX3XzftfI/Vkldjh8NOJqwpxlXBoeWh7qqHu2seHi3raXVGez0yL1eafK5XGlc/MD+R19RApQAJUAJTIXASaviaYbod79RHDCKMcGX4qvHkLcfuSJm37BQkzCtHLLUbJvt+Z37i813B/6l5dcVD//ZKXWtveig9TQAACAASURBVB+v/CGu2IjLGzPL5JHlLX3lj3SVP9xW1dLmDHZ45LBX6pt0Lleq4lPprXRdSoASoAQogQMJnJwqnmC9I7w4ZBCHBZLjpoXG9UcfBh8GsZ917Dj/2r7vKvjNNhzFkR78P89mbgn2ixtHbA1xT9OoGIrb5MFypa9qU6SihVRnswe7XUrYLfdQFT+wi9FXlAAlQAlQAtNG4ORU8ZQ20izGiQl2IrvNi8GX42sGOU9PaW1y5V34qT/jof5MNoPHMI5gHMZv78K3P9/ne3RrXcN29wPvik0dHiVSFYhUBYeqggO2UK891O0MdlEVn7beSjdMCVAClAAlcCCBk1PF9Rz1HIhZPccNvFnLik6j5x8lnuHa7+IfP4t3dONkOqEmh7OJLMY4gXEcJzHelVH/d/fQd55oWxd4c0Xjjjq5z9007JDiNmWkKtRf1dxlD3VQFT+wi9FXlAAlQAlQAtNG4ERVcQwuveXAnWHcWc6b5bw5VlRZERMXukebJYXMeJZCYjS/fkuR95VL1nXe9xje3pnIxntwMpFN4XgGpzJjOB3ByV4ci+NBnOvLqXhLHIde7P1icPPqDdtrG8Ji04hTGrUp0arQQFWozyX3uuRet9zjGW+9brnPJfc75QGHMlgRjNGqL9PWnemGKQFKgBI4yQickCqeZt0YnFpzpZF7yOCJmMQBk2/E6E8INVmuNsm7VM6FGU3FQRw4/bOpW1rwX9sSKXWX5j7PTbbgbA7HMvj9Pvz4H9q/Fnp9/YZ36ht6XRtSVRuxQ8GO5h6H0iEG99aGOmqUNp/U4ZZ7bcrw8mBiSSi7PBinKn6SXWT0cCkBSoASmDYCJ6SKJzl3inWmkTONiIqnkScJbszVYaZWt8IzUIHN/naD/eVi2/bVd+AnXsPtMRzD6mCa+M2zeBIRV1U1nVUTORzDuDOLX+rAP3i6rf5Hr9Zt3LWqOVr5YE9ly3BVy1ClErErEU/zgJvY5cQcd8sRt9xfqdAKrNPWm+mGKQFKgBI42QickCo+Jrh7La4BoyvOubUZULyYqduXiF6DoW4YufYUi53iN9X/fh539+dwdjCTGE2kiIQPYTymTqriGRWnMjg9hnNDGHdjvC2Jf7NbveOX767f8PLqwDvL5X77pljVpkR5c7w8FK8Kjrjkfl8gXNe0d0Vjm02JUlv8ZLvK6PFSApQAJTBdBE5IFY8Jno48d7/JnWT1+LePFFgFf5apHRXquow173xqXepbD+M/b8eRoYFcrA0n92J1CGOcwsTETk1mi+eyKYwTKk7EsyOj6lhMW7EH460j+Oev7fnGIy+JTXuqNrZVKQOVD6fKmtPLQimbMiJKffWN7asbdlMVn66uTLdLCVAClMBJSOCEVPE47xkyeJKsV0th8+ll0hOmFe9bfW+fs27ksxvw5nYcHsCjcZxJx7KJEZwdwNl+nB3FxBpPq5OpuJrL4WwGq2mMkzkcT6qjSRwfw6kxjIcy6u4obvr98OdD22qbdojNA8uDsaWhdHkw6ZCjYqCvJtBVpYxQW/wkvNDoIVMClAAlMC0ETkgVTxMTXNSi4C4MdZit68mre/20FVtWfzf185dw21AKZ0ZwJoUzJFEtlcNpEgvPYjyC8YA2rAxPsqjky6TlMFZzmKystxxWsari3ih+dUfm/id2XSdt9st77aFomTyyTIlXNScrlbHKUNwV6FobeBtOKQeBzkw6Lb2abpQSoAQogZOFwImr4sSXnuVruwziG4WebfZ/TQb/D+8ZxIlsUs2M4NwIVuNYTauqmlWJHhNJJg+6Ok8i4uRLmf2FXMUqSYcbX5kIvJrN4t4EfmZz/BuPb/M/9A+P3G4PDZQp0SuahiuaqYqfLBcXPU5KgBKgBKadwAmp4gnek7bU91lqts+pe/3Tn4nc9Rj++x7cE8XJzEguPYAzcc1zntTM7qQmyirWhDyrvchNJuJYt8X3CT+xvlVihY8b6FmsJsdy6UxGxdEMfjeCf/Lnvlse3exv2uJ7uNvW0l/ZHKO2+LR3a/oDlAAlQAmcJAROSBUfMXj/Zqz602nV7Tc/iF/YjEeSmVRyOJOI4Vwa41xWzeRwWm8qzmhWNNFtdZ+QE0mfdBn/gi7dmfHbAH11ldR5I7Z6NpNOJlQVj2TxtkHc8PzelRv/7Nn4D1soSlX8JLm46GFSApQAJTDtBI53FRcA8QCAAEywEizvF3mSjKvX6nm/5nb8s5fxu104NtaD46041YHTIziLEzk8kE5gPIpxStUi2gk9pY2ouJ6inj6EgqsqzqgkBy6h4riKx7QnGVW7DUhpY8+GSOZbBqeGcXoAp4ZTORzO4Od25+58cpc7GHEH9q4LvAWnLJ+IiwsADAAwvHYkH33SyRemtDCADBzhBEZCzAgll/rufrZWavVKg24p6pb7J6kd62saFgMDtpbWsk2dNmWkviFcdfPjkF/EGoEDIwLLlHaNrkwJUAKUACVweARmrIojABYAMZq+6Y9I07jxdxhg88DAElESgAc4HVg/zPr55fXPX7ki/aNNeG8fSSFPZnLpdCwVT094yjWLeZ/ZrAmvLr+aef3B+5MK+X6r6Y51LaiuraLu+yFteyTOnkrGszk1rd0ihKPZJ/8+9m+bXvl84Ek443LgZpnBVAqoALSjzdMElmeBR+SQeACOHDIDYACwao+Hd5a1taiKTwEeXZUSoAQogZlJYKaruG6kEiEb1/B9gs4iMAPHELtSIHq/AARv0cJ3G/8Lv7oVt4fVNElcS6VSqrYcQpSn+WNVVTOZDHnMqoMpvGMA//cftuSfcyUYSgFMLLCsruIGItscYhkWjR8uIsfPaIJu1B6n0Iuoik8BHl2VEqAEKIGZSWDGqjgDLAIDA0aGPJKGQEAgcKTxJuBLgCeeYU4TN82lu8g6+8kNodzOdjway2YyJNKtEpNYf5xmpT7o5vffh1Q6M5bBe7syGzf8pLh4IWstBYMAJkRsbc2tYCEeb9aohQk43Rsxfh8z9e5DVXzqDOkWKAFKgBKYYQRmrIpr/uN8BvIQWFkwc2DiwciBkddaHvCnAuQDIKL1LBh5S0GR2WixWvIuu+qqn/76V6OxGCYpZtm0ZpQfVGOPygfpdDqbJROcDg9Hf/Y/T1Ve7ZjDFueDYAAD2XldulkoIW5zxgisCZBpXwCb11V8PMAwld5DVXwq9Oi6lAAlQAnMSAIzWMUFLRZs0uxvTgBkAKTlsvEcCEbgivSAuFAAebOgoOT0Sz4NAg9WC1iseQvP/uK/3Pzaa6+lUqlsNpvR7PKjotcf8SPZbDaXyyUSiT//+c833XRTUWGhEZg5gvkMweo858K5ALMACgHMQLwNIDBE1zmSD8BrNzLjCW/MPsP88HsRVfHDZ0fXpAQoAUpghhKYuSrOIGBYhiEuc4Oe9aUJmdliFcx5wGiyzpdC4fmnOq5fe3fjX1o7f/zr/7dg0SJgjWz+XJbjjEbjV7/61XA4rMekx8bGdIM4lyPjwfVHjHE6PXlO+kcI84femtjCxDZ1N0A8HidFZbLZ3t7eW2+91Wg0chxnNrPAwnmLznzmJ4/HfvPKhrMrbmPOdAGaD5r1XcCDhQNhPK8NGI0CkEcEjBYiP+yORFX8sNHRFSkBSoASmKkEZq6Kaz5khICfCIzzgAwIOB4EK+TNhtIz4dLaxV8M1Nz/2882PvmXjoFoLrP5nS23f/O7CxdcZDAYDQZDXl7elVdeuWnTpsHBQd0mTqVS+nxl6XQ6l8vp6W8fUuVP+lJPo8vlcvo29c3mcrlsNjswMPDwww9fddVVFovFaCS7dPZZp/3bf/z767vewslR/JvX/nxW3RsW+8/hkuuZuQUcyQVgWRbxJMmN5OyRNH2S3abfynBT6kVUxaeEj65MCVAClMBMJDBzVVxLS2c1FRcYktJGJI0TyMis0nPgjCtPv+7bjgf+WNO8yx949zPSn18NJ4fSCZxNqLHUe2/sWL/+OqPRWFJSwjCM1Wq12+3PP//80NBQMpnU890mks50S/2TKvfE9yfyzyc2q6pqIpEYHh5+7rnnKioqLBYLQqi4uNhoNK5du3bz228M4NgATmTGovjp1zbPrRkz1w3n1/1mduUtc84vh8ILwKiH/HlEXOvkqDWHhDakbipdiKr4VOjRdSkBSoASmJEEZrCKI4ZBHAl+k8YAAi6PCNzcK+e5v1L1nZ/WBv7qk9s90qivsf/ajf/4c1dujBRBjeXGRnES9/X2/epXvyorK8vLy+N5Pj8/f/78+bfccsvWrVszmUwul8tkMolE4oiMQ9M3kkgk9C2n0+mtW7feeuut8+fPz8vLEwShuLi4rKzsiSee6O7uzmWyw9nkGFZxOoufef1v82uGtLnXRi3+906pfiqv4kdw4SoouAhQCTHBGTKajmNYYMwkijCV0i9UxWfkFUh3ihKgBCiBqRCYuSpOxpVZODAKYODBiJgiMC+cdXG942s/vkF6Y72ydXXTe+KGAW8Drg2o65p2vRzGgziZwkPx5KCqkuz0TCbT1tZ2xx13LF682GAwcBzHsmxBQcG9997b2tqq+9KnaIjrFvmEOZ5KpVpbW++7776CggKEEMdxJpNp8eLF99xzT3t7ezabTSSSOItjY5lsjsxRnv3dG8+dv7Itz5cBbRI2VowZVuyw1P3aVPEV5tyLwWIFFgQWjCzDswaG5cko8sNeqIofNjq6IiVACVACM5XAsVRxLe7LIGAZxINg4vK0cdM8iXxzxAq3kjxtAaAEjOfBAvei1Q/U3v+Xtc07awLbfYHtPnmXNxh1BFLexsH1gS1/6VZHcDaLY7nsGM7hbJZY2xjjZDK5ZcuWm2++uaioSBAEg7YsXbr0Jz/5CcY4oS0Y44k89o8zuHwii01Pl0skEvp4tkceeWTp0qVms9lisfA8P2vWrJtvvnnr1q16+pt+Y5HL4lRWm9E0qfa88Ppb8+oTvB+DD4OoIg9m/Bm+fjBvxVsWZwtceBOUXAFsKQBnZiCP4LBongkSJxe0lD8TQ9LaEWJJ+VZGL46jf2jQvkLqyZDarloZPFqBdaZehnS/KAFKgBI4TALHUsX1gi0ssAwnMAaODLEy8LwZWB54lkWsGZmRMJefv/xTq37gvvelmlCrb1NPVaC9sqnVHdrrCu2xBfurlFGvFF7X9Ppfu7NjxDSOqyQ6jtMpUrtNzxVPpVLJZPKZZ55ZtWpVcXGxLuQFBQUOh+MPf/jD2NhYPB7Xc9/S6bQeOJ8Ie3/kk6y26Flso6OjY2Njzz33nMPhyM/PZxjGaDQWFxfX1tY+88wzyWQykUjoYq+b7PqE5mRe8hTe8/LfdhfXY6jBUI1BTPFezFVj8KmoOmOo6baIfzIte5A/3wfWUwAYkhagpbvpY8f1hDeS7kcS2BEgLQ2OWOu8ru9azjspMq/XmWepLX6Y1whdjRKgBCiBmUvgmKo4T7LVOAFYnkOcRTDyRIrAYDBygglQMeRdcOqSz3m/9esVjZttG7aXNexdEggvUyIVwUhVsOsQKp4mSzab1bW8v78/l8v19/c/9thjixYtYhhGEASr1VpYWPilL31p9+7deuL6hEX+keK9/5vJZFK3yNvb27/85S/naYvRSKrJXXjhhf/5n/858Yv6qDbdECfqn8OpnGaLf5SKpwz+BBLj4E4hccxU013of2uO+LPSpV/nFziBKwUgxriB2NZmBkpYvgAYCyn0plVqRSR5QMsgGLfVBS0jkHQ+aovP3EuQ7hklQAlQAlMgcCxVHOUBWwicBTiOuIMRcCwInIHj8izWU+dcuuayW366WtrmU9oq5XDVI2NLW+LXNMeXPxwvf3i0ItgzuYpPaOeE9zudTuvpbDt37vz2t7990UUXMQzD8zzHceeff/599923Z8+eTCaTTCZ103l/zd7/uT6iLJ1O79mz59577z377LP1+DfDMBdeeOGdd965e/du3ZOfSqX0FfVR43ru2+QqPsS5RwRfiq9WNR87Zv0jnLfT5Hkn3/U0GY02u8DKGrQSMXkABVqzEpubzIZGMt/0wWlaDtxEtTfyilSfp7b4FK4TuiolQAlQAjOTwLFUcVKvzEIyr/VALkllswBXapq/zLnuvhsa3vRI7WUP7q4KDVS0xK4IDF0pR68KDC4N9NmbB8VH+ydX8Q8ln+sFWHRp1/3nmzdvXrdunclkEgSB53mWZcvLy5966qmP41EfGhr6xS9+UV5eznEcry0mk2n9+vVbt27FGI+NjU0EwsfGNDe/JuaqquZy6uQqPoicY0K1ytdokfIajOoweNPgSrK+mLH65YKq/yi8YC2UXgSoCMh9z8RkMKT0m15VXhtirsm2pusfdDuq4h+woM8oAUqAEjhBCBxNFee4A8qWmIAzkWmuWZZnSEK6KR/OuHxR/bdrvvfc2ge3+ja2OYL99uahiuBweTBaERqpah52tQx5gj0eaa9H2jO5ik+Y4BNmtF6GRX9ffx6LxZ5++unq6mqr1YoQKiwsLC0tXbt27UsvvaQnrOnGtO6T1y3pWCz2yiuvrF27tqioKC8vTx+MrofA9RsF3Sefy+V0+/tDc7GQ5PlJPepJXsxyfsz4MHj1lDftUQuWg2/MXNNWKP7esvRuw7mVYJ2ly7ZRG5FGhtRrMXJBqxijudYnZFybCI6q+AlyzdLDoAQoAUrgAwJHU8VJlhVCgiDoJmwR4rVKqiyR8tIz51Vdd8WXguJDfxflboc07JCHHUq/Xel3KAMOpd+p9LnlsCh3+KW22sBuv7xrchWfEO+PfKJrue4537NnjyzLixcvFgSBYRiO484+++w77rijo6MjmUyOjY3pI8tTqVRHR8d3v/vdM888k5RXQ8hgMCxevFiW5fb29omSroeMrE+u4irr0zLdqvc9ktx1kr4OYoYhTzB4xnjvthLvY/lXfJ47bTEgMiUMpxnlnB4W1/3pDCkApz3VE9dJ7hvNUf+g49NnlAAlQAmcEASOpoobDAaWZRkyHoosLHA8yjfknznrApfty9Lqja/UKO87m3uXKtEloXRVKOaWe9xyj0cOe+VuUer0SR3+QHtNoLU2sMcv7Z6Kiuv6rRdM1X3vO3bsuPPOO08//XSEkNls5nl+0aJFsizrSWqDg4OBQOCcc87Rq6gyDHPGGWfcfffdO3bs0AvIZDIZ3XCfooprVviEhJPoeIYRU0hMsOIYJ+YQUXGi5YbaYZPvH1b7Twquvp6bfzowJCJuZguBt+jTxiCWZVndr66nqFMVPyGuV3oQlAAlQAkcSOBoqrggCCTRShuLRdK58xfC/GULPf++4r4Xr1V2uRvabYG+CmlgmRxZHow4ghEPkfAerxQWpbBX6vbKYa8U9si9brnPrRwiR/0jTfCJN/Vq6vpLVVVHR0f1fLTnn39+zZo1s2bNysvLMxgMJpOppqamsbHR6/WaTCaLxWI2m+fOnbt+/frnnnsuHo9jjEdGRnTLXgt7k1LqE7/ykU8mt8U/UHFUnWOr08iXRKLeUkhMCWLG4MWMW9NybwaJvXn+5wsq7zSc54X8RcDOIZn9oGcMkpHimid9319qix/Y9ekrSoASoAROAAJHU8WJ/c0ScUEIFRUVzbHd5Ljv99f9pMPZ2FHVOFQVSNjluDsUFUNdorLDLbW55YhbinikPrfc55IjDmXQpkQrg6PlwbHK0OBUbPH9a57rdnkmk9ED28PDw08++WRZWRnLsvn5+brnnGGYwsJCnueXLFny1FNPDQ8P53K5eDyuW94T49k+UrY/9ObkKp5jfZipJuPF2eo0V51ifWlGzGpOdTKgHHlGja4k71KRG7PVmK+JI7Hf6u9ZsO7VQue9cO7FXPF8UiUGFQI/Xq513PEBZD406lE/Aa5YegiUACVACexPYHpVfN9cmnpolmUFQBbGPO+cK7wrvnjXaul1m7JnycbWquZYRXNmqRQvl6IOqUdU9vilraK02y33eaVeUQr7pC5R6nbLvQ5lsDI4sjwUr5iaik9MZaYPE//nVLjW1tYf/OAHl1xyiV4iprCw8JJLLrn//vs7Ozs/lP2uS7ieAaeq6hRt8RTvy3DVWZYY4hiRpDY9Lq4/5sAd451jvDOOnCnkTjNeIvBsTQrEOOPbW1QfKF72Of6cC8FSAKSamz4ZGqnaSqYnpyq+f8enzykBSoASOCEITKOKswZNOYiEsFpBMVIS1HDK7E95a7626UvSq477tziCfd4fxyqao2XB6PLmaEVzvz3Y7VHaquWdorzXLfeKUndNYG+tFguvCbSJUpdT6a8KDtuCkSna4h8ykT/0UtfmJ554wmq1chx33nnn/fGPf9Qz2z/0zU/6cnJbPMn70pwm4YweHf+QinuSrDPBOZOsK4U8WSRipFdvrc6Bf0yo65i9/vFZdjt7ihU41mJktJHlZAQaAq1Qq4HTCrqR2jTICCWX+u5+tlZq9UqDbinqlvtJqOIgzdc0LAYGbC2tZZs6bcpIfUO46ubHIb+INQIHRkSK0dCFEqAEKAFK4KgTmE4VN5JSbNqQJ1ar6c0jgYxzFhYIC+xXrv6Plfe/6m94T2za7ZI7bXJvVbC/KtRvC/U5gmGX0ulUeh3KgFvuE6Vuf4DktVVLHaIUdioRuzJkD/ZNq4rr9WG2bt06e/ZsAJg/f353d/dE4dVPqtz7f39yFcdoX446U51D1RnkS+2LiyeROMZ5YrwzjZwYXONpbuAbZbyRgrpdhf4XrY4N/GV1MG8O8GQIvpmM67NoQk7McY7a4kf96qI/SAlQApTAdBOYXhVnxwc/6TW/OSAWImOYA+ypgBbC6b7KL/3ka4/vXN24pbrhfV+wy6n02oIDVcGhyuBwZTBaGYzalSGXHPFIPaLULUrdXqnHJfc5lAGncujabftr5yd9rtc8f+edd4qKiizaok9Kphdm/6Rb2//7h1Bx4kInVriKqpN89YjgGxbEqCCO8GKMIyqeYF37JNyLoTpurN01q/6FhbUbSq5aB/MuAXMRaFOy53NgJSpu1YScJCNQj/p0X0t0+5QAJUAJHH0C06/iJK1KV/E8juEAWGQihVeFOWA9HwouK7rwWvdXHr/uob+tbHy3WtrrkiNVwWh5MFYeHKsIxqqCI3ZlyCn3u4int1drJNPNpXRPny0+Ubll69atZrNZT3OLRCL69Cf7S/JhPP+YKp5D1XGhOmrwRQWi3ylGzJFR417NBPdg8MZZsdfif6tYfKTgmn8xnnUlmOcSwebITKYWBBYGtJp4Vs0WJyluVMWP/tVFf5ESoAQogekmML0qjlhARMV1j7pR86sbGIYlb+hTjxYDM4+dc83F/u/W3/Xcyg1baqS9bqW/Sh6qkIcrlagtOGILDtvkQbvc75QjmpZrcj61kWaTq69eeS2ZTG7bts1kMukq3tHR8XGS1ybfMjHlJ63dtq9SG3Gnp7jqBOdLMt4MEW9xX6YbGWA2YPVvLRafmWW713qRD4rPACjS6r4QqRYQmbSUB4ZjTZotrg3vA+CpR326Lya6fUqAEqAEjjqBaVRxpMXFtSHLSBNtQVNxTWKIhvMk6Yol6Vb8bCi6UDi7evHqB+p/+Gptww5vY6sv1OeS+yo2dlc29TpDQ87QkOZIj7jlXo8c9igd02eLT6Ssb9261WQyMQyTn58fDof1hPZD6vTkX5hcxbMMEWwViOWdGx9gti9SruWrp1hfX2Hty7Pd95kvqINZi8FYqvnMjUTFyeSlSGu8lsWmG+IkKE7SC6mKH/Wri/4gJUAJUALTTWA6VdxAxjrtKzyiT7Glz7n1wSNDbHUyIQoqAOE0sF4066rP2b/20+s3/O3apndrmlqrm/b6lB633GuXekkdVpJHfSKreJzzJtFEsVW95GothposuHLgjVpr3in2/sx4xRdhzsUEmabYWok2474QeB5AvtbyNF86nV98uq8gun1KgBKgBI4lgelVcf3IdCH/50fNQucEhhdYluOBNYFhNnCnQt4FZy27sfq2X65teGedvKt6405/MFz36IiTVFMnAXKP3OtROk9IW3yM9ybQhBUuYvBn2epBo9he4t82y/er2eX/ajzLDsI5AKUAZHIZHogLXau2Kmjzkxo18TZpbg+94os+apwUgWHoSLNjea3R36YEKAFK4MgTmFYV32eHa1VHEKMNPGPGfb66k50nrnbEAa8lVrMMg5CJEUqAm8UvcJ1ZfX/1nX9ap+z0N+1xNJDENwdRceJUd5+gKh7nvClSLH285UAcMPq2z/E/M8/+A+E8J+SV6qY2YowsmZmUIeBYApZBxK3BEtTj5dp0wloOgpUEzqmKH/nLh26REqAEKIFjTODoqTijq7gmOUTRAcwCmDhiTbKaigMYGK02CXHEc8Qo5y9izqq7/DPytQ+8vkbeXRPo8Eq9bmnAJZOsdUcwbFOG7XLUJ+1d3/TXv4RTIxhncDKbSeLc5LHpQ3w6rXFxNadmsjiXwziL21584/3SOk2z3Srrihvccc6zb+4yYpFHrbXvzPKFrJfWQv7ZWvwb8lgykTgiwm3gSD1botmELUMgCloIfCJ6obFlAfKoih/j64z+PCVACVAC00NgWlVcl5jD23EGMYjlgLUYCs5YdPW1npukz/7wb+saOqo3Rn1BbFPwckW1B7OewGBt47brAs+/1BfrwXgEZ8fUXBbjiQotem3UQ+j2gR8fcRXXJ0rRdimDszGcSqdVHMO454Wtfy/1ZthKzJaNmJYNWmyjjC2LPHFwxc3+1jzvE8KV34AFF4PAGhgo1nzlh0eTrEWz2w6fHV2TEqAEKIEZSmDGqjgRHTK6nGgPcLOg+NOnl3/Z/53fXSfvXiF1OTd2V0pDlYFht9Jfp+y+Tnr5lZ7MELHFcziZwWmc0zRTHzN2oEYf+tV0qng2oyZwWs1mcS6LY7/d/n5BPQY3BlsK2UeQGzNimve1FXh/O9f2DcPCK4Cbo2m3mQGTZmZPoRtRFZ8CPLoqJUAJUAIzk8CMkuh2agAAIABJREFUVXHiJGaB5bQ0bM5ARlQZT4fTlp9Xe0f9fzzz2ZZtdcF2Z2O7raldlHasaXr1lW5MphfNYDyWxMncjFXxBE6oaRWnME5g/OTOcOF1GMQs2ONIjAr1EWvNP/LtQW6xF0xzARjTeKK5CWCOFhGfQi+iKj4FeHRVSoASoARmJoGZq+KafJOELYZoORIEECzAF4NwSsEFtmU3/mD19/+4JvheTUubV96+qun1l7vxqKqpeDKOs6mZqeKZbCaGYzidJhI+ivETO9oK16TAG0OejqLabdaa/y5Y8jkougrgNACO1yLhFpJuzpLANptH/h72QlX8sNHRFSkBSoASmKkEZrCKs4iMpWKNiDUAGBGjVS/hWXMhCAWQv/Dcaz7n+9YvVyhvi4G3Vza++koXHtFNXHUsiePZbCabzc40j3ommxnDgzgdw3Gi4rmnt/79lPpuq3tnqfPnc5beBadfCEw+wCyBzd+n4CYWCQYBDDwYOJKOfvgLVfHDZ0fXpAQoAUpghhKYwSpuQlDEQb4AJiNwJkAmUh2G5cj4aCMLVhZmQ8mVc33ftt/11Oekl/7RhUczeDiX7cIjHTiWw2omk5mY9vvQwfD9vnFk4+ITdxIkx03NxnAPTg/jsRRO4sEXt/xisfjEqVd+zzDrKoALQKu4VkjKsOUBzAdYAHAKyTBngGXBzJIM/sNfqIofPju6JiVACVACM5TAjFVxrRbZLARFPOQZwWQC3gScEXgeDCyYBDAWgBkMp4LxHDjLUVX/7+3/GMIRjJPqGE534Hhay27TpVmf3WQ/mT7E0yOr4hhjVVWz2Wwmk8lkM1EcTcVjapL41N96/Z0vnPHpGuDPBTAawGLQVNxEarkYtCh4EUABMBZy78IBw5FB4Ye/UBU/fHZ0TUqAEqAEZiiBGaziJoBCIOOjTQLwRmANgATiYzcw5B1DPoNIpNw8B/hTCqHgp+u+hf/7T3jnMO5LJuNqLksi4xN6fAjdPvDjibWOVB11faSZqnkGejHxpkeS+LfbB7668ZE5kD9fT1srJOJNZjPRCrKR3HzSyMwxPHAC8UbwPI2Lz9DLiO4WJUAJUALHiMDMVXHEASsAYhmtIhmvaxspQMYBYwCGFDwBEwKBNwN3BbCPn7rk2fkVY1+T8Qt7cRepqaLPBZ5KpT7pkPEjq+LZrLYr2o1CVsU7MX5tL/7Pl/q+8OiLl37lhwBzrGBFLBlJxjCsXgXdpGX2kXouLKmuCohUaONB4KiKH6PLhP4sJUAJUAIzlMDMVXEyDZc2FRpH5upCWrUy4lFGiDiYec1oNZP87TkAVQB/sF7UUVr13rya1y/9cvjup+N7wng0gbMqzuXSajajZa+Pl3RTDzS993ulYqxiPBUVJ6trG9G2SraXzWRU7aYilsyGh+LK6/1fa3n7psBb9S1vXnjbo4DO4WAWi6zAm62QlwfIornV9SJsWl1VbbwdscbJPc0UuhH1qE8BHl2VEqAEKIGZSWDmqrhWbWxyaDwwROkZWATwvLUsYvEMWcUBwTVm9I9d9jXc8Hv8TgRHY+04sQWnd2A1jLNqVsWjqprFKZVM9a1mME4ThVezOKOSWHWMxNbH5f6jPeq6UGtarWI1h7MZnM7gTBqrKZV4y/swjmKcyqbVVBSnh9VMPJrBrWn81C789V++5w297wh0iHJfrdSx9Ms/BfY0YMioeK2WqpkBDmkV7/4pje2DmvSTMzn4p1TFD86GfkIJUAKUwHFKYEar+GRMSVUYIyC9DPs5AM9blvebxZjZG0d2zHjbeNfrxZ62tffgZ17HPYMZnB3E6b5sIkFM7XHlzmpantAC1UlMVFzNaoqe+bgqro9Pz+J4FiezajqjZlNYHcM4kctlcplsNp1M5yJJ/NKe9H88taeu6Q2X9J4jtLdS6nHJQ7WB7uVf+h/g5gPD6PECrcILN9lBT+kzquJTwkdXpgQoAUpgJhI4UVU8UljXXlL3t0L3W5fcMPRvzfh3m3EvGUYeTSUjOEuEPIMzuXHjO6YVUsvq6p7EOP0xVTytrRdT8YiqjqpqXM0l1Vwql0tksumUivuT+N0B/NgrvZ8PvSlu2OJ/ZMD+cNQW6qIqPhOvBLpPlAAlQAkcjwROUBX39Bg9/QYxaqoZMFTv4Jx7Ft+k3vU/eHMYJ3JRnIljNYXVtKpmtJbNEe/6By07Hjk/uEdd88WregG2KFaHsBrFagznEjiXwjidwnjvKP7l631feeQtz32v1obCjmD06o3Dy5S0LRSmKn48Xil0nykBSoASmIkETkwVB88IL2bZagxeDB4MtWOsf+e81VvF22KPPY939KRwJoYzGTVLzO5kDidVnMZpFQ9rUe0YSXEjy0FUPEekWk1iPKaVUR1RcTSnjmXVVFbNpVTcE8cvvh+955dbrm163Se3ulqiSxqGlzXFncGcPRC3UxWfidcB3SdKgBKgBI5PAieOilvLI0ZPzCwmOCcGd4bxahIuYvBhqM6BP1mybkdJ3d9OW9np+y7+63u4fxSPJnEyhdVcEquDuVQkkxzVlDm1L4l9QsULCgrC4XBOm2MFZ7M4S1LZMsmRbC6eIZY3scrHMB7M4j0xfO9TrdfLf68JvOtt7r2mIbI8mKqSE+5AtKaxb2VDl1PpqJJ73cpwnRReduvPaFz8+Lxu6F5TApQAJTAzCJygKu7Spvt0a4a4qIIPc3VptjbG1owIdVHrqvcv+9zo7SH8whY8EEvlkntzo71kbnKcSZAYN8lfP9AWP0DFybixHM7lVIwTKu5L5Pox7sH4HxH84xf2fiX412p5j72x1Rbsr2yJXy2NlQeTTjnqbwqvbtizfuN2l9JOVXxm9H26F5QAJUAJHP8ETlwVd6ngyjDuFPIkkZhh/RkQMdRiZhWGuiFwvp/n3FF+81jz/+LWbpVMUpIdS6bJQLERLWVtEhXPkdHfahZH4ziq4n6M3x3DP387/bVHt6x54LW18q4qZcjx8JitJb48GFsuj9iUYY/cWxNoX9W449rGd51KG1Xx4/+6oUdACVAClMDMIHCiqngGOVOsM8W6UogIeRb5MKrRvOteDHUYbNjo7zW7X5vl3r3mTvzTF/H7A2Sq0JEcEfKMbop/EBf/sC2eJpOLxjHuTODn3899/8m2tY1v1jbsqA1G7Bt7ncqoU4naAxFnoNfXHPHK3V65wyu3e5V2j9JmD+6lKj4z+j7dC0qAEqAEjn8CJ6qKx3hnnHOmkCsH4351zFTn2Jok6x/j/dhUnQMbRj4MYhycQ/NvGLtRws9tGx1N7cTEvNaXj46La7Z4KoO3d2Yf+b93vyy9eO1Dr64Ktrul/vKmMbuSrQ5Eqhu66po66gNtNU27quXd7mB7VXP3spbIkk0DlaFOquLH/3VDj4ASoAQogZlB4PhVcUTmKkXAkZrj5wL8wVLeb/DETWKKdWJwZZArw7iyjEslKu7GjBczImZFlfNlOTHLOFUgSXBa82ZYf1d+3bYLbuz6t2b8t3YyN1ocD+Dcb9reJPVd82G2GXBrKx6K4aSawvitUdzwfNsXH35vVVOn56FBd1PSFYi55YhX2etVWr1SxCv1ilKPKIW9UpdX7nbLYafSaw9GbMGIjar4zOj5dC8oAUqAEjgRCBy/Ks4CMu9T8fMAXrCUDxg8iX0qrgLR74mGkfeABs59UXN3FjyYrU6wvk7WteuUVf222/CG3+M3BnEMv/b+GzAXgQVKrYZkRwQncPuQ+vT20dv+d8+a5nc8Ta12eWS5lClXcJWccMn9PrmNWN5y3yTNHqS2+Ilw4dBjoAQoAUpgRhA4aVUcgyvJukd5d4zzpBkRc7VZrjbK+ftMNe8V1PT77sb/7++dv3nhnDmzGWBKZy/c1p58MYK//vx7zqZX/A/sqpU6xOaw7eHw8k09ZQ/3lTf325Uhd2DYGxiaRML/P3vnAV9Vkfb/OfXWJDcJCVVaAOlSBKSl3X7T6MWC7LqKuqvurt1VxNVXRYHk9gTruu4r6vr/6GtdFdxFt1hYbEgvIb333v7OecLxckMuhOQmIM/5nE9yyzlz53yn/GaeeWbG4ipGFb8g8j1GAgkgASTw8yBwKat4A2epVFhqBGszXRkmuYOkdpC0DrKknkvarzF8PuvaHUs2XMFFhpGIsMiZd2V8cN1zXy5+bs9Cz8mULa1Jzjq9O39x1uGFz+9f8PyBRc/kxHuqDI42s70dVfznUTTwKZAAEkACFwGBS1nFWxlLCwO+bymShC/pYJbW8mlfD0p65bKEOzTjJhMSSbjh2lEsGSaq50w3P7DikfeXbdmfvLXWvLVU78yPyzyxIOvwwueOL34mLy6zLMFdp3fVo4pfBPkeo4gEkAAS+HkQuDRVvJ21tBJTG3VwM3fQeeTWNmKtUS45HL3svXD9XcqJ8SRiDGFC6fblDE8UAgkTyRCWGT14ZPyM1IfTntq7zH441ZmTmlVu9JbFuopjPcWG50rit+delX4QVfznUTTwKZAAEkACFwGBS1PF60hCu2DrEFPBR72NTa7QLtkTnbw1fM4SdvDlRBtJVArCEkba91sgjMjSg7AKXkVChjPTU+N/+8LKJ/es3JaburXcmlFt9pTNT/9hgWtP0p+PoIpfBPkeo4gEkAAS+HkQuDRVvE2wNnCmatZYLVoqtSknI1Le0y76PblsOuEVhPCEFQnPEZYhkoorCFFJe38raN+caAjRhpGw8cOu2pB259/WPXVixdN5qfac5O1Hjc98vdj1Bar4z6No4FMgASSABC4CApemineIybWiOT8y+dtRqa9HLdwkjltKQsYTEsJIIs0SpSTcKjoXnao6UUgqrmWonHOEZwjHqwmJFAZfdbnxzpR731xj/2ap+6DFfSjluXxU8Ysg32MUkQASQAI/DwKXqIoTY63K+t9Iwxbt5DQSMpGQaEJCCFGoWKrTPGFY2utW0743yzJKwqgJoxHY8BASPoiEhEtaH6LkGJVIFFoyfv7cmz1JT/5X/+TJ+KdKUMV/HkUDnwIJIAEkcBEQuFhVnKHdZJEQIhDCkGmEfCrGVrPWZjGpmYENzcyS5xr1X2tlbY2qlGrBWsdZO7jUDm7Jl5HW58Pn30JGXEnYaEK0DBGkNeAIQ/Wb5QjHEoGhvW7aJ2dD6UlCBBKiIRotEdV0wRmi5KSuusgRUUNCY6JnrTHdlHn9U18mucqNGcUmZ7nJVZVgLze5K22eCpuryGbPTXHmJnpz4tzFJk/VElfRwlt3EH4UYQQpJI56xNNef5AOhg7rSzYGJSGEVZLIWcmbPljiPG5zllucVRZXaYD2R7K9MslRps86vuiZXL27ell6QeLNL5LQcE5JeKKkK+PggQSQABJAAv1P4GJVcZb2mDlJxVlCZhDyL35xLbG28MlN1O3c0kEM9C9dsi2pg0uuYC3lqpSKsGV52pSvmbjrxDEz+MgRRAwjvEB1myEcQ1iGJYxIGGn4m2GJQKWO1RAuhP5llSwRJJd1lqES33myjKBUaDhWJIQPDYkYPd2gf3jvcmeedVt+4pbClOda4u0VekeZ0V5kSs8xbzsRn5mz2FNs9FYucRUuvPUVHxUXJYsAVdjgHKjiweGKoSIBJIAEBpDAxariUjdYBYPWDJlEyMeqxSW8tVaZXAd9ccbcLFqaVUmtvK2DzihLaeJS/6s1/lEzdS4JGUno+ujh1GbOMkSScEnFOUnFBcJwhGUJR2eZMcKpk2cJB58zdGTc/+Q5Bc8pCBdORtgmp/5x2aaP12T8YNt62OIqjrOXxrlr9Nub9NsbpXXUC6zu8uXOvLhbXiLcUOZU/5gjKob2/oN0oIoHCSwGiwSQABIYOAIXqYpzkvKFgopzJIaQ97SL8xXWKlVyraTiZaFJVaK5g0/u4Jd2sKnZSsuLzIw1JOoywhORaAkTRphO5zXarZdEmaWiraA2dY5a1RmGBa2WvqcO6wwjfc4zDHfaSY0CLMcKDMMRwnGsmghRgybqF6/fvHrzP5a5jxhcBQtd1Vd5mudlthncBUZnYZKrfKUDVHwwK42yayRjOnWmC9aBKh4sshguEkACSGDACFy8Kq6mm41JDuQ8GUvI+9rFRYK1UUxulizqpWpbuWip0qQcD7G9pZ6/gYy4gijVdDyY8EpOkKaMUclkJIkWTlNx2hWnvW5qZRclcRUJfU0d1jn6FdV335OGQk+WZRU8oyUkRMkQXk1047RXLJ936wu2p/embadW9ERvndFdYHCWWF3VS53FdFxcGE5YOhiulB6Fzm0L1oEqHiyyGC4SQAJIYMAIXKQqzkhubVSVBap+4wj5m2pRjTK1jU9poypurVelHNclvauLvVeMuYqowxhJt5WEUTACtaETlucYURpa5yUhlyzqvGRRp9Z0hUA4lmFZkeWiwiM4wnAcTz8Xpc+Z0w7fxOMYEirQMXPaLVeHE/VlZMTiUbb7zPe/vTrj25WOg8b0o0ZXqcVTZ7OXzLvtTaIYSwSOGu9Zqa9PoxakA1U8SGAxWCSABJDAwBG4SFUcer/UR512k+n+4h8qFlWr0+p4W6sitUORdphL3E4mJ9H1WaQ+u5b2qTmeEViW5Vnaq6Yda/mkrm0MQy3qPGEYniU8S13R+dDwIePNqdepw0cSRThhBaKUlnQ7TcRP113auZeDFQinIaohRDWGG3rVFdbbbnz0jXUvZFscefFbCpJd5fPvep8oJ1IXd6ktQjiVJP5Byg2o4kECi8EiASSABAaOwMWq4pKPOvUEE6keTyDkHfXCnPDU49FpB3SWv5PZ60nUlYQMJ0QjSNZqpXQlz3AsS53SO03gYAgnkosbVWaWdokZlUqkU860g4hi1CzrrRse+cuoeWuIOJIIIdSwztDxcd/ztNRjGCJoiKAknEhYnjAcSziRV3OMRqkcNHbCvBnXbVmRvnep42haxrGFv3uTKCcQBag4R7hQ6kkXrANVPFhkMVwkgASQwIARuFhVXBqlpnOrpY7vKEJeGZb46eXLskYsvE0YYZLUXSOQEZwwkrA6WEhVSYiCKnUYVVd6yFIu2bPpQDcjibNCmi9OuAgyJG7ZH/7vV/a9c9d5SNgcwkdQfzc6AO5zyqF0vmCoGLNqwoiSxzvRiXRVV5EwSl7JEAUJHzf4qmv1v3n+d8//YL79GSIMpv1+TooNXWYGfdQHrCzgDyMBJIAELj4CF6uKS6pHlxqRrOLRhDyim363atxcIkYxRMlI665Jq6WCN7sgXchKU8h4ScXpaLg0qi7Qv9SQzkL/mmVEQkIUPGGjR+nvWZu+f8mWI8s3fyNMupaw0QKhs8FOU3E6nu1z0iygYei4Oqs85XweyjFqXooCIxKOcCFDlCOuGjX/esPV9xFWxVJtpydPfeWD56WOffGLr3hijJEAEkACZyFw8ao4K002owrKEi0h84g4SVJNEiatds5KEq2S5JGjdnet9C1P6BA4d5p+szxdq41OHqP6zNIFXJS8lqgnxt/+2hJnrim94Jd/rhlhfYRwwwUpEDqKTYOhdnUqu9LIOLyUGhXUa44GIsUwjKdWcjpcLqoIp9DSgXVC2BDCDlKFjyYMHRNXSRdLgwNnSa9efI0q3gt4eCsSQAJI4MIkcPGquB/P0x3OTvc487tU6oVLlnhGMpDDvDORMALLCDwrciSMcGOGzvnV0i1fG135id4yfcYR/QNvkcgZRJquFiZ19Ttt35Lw0/ni1L+dNhcCH9zpR+CL+/RbVPE+xYmBIQEkgAQuBAKXpoqf6kLDfzCu0744x7A8y/FCNNFMt/3mhdWuw4vTc+O85SZv7rKt/x69+HrCRYh0RVbYMwUM6ZKF/ZSKn9U5Tdqo/Kc//ZgHUMX7ETb+FBJAAkigfwhcmireObLdOaDdSZoups4Snk4cj466Yu1N9i9s6Qf1WRXzXaWGzMKVnh/0tziJbjIhISrJAV3ydD8l5NIUMVisNXDC9chmEDioHn6LKt5DYHg5EkACSODCJ3CpqnjnGqvykDbtlTPS4uk8Q0InLrrBe53zW/22w4nP1Mx1lSVkliY7Dq5+4iPt1OWEGyYySo4RpXH0zkFxcLOT/OaC557Wy9yEKt5LgHg7EkACSODCI3CJqjjL0yVcqK851fFO4YUFVgUhYuay1Mf+nrT1W0tm0Vx78VWeqoSsSv22Q9d69w01/4EoJzPUN00t7ZLSqeLSKjKwcCvdaO2CPFDFL8hkwUghASSABHpD4Gej4j2DQCVcUvHOGWiEocu58EQMJerI+TemW7fsTfae0HuKFrjLF2fVLHAUGd15y9xHF9/7ATMujTDhRIyQVmuV/M0757tRFWeDOOG7Z4/Y5WpU8S5I8AMkgASQwMVO4BJVcaq1PExGo/PF6WZlCsKHEX5w5OT4ZZs/Sn0mx+jJiXXmx3nLErZXLbQXmL1FKe5c29YDo2wbCT+U8IMIo2R4numUcFgKnW46fqFmCVTxCzVlMF5IAAkggfMmcGmqOCPtWQZTuul+YqyCMCFEHE40k69c9Yc1md+Zn8nXe3MTPAWJ3mJDZmm8I9/iLdanZ6d4Cxfe9go3aCphBxFGTbchPW3e2rnMNTvvtOrljajivQSItyMBJIAELjwCl6aK84RTEFYlLeFCF4ahW41HEMU45aRlyzf+vzTPgVhPTrwn17i90OAtMHkK9PZcW2ZJwrYcq6c05dHdI2cmE24wYTV0M1JpARmeDq4zpzYyvfCSmcYIVfzCTBeMFRJAAkigFwR6qeImV5XZXZ7qOp70yAdk0CzCKTu37qY+Y4qfHLh7EcNg3CoQUUk3ACcaaf0WJRtCmCFEM2Ns0sYbM79NzTyRuL04zpVr9OabvXkWT37ithMpWeVGZ7Ets2qNc//stN8TTQzhdRzLwzKu0jrosF3qWdd9CcYDnUuYqOLnQgmvQQJIAAlcVAR6o+IWV6nFWWVzlS9xHk/e9AGJnEVYJTVQS0PFF7KKExJNiI5jiIKhsaUruKkuJ4NsyZv+mZpx2ObKN7uKza5iyxlPZ17Ktu9JzBJOjAohJELayoQumk495i5c3zbsi19U5RIjiwSQABI4NwJ9oOLO01QcFg+nq5NewH1xQgYREgoqLjJEUIYT5ZTx1kdXpx+y2k+YHfln1u9OUS9c4jk+1vYAIZFqae9yOl8NVfzc8htehQSQABJAAn1J4FJV8VCWKKkxnO5+Qgg/iBtuWvHw31c4cwyOPLO7JICKm12Fae5s2z2vE3GMkg8RpU4uYRTSvminpp73ZRL1VVhoUe8rkhgOEkACSOCCIXBpqrhAFCK1gNP53ZK7+ojLLQ9eZz9kc+QvdhSZsyoCqbiz0Jpx7Jqt/4matpQRhzJEZOj2qLD3KawFd8Gk7mkRQRU/DQe+QQJIAAn8HAhcmiquItQrnfqhcYTwoSR0Vsr9H1geP2DNqp7jKNZ7ywOouMVdbNp2/GrHvoXrthLddDpxnA6v0/VbL1hvPimnoor/HAosPgMSQAJI4DQCfazivFol7fdFlyGlG3WeZYfQ06LSj29UdFRcWvZFFIh6ZIzlvuWbv7GmF8a6KuOer487o1PbqQ8NGfkrnq+2PPndr9x71ROXEXYYIWppKThWFJTS7PF+fJIe/BSqeA9g4aVIAAkggYuDwKWp4kpCFNARV4aRYVfpf//XFfYci7Nqkaty8bPVid7SAH1xs7MoJbPC5sxd6zkyPu1RwsVwXJiW5ZSMtFs5QwO+IA9U8QsyWTBSSAAJIIHeELg0VVwBXWZeJGLUMP2vV6d/l+oosWU1x2XWLMgsMngDebdZXaX69EJbZqXNkW184H2im0tIaIg075yGyof0JjmCeS+qeDDpYthIAAkggQEhcGmquJJleIEnilASNUV/50vL0g9Z0sts29sSsqoXunMMnoIAfXGLqyR+W4HeWxu3LX95+r6h83/FsOGwegwdaleED0g6nsOPooqfAyS8BAkgASRwcRG4NFVcJQqMqCCa6EHzl6/dtjtl65EUb0Ois2GxoyQ+K8fgyQuk4s4Ss6sy3lO/OKNsmfOY+dassPAxWkJCGYaquKC7UDMAqviFmjIYLySABJDAeRPgWOqIxooqohlpuf2ltG1H9O6aRZkNiZ5Kq7M0ydHN+mWSq5fBU7TghWJ9VkXy1pzUB3aSsBlEQXiR8BxhSSQhk0TCK6QRaPgLW4VIfxkRdvbmftoRjLqL99XJdrqMS+ExPOEEwv706wwJJSREEUa0kxbd8Web47DJXWTwlOk9pXpPcYK3yOgO9NQpjtyl9hN6d9VCb3Oip2LJlj3qcUaWpUvPqhTSz5x3YtCU6AUEuow7BSs/6enweUIuJyRcpSQMJy2wF3llyn0fJ2/NMT1bPe/ZAr2nKEDbJdlRnOQo1bsrY70NRlfNKnv2gnUOJmwsYXie5ei6N3ggASSABJBA/xOgHUiGMKKWaMaYfv3ssoyDBnfVYk9rorvO6iyxOQsD1Ox6b+G8F3MTMsvTMkpWbPqSvcxAtByrJhxPWBLOk8kCUYDztkAnZ3N858nzROAJXa+Uilbwzk5l4RkiskTB0V8nPENd0yOoVoZFTluZ+uTnentuItXvEqOn0OgpMnhKTAFXfUl1nFxuP2xwly/IbI311qXYD81YuZEI4aJIZ54zdNW6Xhy9YULXf6VgecIDakFqvkjwGYEoeDKZJeGcQDdjI2pGHGNe/vCXqenFiVkVc54/qfcGSuskR2GSo0Tvqotzt5qdVWscRxdel86GjCdEwbM0DfFAAkgACSCBgSDAEE5gWFFN1KMWr9+2yn7A6KqI9TQnumstZ1Nxo6dw4fYTie7SNEfV6qePRi+6jWjCiJLwAlESUUOGMEQldQ4V0tJmCmmGNqyzrpQ6g9JOYEGScejWszz9aRoNtbRIKi9NECchoo6IMfG/dK12H4tLz9O7y41UuQstrkKTq8TsCuTdluLMWeo4YnSXLfQ2x3lrU13Hr3nsbSZ8nEKjpRJOTRu9OXoj47zpNuPLAAAgAElEQVREFdhKtOmKcnCKDFGFkGFqoqTGlxBClJrBi29f9dSRNEdVort04fYTRk9AFXcW2hwlBldtvLvZ4qxY6zg0b80TRDOWsEqWwZ54b1Ic70UCSAAJ9IYAQ0QVTy3fquHTUx9Yk/69xVUa52mgKu4qsQbsi5vdBYmeI2Z3uTW9aoW95MoNfyHRk4mCCAqipTt9cnRtFdbnZJTE9yQKNjgnbS5wUqebE6Q9SNWE0xBOTR+TdlY5wg6Pnrz62if/bd16PN5eanRXWVwlSc6CZEeB1VliCajiyc7cNOcxk7ss1tOQ4KlOcWWvt/87ZtEaRhtNQ+5dX1yK9HlioWMXvngZ5enwVZF0gRvC8oSoWBI9edaNf17hKLVmVJvdZXrvUbM7kE9fkpP2xY2u2kR3g81Zunbb99OS7yOKYSyvQBXvTfnDe5EAEkACvSPAEKVWQViOiFGj425as3WPzVmQ4KlNdFebXcVW2j3tdpDY6sq3Og+nZlbFP1We7KxJ2rpfXPALQsWCqng0NZZLJmaGp+Gz0gbckgGf9t1oB47hpC/6/K+0PYmvrZ49Zcvn6KC9wBDNjJmrHNd7c+KfzjNnNpmclUnO4lR7fqq9wOYssVAh7/apbc78FGe22V2c6KnWuyttrtxV6f9dds8LJDSGKEPpgHwvDrYXQCSi0kI7nZAZypztTAKWcNGEpgtdK1YZoYm7yfzktymu2oSnypM9FUnuY1ZXIBW3OQttzmKjq9rgqk1xFKx96svxcTcTNpLjRIahO6vjgQSQABJAAgNBgCWCmqOyqhykiDGuenL3Ek9enL1M76lMzMhLzgy0/onVVZDiPJ7kKjPaa0zOOpu7cOYdO8jQuUQI1akUEZJeCIQoOEbB0VHZzmFpRhqcZmhvOXinQKhY89JPdLYfOEnXOcIqeM2Ua9Ie+WKJPd/srU901Zsc5SmOwiX23FR7gdVZZnEGfupCqyvP7CoyusuMrnKbqyg1/cA1W3ZHzFxGxChGqWVOP84lUemCMdLB9o4JHfWXT0JUAlEJDKzwLlDrCNHwLFGGk8iZs3/3mtVVYHLVGe01Sc7SVOdxW0AVT/aUWByFiY4yg7MyzZ699vHdmrEmRhzEMIwgokn9XBIZr0ECSAAJBIMAS1ilVAsrwkj0nJQH3lrqOh6XUWjaXpVgz7V6uu2SWqSeeorzpFXqouldtSZXWYrj4Ohlj5LoWYQNVQqKMKVazfFUUAlRcXS1cXqeMqNTX7DgnBxHqP+WNEqsAN82nvYXRQVPGJYRlFeu8yzLOGHKKEr01Mc7ayzO0lRH3hJ7TrKj0OSqNLvKAvTFza5ik7vI4iq0uoosrlKzq9TiyFvh+H7WNU+QsMs5DRU23yNwovE8z9Jd1ToPhj1/Jhz3E1tALRKiZOipYjmtqBQ5ngjhJHza5Ws3J9sPmlxlelet0VVtdRbTdAxsd3EWWpyFJneZ0Vmatu1Q2v1vkcjZnIJOqxMUqOKn0g//IwEkgAT6mwAraSzdnVNFtJfH3fLsmszj8Rl5pqyKRGe+2R3Yol5kcxaY3UUGd5neXWlylZu2nli25etpa54iwxcRcQjDhAiMRmTVLHUMp2JFT9g5BN701dQyv3BYutOJKD0Z7YEzhOUleRRDCBM6ZNQVV2/5MsWZb3CVxbnr4hzlNndRquNkquOk1VmU4K4xuAPtaWZ0l+g9JRZ3frIzz+YsMrrKTd6qVE/uyid2qsbpCR/hK+FyJ7u7ZJUvYFmWvu7NTDMJcSfezvEERiKv4IhK4HVEMZREzZ29LiPl8S/M27JNrnK9u9LgLjO7aTpKjZJuG21mR77VXWx0l5qdRauchxNufpYoYhhOTY0HovRj3T0hfo4EkAASQAJBJCDJBnWuZnmiHDV56aa13sN6R67eU6J35lsCziE2u0oMnlIDnZ1VaPQUm12lVnvZmsyyVen7Z970PD/7OqIYR8gwwg4l/BDCRxFWR7gQyctMSeeVc2rCaYNyslpCwgnRESaEsNJPqAfRzcfEy4hyQtzye1ZlfG+y5ya6yxKyamPthUmu3FTn8RRnttFdsiizPtFTGaAvbnCXxnvLrK68VOfJJGeh0VWVkNlk9JSv8+6fYPw1YXum4nSKOMtyHNcp56yyF0DU0mx9pQQ2RKI9iHCDCRlCU0EYy8++buZNz69K37/GW2a1l5ldpUZPscFTKKVgaWDPfIuzwOYpSbQX2NyFqx0/TFv6COEvYwjPw+S6n6wJQcyqGDQSQAJIAAl0IUB74dJaJSxH1KNVM64zP/oviyff6C1JdOaZAvbFTe6SOG95QmahwZtn8uRZnUXGp4rMTxUudRWuzDqeuu3fS271TE+4VTvaRCLmEPVEEjmdDJpCoiaSqAkkajwfMUGhuzwYp6ibxOtmsOHTmYipZNAkEjWJ6C4ng2aSwYtUU9ck3/FS8pZvLJ6CRRn5iVlVCa7CJHd2qutokuuE3lN6VVZjvKcqgIrrPWVx3nKrOzfNcSLZUWBw1yxwNy92Vq5y7l9257Nc6Oge9cUJIaIochydoKbVajXho88bCB9BqUpsJ1LOkdOJ6nISMSdiQvIs4+3WG9KTt/zz6ufzkrblpGSUGzYXWp1FJk+ewZuXkFkY5y0PPEve5Mi3uIv0zsLUzGLDQ/8InXE9UY5mGCnidHfXLvkKP0ACSAAJIIH+IEA9jCUvM0IIH0aiZsbf/txy9wG9Kz/hmfpFjnIzHfotNrsLze58szvf5C40uosN7vJEd1Wiu8rgKTV6ikzuArObmmSTnOVJznKro8jiyElyHb/GcWDFk1+l/vGfyY/stjz0se3hnbaHP7Jt+tC26W+2TX9L2fi3tIeCcqY+9GHyxl3JG3cmbfzY9vBH1k0fmjZ+aHx4Z8KDu0x//PeK9ANW+wmbtzjRXmB0l5rcxVZXvs2Va3XlG90l8Z4qgzvQuLjJXWpwl1pcBUmSRd3kKo93Vsbbi5d685dt2Rs2bwMRIwgRNYIQwhMVDBkzvLQczBn818GQDn9Hjx699rcZy+5/Y9X/fGJ8cGfq//zbtnFX6kMfLX3wb2kPfZT80CcpD+0MQCxlI6UqnR9Szg/vtG7cZXv478mPfLZy855rnAeS3SeM6dlJ7lJLRkmSq9zqKjK7C0zuAmmtm9LOBKVT54tNp5KbpruLWlkSPNVx3hqju3CZ4wfDHS+Q8GmE18H0eOqYx2BnvD8KK/4GEkACSMCfAEMXHKOLmgn0G4YoImcsueNq+38Mjuz53oaF3kajm/bSTJ4CkyfH5MkxevL03qIET0W8py6BzinvdiS161f69LyBOrtGpg8/SfKWS2eZ1V0y8473iXYcISEalqOLq8OQMV0XVUEYruuELHBtEwSBYZjw8HDjLY7Up7+xuQsWuKpjs5oWppcmbiswbc3VbyuMSy+PTy/pEcAePWOCu5amqadC7y0yevIguWm6u0uM7vLYrOZ57jqD4+TKLZ9NT72NsGGEUO93ScjpVAP/jIXvkQASQAJIoB8IMISTJlOfsomyoWJMfNLGt5Y9kzsvvVD/TJPBXWF0lxo9hSapZjd6cw2eQr2HurMZ3IHGj7tKiM1TNlBn18j01SdmZ5HVXWrzlCVszbG4ipdmHNRdbiRspJpXaaRF0mgvtXsV53lqjOZ5HuzwQxesX7ltb5LjhGF7/UJXtd5bY/OUp7hLkzyVJm+d2VvdI4A9ekaDu1LvrtR7yqiXgzdXUvE8uiottT1UxHpr47yVKZ7jSRvfIoPnEC6MRls62VOmnH7IrvgTSAAJIAEkcBoBUPGfRjaFEKIcM37ZxlXu/SZnjtFbYaBqXW7wlBi8BQZvntRLywNDa+A1zrpKiMlROFBn18j07SdmZ7HRXmB2FiVvOzhj6d1EMYoXwtR06VdpjXFGkIT8DBZ1hUIB6QE+biR0mvHu/5eWsT/OUbDAXqr3VBkdxRZ7gclenOio1DvKegSwh89YAkMnJg9NZYM3j6a4p4Smvrsy0Vm65LmyFa59k1c/SpRjiDoCVFyahI998dPKFL5BAkgACfQnAVoFw/wm+quihvCDSYwp/q5XV3sOmDNOgIpTl3Vvod6bb/Tmmd15NldekjMvyRlota8zSQgsbjogf3tg+T9TzAPcXmLzlCZ5y2weOgsr1XnCes+fyYiFhA3n6NLtkorTrV8EOlW9S8JCF5x21xmG9su5yyalPnSN81uLO9f6XI3BW2F2l9jo3PRSg7vaRI0fPaIXINr+XyU5pZF+F01fozdP782nKX5KxW2OnFXu/Yn3/JXEmIhyGBE0RFoznqXDMDDPr8uz4QdIAAkgASQQfAK0CgYVpxrD8kQMJ5rxY613rtu6e2n6Pqu7zOQuTXQXGrKK4915Bm++2Z2X5MpNceakOHJ7JHhmZ/FAnT2KZ08vlozqJSZHkdFesCSzYGX6v4cn3kqE4YQoNBwv+X3xkoqfWqHt9EQF17ZOORcGq2LMq/7nw6SMg+bM4gRnkclVZHEWmJ3FelelwVXeI4A9epAUB03TJFeuWUplmtZZxYnuQpO71OouW5bxwzVP7Rpru5OoYkjYMBjjh9XwTu2levpT4TskgASQABLoFwJUxeWNtOhSrOowIkRxIxcl/dqx3r7Hmp5tSs+2eIsSXPkJnoJEb4HRk29z5aU4clJ7qOI9EpWL9GKrK3/59iNzb84iuqmE0QrSWjen1mODfvkZUpVhGLCo80IoE3p5wk2OpRnfml05BiqiRVZXgZnOC6gwusuDhyXVkZviyLG58oye/ERvQYKnIMGVb/EWmdKzrenZv3D813ZLBj9yERGiiDKESOvTSB1x6JOjd9sZkhU/QgJIAAn0A4FOcyjdQQM2KREEIoQSfvCoGUkrH3ht6bYDqRmHkzw5cfYThqySBG+x3kMnniU585Od+cETlYs0ZLO7yLQ9P+mJv2unphIunGN4yYourTTb/balsorTNc/FQaGTUpc89a8kT7bBJU3ZpxP56Ow+Y8ApcL0kluzMT5JW69N7ihO8xYaskjj7iSRPTmrG4aXbDqx56I1hU0xEGEKUOsKwdI+Vn9ZdRYt6P5RT/AkkgASQwJkJsHSyr7QtFSzeSbtZvIIQDascMjHhltVP7VmXddzw1PfWrIKEzOK4zLJ4b5k0YbrY5izqpXL8/G43uksWeItXZO6fvPQ+oh4u7cnyU2+1ux6rrOJqQjRCCOHHLv79a0u8J4yuXJMn3yJN00/0lAeeyN5LmJCasDJdXGZZQmaxNavA8NT367KOr35qz/jYm0TNCELUDCfQhWKlE5p90mRxnC9+5tKFnyIBJIAEgk3gNBWHXpW09jjdwYToZk5Z7V719FfWLd/aMvMWuwoWZ1bEZlYmeiqkfmGgvb96KSoX6e0Gd+mV3sq0zMOp9/85ZOQshm41I/uBdTurWlbxEEI0hKXbn5v/kOQ4YHSdNHmoI4LRU5jo6Ww8BY1MqdFdluih6bs4s2Kxq8CWmWfd8u2qp7+astpNQmdwrJahG7tKO8VJq9Ojige7cGL4SAAJIIGzEoDNqOmAOGxQQnfzpLZfhmdFwkZxI/SJN7mvce4xpf+Q4C1anFWz0FOT4K6me385SukOKD+dZXSzTp/T4iy3BjpLrM7i7s/SgPeWdX9jgDDlr8oCBl563oGbXaWLPeVLs05em/7PmPgb6AYkjAhgYVf1M6YHuLaxLKumm7gwhI1kxydb/7gz2XnE4ik0uIro0iuOIqsrcLQD0bY4qUHe9zS5ynzSrlxKzYoEd/VCT/XizOoET6Fp2w/XOPYk3uTmRuiJMISums5wkD0EjuaWUy73nVnojI+GHyIBJIAEkED/EQA5kf9yLMPxyrDLZiTeYr/au09vz471VOmfaU101hgzSpPdlQZXtcFVrXd3nomeykRPZcKp0+qosdm7Px1lNmdJt6ejItC99spubwwQpvyVvSpQ4I7y8w48yVlkS89Z+0LF0owDlvvfJuFzGDESdmWlPVdB/En7zpiqdK9WnrAaEjJ23jWPrc74JsVbHJdRbnVXm5/KTnOUB4p2ANT2GqujRk4XSCY51SARk1wVxowyg7vW8GzbYndVQvrxNe7vEm6x60bOFAQVz9Et13yPM0YfP0QCSAAJIIGBJOBbTVMzL8OICg3djmz4onkbtqdu/UaaiVSqtxcb7SU2j7QbKe3SlXae7hK6XCs9YRPuwJObSy3O7s+zTowOcO9Zvwpq4PZii6Mg1XF82ZP/0k5fRcQhIssrWcl5kG62fqoH2006C1TpBSIM0k5dsuTxT9O8hYszSq2Zdaat+TZHUQ/ni5/G3+QuktLlVBrJqSZ1ym2eSrOTWlas3ookV17qlq/n3ZRFd5gVohRKLUvzwmlHN9HHj5EAEkACSGDgCJxWT1MV5wgReE0U4YeSqHmLb/Qsf/Kfyx2Hl3gLrO5Ss7vc7CqRzmKLq8hKFycptLoKbHRzEXqa3XQJkW5Pem9Zt6e7qNsbaZiF3d4YIEz5K+r1HSBixb0IvNzkqpr/VJ7VU7LCeWjams1EMYYQhZKXFlFnu/Nv60xyhhClQBeHYRU6op6Y+Lsdq7bnx6UXG901poxSm7s4ULQDPJH0lZwuVlcBJJbFVSRtdkIT0eCgkr/EW7DCeXjp458uvslDoq8i/FBeHUWIwDJ071TfY+AyKf4yEkACSAAJdEPAt5qWXK54BtYA50OJMJjopsbof7N00/srnQcs9hO2rDKju1jaAov2vKV9zwotnVpeaHMVmNz5Jk/3p7vEd1zW/7W7OOC9Rf7X/zQ87ztU381rd2HAwANGLOAPGV0VBm/D3C1lxqw6mzMn5ZGPVeOMhA3jeZH2wdmz+HKzhChYujONKCiIOGKk6e6Up78xOouN7mqjo9ziKQ0U7QCoPfkmd77tJ/EuhMSC3jkkosVbYs44ttJ5YMnD741JvJXOd1cMIXwoXTuWCAyqeDdFBj9GAkgACVxABPxUnKF9R46jK7oRjrAsH0q4oerJafG/37HSvd+QfsjgKTR4iqSTyrnRU0I3z3CVGl2lJupLVSKf0tZYP72VPqdO0d2fpfK9Z3oR+N4AwcJXfjHxe9uLwF0VRm/jAnud/pnW+IyCa7cfuzzpLiIMJURajPVsKs4QouBI55am6iHsGEvs3W+negqtmdUGR5nJdRrSM2E57UH8mNMUcUmpQ7e3KTF6Sgye4lPJV2hIP7TKc1B/9+vaqcsIP4wTdHK6S86OaFG/gMopRgUJIAEkcI4EqHs1R4hCUiFp91IlUY4kw+OHJD04/4H3TJ5s2/YCc2Z+oitX7y5KdJXovVVxrspYZ2Wip87kqja7qi3SaXZVGzLKTzvtRQZHQbenveS0i/3vLe32xgBhyl/ZywIGXnz+gduLLM6aBHdTrLc50VOd5jxm+v2fScRUwoUxrIKhe8AGPKQJAkpCtLTfribK8aNTH13uOmbKyLO5y4z20kDR9kOUUe4L3+SqTvTUxTor41yVem8VTSlXYaIr1+TNs2blmzzZCx54f0jSg2RYPE1fRiVKKa7oXKmm08s+YNTxSySABJAAErjgCNBJRByd/kSFnJ6ikgg6wg8jmolkpGnEWnvCwx+uyfxhVdaRZMfhJVmFac9WmD3l8fbSBHuFYVupOaPc6qg028sN20rMGeWnnY4CsyO329NedNrFfvfai7u9MUCY8lf2LpHxDd9eeN6BW+25S+3FZldNgqcx0VOb5M5Zvfnvw+euJmwkYdTSltwBvdtYugKPQtqYXMGwhBvCTVyxYut/kzOOLs0ssmQUBmLi+wjSa8rcLvHPKDdsoykSby81e8rTnq1YklWYlHFwZebh1d598Rs/GL4mgwyNJ+rLacryOo7lIcXFThXHuWQXXMnECCEBJIAEzomAPI8ctr5gWZbwSsKpCR9CFIOJdhIZFT88YUPCrzOv27p7bfqeta6Dyx3HUjKyUx35ae7CFGd+sj031VWwzFuclJFz2mk/kWQ/1v2ZfdrF/vee7P7GAGGe+irjZMDAA0fsVCBninxqxrG1W4+l2ouM0gQ8myvvWvueuHWPEu1owoUyvOYsPuqcSDhWYEgYXf6FEC6ChM6+6tY/r3YdWuXNsW49GijafogycpZ5i1NdBcn23BQnTYtUR35KRvZyx7G1roNr0/dcn/5Z4m3bL9PfQsYkkpDJRCWNgnMqwinoqu6SfkMfPGC745xyEV6EBJAAEkACA0AAJJxW4nSVVmkxcDpKzjB0kJxOnWIFNeG0hI9kBk0Nm2ibmvpAwq0vLn/k76s2713x9L5lzkNLXYeWOA8uddEX/qfzyNIAp+uw//WnhXA40L0BgoWvTguqa8TOP/CV9sM3bPlhVUZOkqvC5KlOchdenbH3+kdejb48jjChhC7rEtDBjVcTXmRZquIh1BtOQ5SXhy+6Y03GN6vsB1e6jwRk0uVBpMcE/such1Y8vW/V5r3LH/l74q0vTk19IPRyK4mcQhsKnIbwSkFguM6WGl3fhQ6k0BSXHObP0vQYgJyJP4kEkAASQAJnJwAqTq+jui3QXpqoJCxd3E2kC7QStfRXGuxVEXEIUY4l2hkkMpYduzzsyptHpG2asj5j4e/+FH/P/y763Z/i7/7Laeddr8Xf9dduz7tfPe1iv3vv3tHtjQHClL+6+5VAgd/16nkHbvj9a0tve9n02zcX3vnR3Ls/mX/338x3vfKrTX8af6WFMCHUhhF4vjivIjw1pWsJ0dDtRkQSGkN08xZvyJp3wzO2B98MFG1/RH+hzO/534W/+9OU9Rkj0jaFXXkzO3Y5iYylaaQcS5RDGVYt0LXRab9fJaUp3byFdsMFQlfuE6ThFN9l2s6eZ/AKJIAEkAASuGgIcKcdPM8LPC9w9BQ5XmQ5wffkBLHLqeCE7s6uF/t90t2N5/K5X1Bd355LIGe4hhfog586FRwvdvZoT62a0qOkpZP9KGGBFxSCqORFRReAXWP+0ye+8FmuM1E4KY1oMnG8b+r1KGJ4MRJAAkgACfwcCLA9OX4OD3wOz+CHxG/y3jkE4H+JvFeKNFrt/22A934xCfw2QDj4FRJAAkgACfw8CQSWqMDf/jyJdHmqAYQQ+KcDf9vlOfADJIAEkAASuLQJ+MnGz/WtXyL7Pabft4Hfwr2+1/iFFvit7434GgkgASSABJDAWQj4icpZrv6Zfu0Hwe9tjx6aZemweE8N6d39RG9i0l2Y+DkSQAJIAAkgASSABJAAEkACSAAJIAEkgASQABJAAkgACSABJIAEkAASQAJIAAkgASSABJAAEkACSAAJIAEkgASQABJAAkgACSABJIAEkAASQAJIAAkgASSABJAAEkACSAAJIAEkgASQABJAAkgACSABJIAEkAASQAJIAAkgASSABJAAEkACSAAJIAEkgASQABJAAkgACSABJIAEkAASQAJIAAkgASSABJAAEkACSAAJIAEkgASQABJAAkgACSABJIAEkAASQAJIAAkgASSABJAAEkACSAAJIAEkgASQABJAAkgACSABJIAEkAASQAJIAAkgASSABJAAEkACSAAJIAEkgASQABJAAkgACSABJIAEkAASQAJIAAkgASSABJAAEkACSAAJIAEkgASQABJAAkgACSABJIAEkAASQAJIAAkgASSABJAAEkACSAAJIAEkgASQABJAAkgACSABJIAEkAASQAJIAAkgASSABJAAEkACSAAJIAEkgASQABJAAkgACSABJIAEkAASQAJIAAkgASSABJAAEkACSAAJIAEkgASQABJAAkgACSABJIAEkAASQAJIAAkgASSABJAAEkACSAAJIAEkgASQABJAAkgACSABJIAEkAASQAJIAAkgASSABJAAEkACSAAJIAEkgASQABJAAkgACSABJIAEkAASQAJIAAkgASSABJAAEkACSAAJIAEkgASQABJAAkgACSABJIAEkAASQAJIAAkgASSABJAAEkACSAAJIAEkgASQABJAAkgACSABJIAEkAASQAJIAAkgASSABJAAEkACSAAJIAEkgASQABJAAkgACSABJIAEkAASQAJIAAkgASSABJAAEkACSAAJnJ0Ac/px9hvwCiSABJAAEkACSOACIXC6iDMXSKwwGkgACSABJIAELlECfsLco7eXKDJ8bCSABJDAz45Ajyr/rhf/7HhcPA/E9uTwS7mL5ykxpkgACSABJBCIQE+kwP9ahkHTbCC2wf2O68mBKh7cxMDQkQASQAIDRKAnUuB/LcuyAxTrS+NnlUqlQqHgOI4QIgiCQqGAdhPLsqDKCoUiLCxswoQJcXFxFotlyZIl11577YYNG26//fZ169atXr3abDbPnj17/PjxAIxlWY7jGIaBEAghoigKgiCKou8FA0uX4zhBEM6Yt3ybjb6v+yfCwE2pVHaNGyQHz/MKhaJ/InPuvyIIAsRcq9V2vQu+hQzA83zXCwbwE6AqRwAKgvy2Ny94nvdNRIZheJ7nOA4KiN+3vfmhnt4LCQFP6htDORxBEOC1SqWSP+yTFxAy/CjQkKudruFDPocy6JdMXS8+6ydy8emuUKtUqj5M/bPGR76A53m51MgPK38L9SchpN9KPcuycl0tR4NlWaVSyfO8IAg6nW7UqFEzZ85cuHCh2WxOTk5OSkoyGo1xcXGzZ88eM2ZMaGgoz/MMw3Acp1AoINGhfiCEQCBwATwvVMWyXsg/ii8CEQCgQI1lWZ7nVSoVy7IajUalUoWFhY0fP95sNm/YsMHtdu/atevAgQO5ubnFxcUVFRW1tbXNzc3t7e0dHR0NDQ319fXV1dUlJSV5eXmHDx9+8803//jHP15//fXz58+Pjo5WqVQhISFQc0GhlSuIQPEL8ndQjRJCIC9OP/2YNm3arFmzYmJiel9x9PQ5QOFEUbziiitmz559xRVX+EYN3kZFRXEcB2Wgp+EH9XpBEHieHzRo0A033HBTl+P666+XYx7UaPQ0cEhlhvMKGvwAACAASURBVGEEQRg1atT06dMnTZp0xRVXTJo0yRf+ebweNmzY4MGDdTqdUqnkOE6pVBJCwNQIpQBKBPx0T6Pd++uhMp02bVrXR5sxY8asWbO0Wm13gtfLX/e1t2q12jFjxkyfPn3mzJl+MYFSMGXKFJ1O1/t6g2XZ4cOHz5gx44orrpgzZ47fb1155ZVytdDPWs5x3Lx58yZJh29yTJ06dcqUKUOGDAFNFUUxSMkhp6bcAWMYRhRFjuNEUVSr1ZdddtmiRYt+9atfPfHEE+++++4PP/yQnZ1dUFBQVlZWXV1dU1NTXV1dVlZWXFxcUFBw8uTJw4cPf/vttx9++OGWLVtuvvlmi8Uyffr0oUOHajQaQRCUSqUcuNyHBI0I9gPKT3pxvwD9ZqQDwEFbDxp648eP/+Uvf7lr167GxsbW1tZ26Whra6utra2vr+/ocjQ3N8NlbW1t8KJWOpqamqqrqysqKhwOR2xsrFar5Xleo9GASkE/eGATDNqJTqezoqKirq6uyedobGxsbm52Op3Qg+zP9IbabeLEibt3725oaPCJVOfL0tLSG264QW7V9mfcAv8WCBUhJC0traGhwS+ntLe3l5SULFy4MCQkRO52BA6wf7717YmGhYV98sknjdLR1NTU2NjYlX+PPqmqqsrJyfn8889ff/11j8ezcuXKadOm6XQ6hULBsqxWqwUbFRTG/nle+BXZ3jZmzJjDhw/7PVRzc3N9ff3JkycNBkOfx00GrlKpoDafOnXqV1991dzcXF5e7heTpqamqqqq9957b8yYMWCi7Q0lhmG2bdvW1NRUV1dXUlLi91tvv/02VFNy37c3v9Wje2fOnPn999/LGc83YvX19UlJSVAR9YPOyUYaaDMpFAqz2Wy32/fu3dvc3FxXV1ddXV1ZWdnS0iIX8NbW1ubm5qampoaGBqg5m5ubGxsbW1pa2tra5EJUX1+fnZ39wgsvXH311aNHj4bKXza7Q22MffFzzTaycsMNYDwZOXLk+vXrd+zYcfTo0draWhDvlpaWZumAbnd7e7uvrrdKR4t0wOvW1tampqbm5mZIzvb29sbGRqi+v/rqq02bNs2ZM0en04FQ9XNr148OLx2EkO3btzc1NbW1tcEjyw/e1NTkcDgIIf2slxCx4cOHf/31121tbS0tLb4Ra29vb25uvu666+SWst9zDeBbqGhCQkJee+21pqYmv2jDg3i93oiIiIFtvfkhgnwIUYqIiHjvvffkPN/a2uqXMfwe6qxvm5qa5DZuc3NzbW1tSUnJt99++/rrr99///1XXXVVREQEVGTQTfeLW/DewvOCITc7O9vvQaAKrq+vNxqNwVBxMP4B+UWLFn3++ecgA11pNzY27ty5c968eaIo9t6ezLLs1q1bW1paQFr8nnrnzp1yxPq5dho9evThw4c7Ojrq6upA/CDvQffpl7/8JVi5+kHkYCRUEIShQ4euXbv2ww8/zMnJaWtrg4ZFW1sbiDdogZ8EgEzI6t7R0QE3wrOAwLe0tNTV1R07duyDDz648847FyxYMGjQILDV90MbJXgFqr9DlutQhmEUCkVERMS6devefffdpqamjo4OIC4Xqo6ODuBeX18PZcw3kbq+hoIhfw7pCmnf2tqanZ396KOPxsTEhIaGdh136WcQUD0988wz0NTwK9ItLS1OpxNMWDKx/omhKIqDBw/et29fR0eHX6zg7S9+8YuQkJB+KNLn/ryQl8AwmJ2dDQ2jNp+jvb29urp63759ERERva+Ozz1iZ70SuoZQa4eFhb399tvQt4BMe0b+5/6hXBAgTHgLjTPQkv/7v/+78cYboSI7a1T78ALI2IIgcBxXVFR0xieCXmCfq7g8LMpx3Ny5c3fv3g1w2tvbu6r4vn37Fi1apNFowHrRe3F1u91Qy3Ut9Z988olsHujnIj9q1Kh9+/a1tbXV1dXJmQRe1NbWrlu3Dvpa/eBIIUhHUlLSyy+/XFNTI2dgWaGhI9Ha2ip/Jb8AcywoCNRdsmS0tbU1NzdDM6W6uhq+7ejoqK+v/9///d+lS5dCVryg6rQ+LG59ExQY7uSeJcuyCoVCqVQuWbLkvffeq6qqgnYTQIfeA3zS2NgIxCFt5L64X7FvaWmRvzpjKsrXNzY2fv/99xs3bhw5ciTkGLlkyqa2vnnms4UCBSMrKwvKs5wX4UVdXd3WrVuBmBzDswXZN98rFIqhQ4d+8803UCp8IwZN4GuuuQY6vheUmxjDMIMHD/Z4PNAc9I021Jsw+LJ+/XrfAc5+TvQzppA8xhQSEvLOO+8AZFBx6BjBs8if+zROzvwScju0gMFYJVuz5KDg246OjoqKis8+++y2224LCwvjeR70NdhtXHhkGJXPy8vrmlgtLS21tbV6vb5P9ExuCkDNAwNq48eP//DDD31tFVB11NfXA/Y9e/ZMnz4d2nx9ktVZlt28eTP8iixL8rN/9NFH0B3sven+jNkswIfDhg07fPgwZCa5qoQcWFNTc80118BwdTAiBpZRGERgGGbIkCFbt27Nzc2FyMiVf3Nzs9z6lHtlcqvLtxjIPEFBfE0LcuaHFltDQwNUcd988w14zMi1QZ/kugDAL76vZC9T2aFAFMUhQ4Y89thjpaWlXXMz1LlAHwY25H6JLPCQur72XkiPqqqqhoYGWch9U9T3dWlp6Y4dO+Lj46HOGhDXUDBKZ2ZmQm7zjV5HR0dTU1N6ejokdn9mKXBjHjZs2DfffHPGiHV0dKxbt06eAnDhZEeVShUZGfnFF1/IDXBfpHIN9dZbb0VHR0P8L5DIg8YwDKPVat99913ADk8Bf6EsgB77Vlh+r6H+7fohBAgNYl8mMLgIfZTy8vK33npr/vz58myRoMKRhyE5juuq4lCW6+rqYmNj+zzzg3F47Nix27dvb2xs9MNVVVUFvb2jR4+aTCa5Wu8TGj8W+ccff1yWSd+06Ojo+PDDD6Fx08+tdkLIkCFDjh07JndwIYbwtqam5tprr4VOqqy4fUIDAoFHBtfmcePGvfHGG3V1dSDYXXsRkFjyOBGIsVzeIdpysxU+B33pGpRcylpbW99++221Wu071Nvnua4PiQ1MUCAMoOWQZgsWLPjss8/AtxwUWs7QkE7yW7ktJne1fctAe3s7VHCQnK2trTU1NSDhfsHKAcrWs5aWluPHj99xxx0wNNj/aFDF+5a5Uqk0Go11dXWQQ+QUhxdyxVRXV2cymSAfQlkd8BIbQMWhCyLXRH6S0/WtXK/BV76tXj8g8BZqN9ktaN++fcuXL9dqtdDrCp6BsT9VHNIXhpxhFkx4ePiLL77Y2NgIguGHsampCRzr+nzkBVW8a5H/0T4BnahZs2bt3LkT2lXQspRlGBIIvALlHh00tmQnULmk1NXV1dTUQEEA85WvK5xfKQA76K233gq+sXKjbcDrhK6gBvgT2YAJ5qyrr756z549QNmPqfwW2mLgqgZXtrS0NDQ01NbWHjly5LvvvvvPf/7zxRdffP3113v37v3uu++OHDlSVlbW2toKvXNZquUAfV9A0kILoLa29v7774+Ojg4NDe1nTKjifQtcoVC88cYbULa7tuGgRoDaYfPmzfDTwehbnMdDBVBxuXvU3NwMedtPcvzeym1c+Bw6HN1pOfj++Jq1Ojo68vPzN2zYoNVqg+rQ1J8qDpPr5J7WiBEjnnjiCZitClW/L8P6+vri4uJ169ZpNBq1Wn0eqRngFlTxrnBgrH3SpEnvvfeePBYGORYyP/StoQKXS3GDdOTl5WVnZ584ceL48ePHjh07cOBAXl4eOOiBZ7RshQJB8VUBGFFqbW0tLS2dNm2aPC4OMUQV75pSdC0XmJZ3ww03ZGdnQ4OrtbXVb86AnFRQ27a2tlZVVR05cuSVV165/vrrx48f/+PAJyiuRjq0Wq1Go9FqtTqdbvDgwTExMbfffvurr7568uTJhoYGCMQ35WD4XP6Vtra26urqxsZGp9Mpz1M6Q+yD8xGqeN9yveqqq6qrq+VmnG+6wwgFrDHQ1NS0b98+nU4HRvX+MSAHftIAKg5eOdAXz8vL++GHH06c7Th58mRubu6PYlxQUCC3ZmBkyo8J6HdTUxNUeWByr6urq6iouOWWWxQKBQyBBaNG608VB1sgaPmPY/+PPfYYqAX89ZXwtra2+vp6cPuAPmLfPjuqeNeCwHFcVFTUc889B7Vxa2srTHCV+9zy0iAw8eTgwYMvvvji9ddfHxMTM2TIkOjo6IiIiDDpiJCOqKiomJiYFStWbN68edeuXfv27fMtCL5FAEK22+1KpVLOkBDDvk33rk99EXwC4zryCgbgGMLz/OrVq48cOQLTvltaWuSWF9QmwBesH42Njf/973+ffPLJNWvWjBo1SqvVQmjyELuvtwXY/WQbqUajGTVqVEpKitPpPHDggNyUg3YcCLnsDQceT7W1tU8++eTgwYMJIRD5YHv3gNvaj/4BOC5+3hkaUlye+n/vvfdCi7u9vR38VnwtcnI2AN+l1NRUmFsFWnXeceiTGwOrOPRL6urqHn300UmTJo0/2zFhwoSJEydOnjx5ypQpFovlxhtv/PHGV199de/evZWVldA7kfvfYFEHuxR8Bb35r776auHChaDiAKpv6zW50uyHcXH4LVEUdTrdbbfdBiPfcj8PqnKAXFZWdscdd4BZDtY16pP0lQO5SFVc9m6DEic/znm8kLO6PFjDcdxvf/vboqIiGBuVDeNgVJMr6vLy8ldeecVms02YMAGMu3IIvtGQRQdq8tDQ0FGjRsXGxt5+++1Op/PLL78EB3VoIrS1tdXU1MTGxoKv7hkD9A380notm9DhsWHBzjlz5uzfv99XueVmUX19PdjAa2tr29raPv/8c2hqaTQaKIEwSgd/A6OEVaigxlGpVFFRURs3bjx+/HhxcTF01GTXXHk2OXTZq6urH3/8cY1GI69v5fcUgX/3PL7Fvvh5QPO9BTxiROkQBOHTTz+FwRcQb/CR9J2sIuc38CQaPHgwWFlVKlXfSpRvJM/ltVy1ndG7DR6noaHhN7/5Tdfi4Fs0ur6GogfhK5XKmTNnut3u7777DmbiQS8cDBXQ3Yc6tKOjo7Gx8d13373ssstgHgf87rk8yzleAwFCndsP3m2wSsTGjRsLCwt9swFkkvb2dpjI+uCDD0ZGRsLgaDBmVV2kKr527Vp5rcY+KSkQCPydNGnS0aNHwToLLUhIFEgm+GT37t2LFi0KDw+HNnd3q0bK5Uh+AbkRpqGq1WqNRrNgwQKHw3Ho0CEYotqzZ090dHSfPNQ55vyL6TJ5iTQoEnPnzv3mm29aW1shtXwLEnS+wVpy/Pjxu+66a8qUKbD2CAxbykkCLwJTgPSAdfugHIqiOHHixKysrMLCQtk4A37sstMQGAby8vLAkAi5RPZ0CPyL5/0tqvh5o4MbYaoe1C+xsbENDQ3Qcpe74PX19e+9915RUVHXpdxqamoWLFgAa8WfS77qZVQD3y7n8HNRcSgU5/gXioM8fwxKxNSpUzdt2nTixAlo0YKiQ1sWXEbkfur69etDQkJggnXgR+jpt0FVcdk4B7GCaa5r166F5WV8Kx9ZMOrr67ds2RIdHQ1GMjlFevpcga9HFYe8BPZOqABvu+026FCB57ncBAfjWWNj444dO6644gpRFKG0yjm/q/TKqeb7ApqhcBe8ViqVYHJ/+eWXH3zwwUGDBsH1gdPukvsW+EIicRyn0+lee+01GHM6o1MbTA/buXPnggUL5OUggFpPl5QCAfZNYFiXh2VZm8323XffgTsu5BV5kSzZ3+3kyZMWiwVuCXayoYr3hjAUPKV06HS6v/71r2AclntXMN5555137tixo6uHRFtb26ZNm2DR/j6ZCtz7Z+lupplvX9xPY3xrq7O+hopMFEXoAc+ePfv999+XneagAQQKB+Wira3t73//e0hICDi1+Jap3jws3BtsFYeHBSZarfbqq68uKSmRLQ2+Qg5OzllZWVAeYWl3uQbr/ZP6hvDjT1yMM836ti8ONTwMRet0uv/85z/Qm5LXVpMdVJubm998883w8HC/bhUY9rv2sroWARm+PN7KMAxkaZihDo3U7nalkm+/FF+ALRoaXDqd7t57762QDl/bnVyQoLZ97bXXJk2aJIqiLMPyC7+0OStQlmXBvRZGO0JDQxmGUUnHj3vgfPTRR2BAg6FB0G+oKGHWwa5du0aNGtX7EaCzxhNV/KyIAlwAuQI81ObPnw/LRMDIruyP2tLSsmjRovXr13ddgb+9vf2LL74YPnw4dOgD/FA/fCXn8LP2xXsaGTBKyWuJgESB4T00NHTixIlvvvkmrFsMVafsEg+lo6qqKjU1NRhlIagqDm0deFilUmkymQ4dOgQDal1zQm1t7Z/+9KehQ4fC/DpIC9mtvafAA1+PKi7bdWCfG4PBUFRUBPP9QBEgB8J80X//+98xMTHh4eEwanZWXyW5HMmVAxifIANDKQBZIYTA8p3ylV3bBIGT8uf/LdStMAswNja2sLAQTJoNDQ2yH43cKW9sbMzMzLzsssvk5hJsFAiNAAjKN3kC4+var5Kb1eAGNWXKlI8//ri1tRW80/0c62pra1taWjZt2gTbJMBvyfafwD/d029RxXtKzPd6GOsSBEGlUm3cuFFujcmOx62trQcOHIiOjp48efLRo0ehvS8bXTo6Opqbm9esWROM4U/feJ7Lazl7B1bxX//61+cSmu81cgea53no/UAXRF68IS4u7ttvv5WdRWCuptzC/tH3Z9euXSqVSt68xDfw3rwOqoqDRR2iPW/evP3798tjZ3K1AwOubW1tb7zxRmRkJDygXHsEo+ECbYuLsS9+9dVXQ8sPMmpv0l1eow2mMj799NPy8I089QvMaT/O2v/lL3+pVqvBdAQZRs7P3cVBLkrylXJOk3UazFHyRqsqlQqmmXUX5iX6OQxEwaZJL7/8sjzdBWoHKD/ygi1/+ctfYmJiYOgOmsDBowaFc+bMmf/85z9hkB7MA3IfDgr58ePHExISoC0PiR0M90VU8d4nNM/zYWFhu3fvloVHftHQ0OD1epVKZUhIyK5du2R7O+y0ATXFyy+/rNPpulp9eh+xHoUgVz1dVRx8p9vb25uamjZs2CDXTT0Kv7uLeZ5Xq9W33nprfX096JxMD17APlFDhw4FK2gf/rpctwbDR51hGLVazfP8lVde+fnnn8tDrfBQsv22paXl7bffnjx5smyP6cMHPCPzi7Qv3rdrt4GlFvzU9uzZ45flIHVaW1sLCwthkWxYpjcYNfAZ0wg/7CQAbgiiKCYnJ3d1Sof+EMwr2Llz56RJk0Ap5WUZgsdR7nhZLJacnByYjwQjgmAngK55a2vrG2+8oVKpoNUGNU6fxwpVvJdIwV6SkJAgp51vjVBUVLR8+XKYcAIdILCmwtxC6AEcOnToqquukkVUftHLiPX0dvl3+1nFwTFw8ODBMCHTlx50jKBKTUtLAzf+PhS5oKq4RqNhWXby5MmwnC10G+Sng6RvbGzcvXv3tGnTfM2tYHXrafKd+/Wo4oQQeeJiVFRUbW2tnC7wApyd29vbX3/9degigy5AGTl31HhlHxDgOC48PPzjjz+urq72a+aDj0lDQ0Nubi64sykUCjDxBbsUgVEL5Pl3v/sdrBAC+QZs/uAqX1dXV1BQAOt0ys72fQDl9CBQxU/n0bN3UKqjoqJeeukl6Kr6VQfff/89zCVTKBRGo7GyslKeXiVf/+M+xPfdd19Xl7GeRaXXVw+UihNC1NKRlZUFpcCXIVjXf/z7hz/84eJS8dDQ0KioqF27dsHWiPJDgZzDk3755Zdz586FwTtonfRDbw9V3Ne0OWLECD8zLdhEoZl11113wUC4XDr6sBHZ6yJ7CQQAI9CLFi2qqqo6o3swbBO5efNmuXMMZhZ56CJIkGB0B1ZUjoqKAtceeapiR0cHtA3Bt+L111+PiIgAFZcHzPowYqjivYTJMMzs2bN9JxDK9XVHR8dzzz0HiwdwHBcZGfn+++/Ly/rKYzp1dXVff/11VFQU1OByfdHLiPX0dvl3+7kvDh1ijuNiY2OLiop86cFrMJgFY4fc4PXFOY4bPnz4iy++CJGXHwoSHazrX3zxRUJCAsdx4CsAK0P3+dh/12yAKg7ebVDtx8TEgGDLaQSmUFhnENwqZYZB8lSQw8cX/gTAJ/yll17qbj3z0tLSgwcPTp48GSaxyGaWYKyX5Bs5GN6LjIwkhKhUqtWrVx87dkx2cJOHTqG1fvjw4Xnz5oF7nezZ6BtaL1+jivcSoE6nW7NmDSxd4tuVBOeGDRs2QL6CeYP33XcfjIi3SgdcU1FR0dHRERsbO7BD4wOl4tCc5Thu0KBBBw8e9K1M4TWsyfrnP/9Z5tPLJJNv73MVl/vTarXa6/XCfBPfbdwgxVtbWw8dOrRq1SpQbiiDskIEo7EuP/LF693Wt+PiUMmzLDtlypSufXFY0qOhocFsNvuaZuU08uWJr/uSgGzrAH9CjuPmzZtXUFAAQ+BnrB2uu+46mAkm39uXETq3sMLDw1944QV5po2vEoC0P/bYY5CTYPrpuYV6rlehip8rqVPXyTZPyGZhYWEw3cB3KWxYh/nIkSMTJkyQnSVVKtXEiROLiorAWUze9Q56Zq+88kpISAiY70Cugm0TOvVAnf8HSsVBVwgh4eHh77//ftdyCp/s2rWrz9cx7EMVZxhGo9GAL+qQIUOeeuopWGgWrIAtLS2N0gF1UV1dndlsBrsuzGv1S4ugvsW+OAxhQEGeOXNmVxWXRzkXL1484ENdQc0MF1zgshJD9crz/EMPPQRjzH6D4uAbvGfPnvHjxw+4inMcZzAYysvLm5uboVvmW5G1t7eXlJQMHjwYuix9Dh1VvKdIoT0Of5VKZXx8POQx8GmQN5Wvr693Op0wlAt6DMahTz75BHIjdNHkLcKOHj06ffp0hUIBKwb2+X6UZ33MAVRxiJtSqXzjjTd8Mz+8hkr2X//6l0ajOetT9OiCvlVx0IYft4h+9NFHwYdRzgzgwQptu+zs7BtuuAE80mGL0v5vrl2MM836ti8OSc8wzMiRI7uqOLSz29raVq1a1dNpxj3KgXixPwE/FRcEARZXgb6On5D/WIc+/PDD8i4UZ53L7/9jffpep9PBPKWuvvRQkaWlpcFeLPIz9tXvo4r3iCRUuLIhVK1Wv/jii7J5HGptWDW9rKzMYDDAqCf8BAyQ33jjjfIqj9CahHmGP3q9PfTQQ7Cok+9dPYpeby4eWBWHVtFLL73UVcVh2PKLL74ICwvrzQN2vbcPVRx89JRK5b333gu7V0GuAIVobW2tq6trbm4uKytbv349CAMY2CAOXeMWvE+wLy5ndYZhIiIiuo6Lg12to6Njy5YtqOLBy4pnCFlWOOiLjx49OicnB2aE+0l4R0fHkSNH5s6dKwgC6Lfv4McZgg7mR+Ds9utf/1peKsSvImtoaMjMzITV34JhVMQ9zc49eWUVB0Po1KlTc3Nz6+vrYQQUhtPq6uo6Ojo+/fTTyMhImGYK4YNQjRw58uDBg02nDqhBoDe/f//+4cOHwwylfu6f+ZoN+9m7DZ4UTGIvvPCCX+aX/UX+9a9/QRE498Q665V9qOJgQbn55ptzc3Pl2QfwLCDkbW1teXl5v//979VqtbxAm+zXdtao9uEFqOKg4mDdVKlUJ0+e9Mt18hqCn3/+uVqt9lV9WWX6MEUwqJ8IyHxBxfV6Peiin5soJNjrr78OOx7Cwls/hdLvr2Am4pgxY06cONF15iJ01L788ktYQaLPPV+wL96jBIc8Bn91Ot0vfvELWGhP9loCVW5ubt62bRsUfnlcHHaYZlnW4XDA1oSwdYrc8G9vb09JSYG2f49i1ScXy1VVP6s4ZGnI3n/605/86lPZ2vmPf/wD6tM+eVgIpA9VnGXZ9evXw/J8MK/Vd1P2jo6O8vLyP/zhD2q12ncIT66y+vChzhoUqji0WWH7A4VC8c477/jlOtl2UlVVNXHiRLloyCX6rJDxgvMkAJ1aWGFDo9E899xzLS0tYN6EeVxyoxiWvYTZ4SD55/mTfXQbz/M6nW7Hjh3QJ/PLUi0tLfn5+RMnTpRXd+qjn6XBoIr3CCYoMVhuBg0a9Omnn3ZNrObm5tzc3JkzZ3ato8FtzWw2w0Cp373Nzc0vvPCC77a2PYpbLy+Wq6p+VnHIgVAMYYEUXyxQIlpaWt55550+N5j1UsVhwR+e50NDQ5csWbJ3717ow8FiNbCFfGNjY0NDQ3Nz8xNPPBEaGgpNlj5/kB4l/UWq4n27GwokgU6nEwThF7/4RVVVFSwRCINc8jhIS0vLPffcA8uty5MpoN/V/9ayHqXyxXox1LCg4pdddtmBAwc6OjpgRS3wJIJ+Umtra2Vl5YwZM+A5g+H43SOC8qpADzzwQNeNqGFQv6Gh4eabbw5GVFHFe5RYUAuD5CxduhQ82nxVB5yQX3rpJehc+gXOsmyodGRnZ/veJb8+cODAoEGD+t+1bQAt6oAIGrL/+Mc/ZBS+L2pqal555RUYkvBD2pu3vVFxqMQVCoVWq502bRrUNtD/hpjD8ApseuR2u8PCwsCPHZzgehPtXt6LKu67GwohZMKECbm5ueBZLHubyqv6f/fddzExMbK4QNkPRlXcy2T9mdwOZRI6QLNmzYLtg3xbVaDlbW1t+/btg+naIPkD+/zyCr1JSUlgaPWtv0DFm5qaduzY4TvI2ldxRhXvKUkw+eh0umeffbbrakItLS0NDQ3Lli0746oDLMuq1WqFQnGfNHHcN6FhALi6uvqhhx6ChQS6duV7GtUeXT9QfXHI1TzPT5w4cd++fX5MIP83Nzdv3rwZmho9eqjAF/dSxZVKpVqtnjNnzrfffgv7qEJ+gPXmwIpQX1+/fft2nU4HAyXQCoS/geMWvG9RxeVqH8qyKIrvvPMObCUO+Q0Wd2Nc0QAAIABJREFU7QBvqtbW1rfffnvMmDGiKKrVahiHRRUPXv6kIcMswBUrVsjLp4CDm+/Wxa+++irsdTZQY5B+CEBKR44cWVlZ6ScMsNhTa2vr999/D7se+d3by7eo4j0CCNtvcxw3bty4gwcP+k3uB3Pc4cOHR40aJW/e5Rs+jInyPD9ixIiCggI/xero6Kirqzt+/LhWOnxv7IfXA6Xi0LnheX7t2rVlZWV+TORSvHr16j63YfZGxRmGUSqVo0aN+uyzz+Qy67u6al1dXUtLy44dO4YOHSrHXB7164cE7e4nUMV9ycD+0TfffHN7ezv4qMI0M2iEgc9KQ0PDjh07xo0bB7UlWtR9AQblNVSU99xzD3RuwO1IdiCCwar7778fRighBn1uqevpg/E8r1AoOI4rLi4Gg4Fcl8nxr6ysHDduXJ/PiEMV72liwSps119/vV9KQZK1tLQ8//zzMGLaNbHknRV0Ol3XWVXQG6irq7NarRqN5hLpi4OKh4aGPvPMM11nWra1tcGg2OWXXw6OLD1NrwDX91LFx44d+8EHH/y4DH5jYyOM1kFPDlpjDQ0Nb7zxRnR0NAzBwnqfUNX0c8r6EUAVByDQ3/v/7V13YFRV1p/ekkkhJIGEBJAgoIABaRFCLxbYdQEFEUF6MBSlhEVcUFFgUYoskICALN1CNYIUpYmEovQaIBFCEpKQOr1+WX7fd763b8KEybw3FN/8Ed483tx377nnnt9p91z8jY6Ovnv3LuaRNo4yU1YtFsuuXbtatWol2OIsduL4KxkTIpFo8eLFBIS4IKW+qKjo5ZdfJu2Y40543hyOLEPy6q5duyAOqPPgJOSux8bGcu6LE1Dc/YyRwIXEl8vlOOv2xIkTyFDDBGE3MFIuWrVqFRQUBOnAahw3oUGOHj0aQXTo/mgNW8mTk5PxOno7qx0+vtLy4Tu7DaiGBUhmzTPPPHPlyhVXxQiOtPT0dH9//4frUSddH7s9o6Oj169fb7VayYtut9t1Oh3qb9tsth9++KFNmzao7sz5svWGAR5TFOe26guLgHK5/L333sP0wcEGdzrSFek6MzNz9OjRYWFhWMjgXuA6Yu1YRKzGha8eUIDEkEgk+vrrrwkICcURI8/MzGzWrJkH7fL8KDNgNnPmTHSS2Xmj0QgbpXfv3nyYI8J+cTczTDhKdptare7Vqxe2LxoMBmjuNF+7d+8OCgrCbnJXTREsCndRREQECvbhlFLaD5mbm5uZmRkeHg7FzrURN7315r9o+fCN4ohKIuMXSUMSiWTGjBmFhYUoeUbERIaR0Wj829/+xlwm3gyT+Vua0wc5X5zmTiQS1a5de926daixSpk3SE3FNrNff/21SZMmUPigKDPf+3CvBRR3pb9MJouIiEhNTaW6yFS0B2o6dvwiV/HEiRMDBgyAt0ytViOxQ61Ww9PmswXrOoon4Q6WGUbyyy+/MGWB0+mEymy328+ePRsREfFIDRjeNqlU2rt3b1a3nU4nVXMcM2YMH0UoBRR3wwwsFFcqlRqNZuHChU6nk5IlEa/BbsZ3330X9jqOt2e1DBalkxiWLl3KrLANd1FZWVl5Ld7x48cjyAIDtELLntW4l199huK0z4rUlJdeeik7O5ulD2Eh2O32EydOBAcHu4YnvBwvCAtz6kFQnDKhIiMjZ82ahRgqOV3RW2Q4HzlyJC4uTqFQYK+B7yulu6eMgOKu9MEcdezY8Y8//qCNQuS+BXYgdGK1Ws1mc3Z29o4dOwYMGBAZGRkQEADmJFnh2r5w50EpQCncYrHY9XAkmLMmk+nw4cMajeZBG/XJc1DiFApFXFwcy6NORTrLYzYffPCBULuNtJxBgwbBPuNV+aWVSXZbvXr1zp4963Q6YXVR+iFwvW7duoDDCmU3eWUBIS1atMjNzWVq/di6ZjKZLl68GBYWhrfj1Xxzos9QHIMiJ3Pjxo1PnTqFfVmuzF8eY548eTKiTpznotKcPgiKo8aqSCSaP38+LDbalUThfJvNdvv27ebNmyuVSkpj5kP/8IYZBBR3pZ5EItFqtVKptF+/foWFheBDqvuJ6WYWAIUDxmKxXLp0qX///jExMcp7H9eWhTueUQAHikOm37p1i8Q9KfVOp7OkpGTnzp2etcv/01DzZTJZbGws3HSszoOrFi5cyHlf4O5LSUlxOp2uznyz2bxgwQK8lPCM8z64NghHa0RExJkzZyrsmNPpfFgoPmnSpOLiYtr4gNg2XG0//vijWq2G3Qw5zhoazFD8FYvFwcHB+/btgz0HSIBf3Waz3b17t2PHjgigAF9ZTXH+1ccojvN54+LiDh48iPw1g8HAFJRYAufOnYuKigLccg6HHqE43DBJSUlFRUV6vR7aGzpMybN37twZPHiwRqMBD6DDZF1wPmVVa1BAcVe6wSWjVqtVKlXv3r3z8vKQrYJVCREEKxxzjSgYZbScO3duyZIlvXr1CggIcG1cuOMBBchwEYlEtPeDCYdAqeXLlzMT1D14AZ+Pgo1q167NKuoLYYGUmTVr1nBudwoo7n5WUUkN+xKDgoJCQkJu3ryJSTEajdCusEe8oKCgbdu27ltj/a9arZ4yZQoyaEiFglpgtVpXrFgB9Q46Dd9alHsUh7lpMBjGjRsHjwJszQr/IqaABpGCjtwfqn6lVCoDAgKGDh16+/Zt5gql6GNxcbHVas3MzGzZsqVWq2XRjauv7lEcFlhJSUnr1q0V9z6TJk1ChS/Xug4YhV6v37dvX2hoKKQ5POpIg+Cqz963I6B4pTRs167d5cuXUSAZix0pGjiVjsWxwHggzu3bt2fOnNmyZctq1aohIqZUKuVyOa4VCgUCbVDysEwq7cyf6wEmirtu5IVr2uFwJCcnc46F3hMaKF6rVq2MjAwml5CybzabN2zYQDFF79+IFgQUr5SSkMUA1G7dupEdxtLNDx8+7CneiMXiNm3aAMlYcVabzXb16tXo6Ggcu8f5vLuO2g2K2+12s9lstVp1Ol1iYqJ7FCfNgzaC+/v7U4xfLpfXrVt34MCBu3btKi4udk1nQyKIzWbT6XRTpkwJCAjgb+zuURwbxgwGQ6dOndRq9ZAhQ65cuWKxWKDQsJz/UMJsNltJSUliYiKVsmHGUFxp/lDuCCheKdmlUmnz5s1TU1OR7IK5RuTLdRsF8Btgb7PZLBZLdnb2zp07p0yZ0rhxY5w1TDY6kJuWRqU9+dM9wERx1hoDLqKm0qJFix5B0iDBLSwsjBXRB3PAXNu8eTPnEk1AcffMQAalSqWSSqUpKSnYE4wlbbPZyA+MmmvuW2P9L0443bhxo91upyArXHb4+95772GCWD/k46t7FAfclpWVjR07VqPRqO//0Wg0Wq3W39/fz8/P399fq9WGhobWqVPnhRdeGDx48KJFiy5cuIDxUjiZqbbq9XqbzVZYWDh79mzmHms+NG/3KA4FWqfTtWrV6u23375x4wbktdlsrtDVR/kNFy5c6Natm1qtRi7qQ6mn64ZDBBR3Qxz8l0ajUalUgYGB//jHPy5fvgzV7X6pG8AaiGgy1h0Oh9FovHTpUnJy8ssvvxwYGIhKf0iIAVRJJBLO85wqHdrj8QBWO/knmQICsmP+/Pkg5SMyHswoMneCgoLOnz/P7DNQHNmS33//PeUEcdV5AcXdUxLBF6VSKRaLo6Kizpw5AwkOd6vT6dTpdAhjt2vXztN9gMiy7N+/f25uLqYYzUJRMBqNhw8fVqvVMPHBJ+57683/ukdxKoixZ8+epUuXrrr/Z+XKlStWrFi1atXatWu//vrrzZs3Hzt2LD09PT8/H/txoRAAI10tG7vdXlhY+NFHH4WHh6NL8nsfPobvHsUR+zQajXPmzDlz5gxt7oeCxVykuMaJtHDDHjhwoF69ehKJJCgo6FEzxwUUr3SZYMpwbnVcXNzGjRsRQ0GauuvUk+sXEEPH6SJdprCwcNu2bZ07dwZmg+sgyTm3yiod2uPxAEIOkBGu5LbZbMwjIx+FIUE8AS38/f1Pnz7N7DbV9bXb7Tt37uRcdxNQvFIewJYhiUQyZsyYsrIyEuLIbUFu2o4dO6pVq+Zp+hU0zjp16pw+fRrrH9ltFEbJzs6Oj49HB/iAMebY3aM46srB3CT/0ANemEwmiDkcFkI6CmCSye1Op/PatWsJCQmgJDLg0DF0lVsiuEdxbAK02+137tyhnsNlQnuIqfOU3ADLzGg0zps3r0aNGnDhcL5smRPn6bWA4pVSjM4VJCW+V69e69aty8/Pr9ANA6ORJANqAZFvBveLi4s3btzYv3//0NBQqVSqUqngaqq0M3+uB0jn1Wg0FdIaN+fNm+eptOWbjsiuF4lE1apVY6E47TQrLS3ds2cP5z0RUNw9SSHoRSKRv7//iRMnWD4eGNAGg6Ffv35VkNSoxR0SEpKSkoK4OMASKG6z2crKyhYuXAhPAN9qu3sUJ7jy/gI4V37mo8FgoHAyvBoHDhwIDQ3FmRNQx93Pjpf/6x7FWSOFQxXOA9qDBAZwtRmA+oMGDcKZ6DgBk2aQW13EUyI8pijO7cmkHhENO4FDQkLatWu3Zs2akpISJt8iMATdFDxDUoJ10rTD4dDpdN98881zzz1HR9vR1io+YkYeDfPRelitVrt66kgzmjdvHud+aS/HjzrqIpEoMjLy4sWLLPEBntDr9bt27fLyRa4/F1DclSasO35+fgqFon379tnZ2aypQXrqmTNnateujUxy1m/df4WIl8vlLVq0wIJnWrfwy509e/aZZ56hsxTdN+jN//oMxWG20g49071PWlpaQkJCjRo14D/nfGt4hZTxCMUR7EBQHLJ40qRJ5WfQ2e32kpISV8YoKiq6fv16gwYNEDch8lbYE1/eFFDcU2qjxiqU6aCgoPj4+OnTp586daq0tBR7FuCbgc2Nv9DzCM6JPaD2Xb16deLEiXXq1MHmF4rwPmopFJ4SirPnxWKxUql0PfjZbDaDgosWLSKlmLO3etcQAjAikahOnTrXrl2jKWdeWCyWLVu2cK5/CChe6dThpPBZs2bBnc6cFIDusmXLgoKCsFO80taYD8hkMmxRlUgkBw8epDWPZmlXxYgRI8glwPw5t9cEM64VWKljzLFX+RqWK+rGFxUVZWRkjBs3Ljw8XK1W+7gck0coDmeJTqezWq1r1qyJjo5Wq9UpKSkVxgVQAsjhcHz//fdRUVGUMOEDB0OlXCGgeKUkYj0AvFAoFMgwDwkJgQH94osv7tixo6SkBOlvCBsxD88kHzstFpjjMDI3bdpUp04dhULh7+9PEMB69Z/uKwWYZTIZjg8h2tGWPpPJ9NVXX1XB+ckfNYGjgOeYmJg//viD2W1cw12zYsUKzpU1AcXdzyx2AD711FPIb2L5Th0Oh9ls7ty5MzZAu2+qwv/FhGIjk06nQ/u0+OGs27x5c2RkJN9uWJ+hOB0C9v333w8cODA0NBR7an0fJvQIxeE8KCoqmjZtWnBwMIIskZGRqampLMcprV+E8JYsWYKN8jg3+aE7TgUUr3AlurkJzMa+fyxDpJfLZDK5XN6oUaMRI0b88MMPGRkZdLACbZJy1YBhppvNZpPJdOXKlf79+8PTJpVKH7VQrxua8PVfoC/0pvz8fFpLdGE2m/V6/XfffUeqMV9d8bBd7C6VSCSxsbF5eXnUYcp1hFifN28e5/qHgOLu5wqCfsSIETDFaHHSHB06dAj7oZGK5b411v/ibGOxWKxWqxs3bpyZmQm5T+o8tLeMjIzWrVvzLf19ieKwaDdt2hQREYGzO+FCgyMdPWHRio+vHqG4yWTKyckZM2aMVqtVq9WosKvRaOLj469cucJS72CL2+12g8Fw586dvn370kYDvuexUkIJKF4piVgPkAKNuQOEU2kjHIsil8vbtGmzZMmS06dPFxUVkSLOYgysaGiEqOV14cKFN954AzWGVSoV69V/uq9Y/Ej/c40uoyyUzWb76aeffBN1e8AJgJMNUdXY2FjatACcABNgp/tHH30keNQJPnmqwIocSYI0sVjs5+e3fft2hEVZWZNms3n79u3Dhg0bPnx4eSWyESNGDPXkM2jQoMGDBw8dOnT48OGJiYlZWVlonzzq+GoymUiBo+xZkiwPyGaVPkZDrtCjDgPCYDCAP5nx+0qv4VFA3RiQEVLMaDSOHDlSJpNBhDEpX2lvOXmgUhSHrwUDzMzMHDRokJ+fH3wGkN0ajUapVI4ePTovLw+TVVZWRrlv5FnJzs5u27atRCKpgqrHyUiZjTymKP7mm28yCwUyR8T3NSlerosOLITzjQA9kZGRI0eO3LVrV1FREfMsKwR5WaAOJ3FWVlbLli1dLTR6L98DfITaB4kx04cPHyZxjwtkjTqdzpMnT2q12keHQGR/SKXSLl26sLpNgsDhcEyePNmVjbycAMEWZxGQiSW4bt26dXp6Okowui5CqvMAIQ4dvGp/cbg4kwHQps1mO3r0aExMDEQGT55nNyhOmfMmk2n16tWJiYljPfkUFhZSfXhK6saWrYMHDz7zzDNSqRSpQz5ele5RHMRH2PvUqVO9e/cGckOThs9PpVIplcrykqvz5883GAz0E+YkQlJv2bIlNDT0Udh49piiOK/ni7OEgEdfUYgNJQtpt1FoaOgbb7zxww8/3L17FyUEUACRJUCgIJpMpt27dzdq1IhVa/lRy9/yiCxVfBhjxhrbunUrayFREsrVq1fr1atXxXfw8zMEX0Ui0fjx41ndhlMdwZXBgwdz/n4BxSskKSANxtPnn38OR7prsgWFPIDx+FqpbXq/B5ibVZD1ijVvs9n0ev2gQYMIdfhAOzcoTrulS0pKhg4dyjSJHuR606ZN5GBE4JAKXZnN5vnz5+M8KMjBCqeDp5tEzwrPNKOi7mlpae3bt0cqIhnTJHAhdurWrYv8RFdVDCvaZrPNnj1bo9EEBARwrot7RB8BxT0iV6UPs5YATGqcO46zVWBSum6bItleUlLicDj++c9/wqav9I1P8gNYG/DOJScns+AQ1oDT6czNzY2Pj3+kCEFO9fXr17tmQ1B1kU6dOnG+/gUUr5ATYIVLpdKYmBhU04MrmMVUOLfeZDLBXQyr68ENccA5zFNmJIUJ4YR/a9euDQwMJPWCD05A4xV61KFhlJWVjRkzxlMToX379jk5ORgmmBmtUdHp+Ph4qi9d4XTwdNM9igOPDQbD3/72N2xAgIAmewtfkfSkUChatmx59uxZrF8Y5UxusVgseXl5ffv2heOBpxE9SLMCij8IlTx6hjRgXICZUUFdIpHUrl177ty52dnZrlyBlY4U95s3b9arVw/rGpqBR314Qh4mAadUKpOSkphLiDbtQL8eNGgQH9ZMlemIzmg0mgrTZCAXTCZTgwYNOM/LE1C8wlkDistksoSEBKSOu+a1MRkMAdSioqL72dkV3ifbnaCaadzjGu/FEQutW7emRFnOGZgkkSuKk4ZhMBjeeecdqgVNP3F/oVQqp0+fTps/Cchp+Dt27AgPD/d9ao97FEeGmslk+stf/oIaHTDEKasGU4Bu4++QIUNwai3Lcep0OnH66u+//96yZUt/f/8Kuc43NwUU55XOFN4ODg5GgTbsn+zdu/etW7dYjEEbzXF/8eLFgYGB6B7nC5zXUXPWuEQiAcgplcr+/ftDyFLFRIhRwPnixYuxkR97PzjrQZUagjtdLpdHRUUhIYIJD5B0FoulpKQEp91V6SX3/RGcxosXL4YdyXw1UpBwvrin5td93/fA/6FQKMLDw2HcsFgfnRw0aBCliT5wqw/0IMQ0nDpbt26lmC4AFSCEjC1yk1Dq6YMb4q5PWiwWZDXDg03ATzronDlzcMYXH9uOCYldUZxGZzQaExISPHUDKJXKOnXqpKWlGY1GlG0Aa2FcZrNZp9MlJCSo1WraSOnpKx5oXl0eco/iFosFx7h16NCBlYuAUCiZTRAjUqk0JCTk448/Likpgd5DGhimEmTcsmVLeHg4FhRZ8y5d4/FG+XaA2bNnU5ohc8k7nc69e/dCU/Tx3n2RSFSrVq1r165BIaZeYYnp9fr+/fvTfPmGPao8B5SCCuUPXxUKxV/+8pcTJ07AkqSjTsnxZrVai4uLmzZtivSLP6k5LpFIUAxLoVDEx8cXFxdDUIJMhFJ2u33Pnj1arZYW4UPnCblcrtVq27Rpc79ziy0WS1paGo6nrTJvuf4QjCKXy//1r38RfWj9wAewaNEi2b2P6895vaNUKmvWrHnp0qX7GcH9+/eHuOG2G4Bw1Fxs2LDhjRs3iCC4INcIoSxXF5DyTBOc9eqjR4/ijA3S9zkcuxsUJ2XFbDaPGjXK0/WCnTnjxo1DQXUqOQ6Wg5J08uTJhg0bAtvICkGXOBwjqylChQrj4ggB6PX69u3bVzpkkrl169alHQ3YWoJJJE20uLh41qxZ2FwK+U7jZXWPp6/lEf1PPvmEZCOLx/bt2weXg+9RPDo6Gs5IeJ5BMSyK8vPB+vXrR8pTpdPBE+mq0CwmF8mbCoWib9++t2/fxqAwBSz6Mzcl+t52qsIAOf4JSitgpmvXrn358mWKUTFVY6fTmZ6eXq9ePRjBOB2S46542ByqAo0YMaLCwAmCr5MnT+a8LABq/UskEqA4CRqm3Fm8eDG5ED0cVtUfh58/MjLyypUr5M4ldkc/X3zxRT5QXKVSQbaWxy9nz54Nm5tejXLfMJqx3dPVpK7yHQq9UyI3871Op7OwsBAWCeeBFaaT3NUW9xLFcUBnrVq1Nm7ciGrktCEeQA7fwz//+U/o1iSj+XA5MJmSQxRH4Q50uF27dufPn3c4HKgxACnEdOSUlpb26dNHLBbD6uB8+yhzjK7XYrF42rRpWESsJe90Ovft20eC1MfqRXR09KVLl0Auirbgq8FgeO211+joeuIQ19E9mnckEonq3qe8XtCHH35oNptxiICrcJs/fz6lST12w+SA+OA5/FWr1ampqTiViAQHWBYZ/926dcNZFCKRyPdaJ3O0SHaVyWRfffUVcTCJb2htRUVFbdu2pfxY5s+9uabc+M8++4zeyLpYvHgxXuHLJQ3rLTo6Oj093VWzQQ/j4uJQhZhbXsd0SCSSp5566uLFiywxh31lRqPx/Pnzly9fvnDhwmXuPunp6adPn7548WJubi75nGk6wAmrVq1SqVR8zAV/tjgZIm3bts3NzWWNiEKD2dnZvXr1Imbzge7ILYpD/5PJZCqVasCAATk5ObRxHNXXyXeK/a4NGzbEiuZDJ3MvFt555x3ad0DTgYu9e/fCTyASiXxsC9atW/fGjRvQZeGhAc87nc7S0tKXXnoJDg8+mN89ubz5X2aRAPBbs2bNMjIyXH2foP+PP/6IAA3fjihvBsXjb8Fz9HfkyJEWi8VgMCAUByyHXetwOD7++GO5XI443MNFcahp0dHRFy5cgG+Wua6AIqdPn65Zs6ZSqeScg2GO/+Mf/3DVCnFn3bp1MNR8XB1QKpU2bdo0Ly/P1RoGfZ555hk6S4BbrkK4feTIkZSQRTMCNevgwYN16tQJCQkJDQ0N4+5TvXr1kJCQWrVqJSUluepzyPC4fv16fHw8H9YbfygOnUwqlfr5+X3xxRdUaBbymul4SE1NDQwMBKfxbYiDq6HIeu9RJ4VYJBIpFAo/P7/Zs2frdDqDwYBFjdUEixwxBZSuA7Nxy8CVtta/f3+E/F3Z7Pjx48HBwZAznEsb9x1r2LAhcgMp8kIoXlBQ0KZNG8o/cN/Oo/a/8O0hSAfQWb16NbQoV6mbnp6OgsTgz0dtLLz3BzxHcc2GDRuWFz3GUa/kAkVCjdPpPHLkSFRUlEajgYjh1p7zdKiBgYF9+vTB+Ugs4w8iYMOGDWACzvsJp/S4ceNcTV6r1Wo0Gvfs2YNMQD7c124IhRo4lA9FOIoLu91es2ZNMhrctOPpf0GqqtVquEaAnfR2zM4nn3yCXAFuxRzMOJFIFBcXd/v2bQq3Q9TCOik/Q2nKlCnVq1f3dFyVPs8fikOKwefcpEmTs2fPovA48Jty95Dv8/rrr/v7+yPlm3NuZxGBW1uczprESomOjt60aZPD4YDvFIY4dq/B0WK32999912VSoXnfeZHlclkr7zyitFopJNhib2dTuf58+dr1arlG6sX84vMQYlE0rJlS1T1IHFNKU05OTkxMTGQ7dwuOhZLcP4VvSVORsB32rRpME5ctSi9Xk8uRh/7Qjgfe9UbpJ2+CoXi8OHD0OZc63WYTKa+ffsiD1mpVPqSXiQucYGjnNavXw/AYMIGVrvVah0zZgzJiKqTpqJfwu7p2bOnXq93BXKHw5GZmYmi/5SPg2aILytq1dt7mI6RI0fiPFmmlMF1fn4+es7HxEkkkjZt2ly9ehVeL6ApIAfenR49evCkKYOqwcHB69evp1FjqVOW38GDB5mHo3A1EcSWnMfFiWGQ2DFmzBjzvQ8ixzRMXFy8eLFNmzYQdnAUectM9/895yjOfJVSqYyNjb1586Zer2eOER4IJL5lZWX16tULcWio6bhmtsP5tUQief755/Py8kwmk+uSz8rKatSoEYCEb/cba/H26dOHzo/Ghc1mw8G1Fy5c0Gq1fLigOCfvgzT4+uuvQ3mlRU0c4nA40MLjpaw8yKg9eIZQvHzWkYoJzY7IhAur1frtt9/6+fn52MSE9CeJiSjsU089lZmZSQYKmePAj+Li4saNGyMXhvOplUqlAQEBcXFxSCdhUgkKkMViQV60j1FcLBavXLkSfXDVWH/++WfCUZYs8IBXKnoU2RIzZswwGo2FhYUgCAkXu92+b98+7BTiHGMQ8Ibno3fv3nq9nqxVsASEmk6ni4uLQ7C5ohFU8R7xJE8oDncodlQeO3YMES5XFDGZTCkpKRqNhttprZAo/KG4RCLx8/OTSCRDhgwpKCiAX52UQlzo9Xqr1ZqWlla/fn1sOmDZbRX22fubEokEZye6LitkUHbr1g394XuOjdJdAAAgAElEQVQKqFQZXpSUlARfhdFoREIliaC9e/dSVhA0PO/p8LBa0Gq1HTp0uF+NPwHF/zMvhOJ+fn6dO3cuLS212WyusVWz2Zyfn//8889TTorPJpXEJV188sknqM+H0hBMFLfZbFu3bhWJRPAxcrvFCME8f3//WrVqZWZmshRDu92OsM3EiRNxAi4z4YgrE/B+ZA8ICEhLS6PsaKZ64XQ658+fTz/k1mLADrfLly9TyIqgFBs9e/bsyd/WO5LjISEhv//+u91uhyUHBqb0qJUrV9J5aKQXEkGqdkHcyDmKE6tAZ5XL5T169MDRL64obrPZCgoK+vXrB+bkXG1lEoc/FMdbYCEgJxnxAowX2rnT6QSQr169ukaNGiKRCGk6vA4ZHatevXpaWhprZzaZNxMnToTVS9v3mUTj8Bosh+NwRCLRN998gzRAKD2wwiGFVq5cyURxDvvg+6YCAgJeeOEFvV5Pcp4p3AQU/8+MEIqLRKLw8PC9e/cyA29MelkslsWLFyPE6IOVQ+xC4hIXMTExZ8+eBYpD96TZdTgceXl5r732Gg4z5iNrFOQKDQ397rvvmMQhu8Fut6emplarVg0ijymRaUScX0gkkri4OJQ6chX0er3+tddeQ09ony6HfXj55ZcRj4e+TBvArFbr6dOnAwIC6CxCogZXbyeHR2Bg4Jw5c7DJAicjIeHZYrEYjcbMzMznnnuOsh0xiV72gdiScxSnPDX0U3HvgwQfluIIDrTZbLt27apfvz665OW43PycVxQH6gQEBISGhh46dAjaGMZLJ6xjy0NpaemECROw68xNb7n6L4lEEhAQsHr1aqxx1qq3WCz79u0LDQ1FHgNXL62wHTAGbIPQ0NCsrCx0CXozhCGU6QkTJpDTlPNFV2HfeLqJJdClSxd42kjU0ywIKP4fyoNM4A+FQvHmm2/m5uaSXUXbEFFeUa/X9+7dOyAggGwgniaP2Sx6CAlSfpjdnDlz0CvsLqUtFmDo48ePh4eHQzXmnH0RhEPy0TvvvINkfuIn7Hu2Wq3Xr19/7rnn1Go1FhJWHbedQWuYBeQbjh07FsnMBoOBchLhA8zJyWncuDG8cJw4J/B2/NVqtSkpKTiGCBVV4U53OBxlZWXLly+Xy+WokgjvCHNmvb/GvhSRSKTVatu1a5eVlYU4C1QZ1Ft2Op1FRUVJSUmo7whPtfdqqA9QHMsT3W7btu3NmzdJRYM4g3WIYSYlJeFICYITzh28/KE45A+iHlqttnbt2mlpaTDHkfgCiKIN5Tdv3uzSpQsT1bznpfu1gFEnJiaaTCZXpzr8PdgHwXccmrQ6pVL5xhtvkIpDWG6323X3Pt27dyeVzntWvx9lfHAfIrd3796UwQd5S+4Zk8lEK9EH/XnUXwFLJSws7NSpU1gt4BI42Cnu8tNPPwUHB0NxJkbhXF4wiUVn2EkkklatWl2/fp2AExd6vR4e1LKysrFjx1LVZc4XFbGLRCKJj4/Pz89nZU6C1cr9BDNmzMDip1IV3PqxsZ4ByXK5vFatWkeOHIFjDbOGqnbA9SNHjtSoUQNhae9pQvlE4IHY2NiMjAy8FNIEcg3Q8tJLL/EdsgUppFJpUFBQamoq5Cz2vFGxFKPRuH//fipZypUqA37g3BZnMj/8SSiz+PHHH2NCQWEAG6DO6XRevny5VatWWMVw7XIyTGZn+ENxvAXto+Ri37597969W2FCGSI1Bw4cYCag8OFkol4plcqYmBicL8cSPhCVX3zxBUU0+ENNWvWhoaG7d+9m9QSFPeAAq127NqsILnMeH69rhUIxZMgQnU4HJALz067Ly5cvPzEj5WBeEPBWKBTjxo0Dv5LiT9YVQlMzZ8709/eHCYgX84riMplMqVQqFIqnn356586druowOVsOHToUEhJCtODW/EWzWKJisTgsLOzQoUOQoYRhkC8Oh+PChQtPP/004prIlud2bZOKACgdP358aWkp5gt+FDi3YT3MmDGD9t15j+I01yqVqtzXO2vWLGxXpXkBdpaVlaWlpSE/gCaCLmiOvL8gFJfL5a+++io8scXFxWTJwXOTl5fXvXt3yHrviUDBdbFYzDeKo7cymaxmzZq//PILWSHwQqF6OSZ9/fr1gYGBWq2WzHHvyctswTcoTlkUM2fOvHv3Lva+shALRsXy5cs1Gg0lq3O7xGjgoH95meqffvqJmJz6g6zDS5cutWrVSi6Xwx3CB5+D5SAMe/fu7XqEhMViKS4uNhgMH330Efw3PBGEKOObC7lcvmzZMvKxUalHLITU1FQMk++kBN8MloO3wOqtXbv2rl274LIjfZ9Zkj4/P3/o0KH+/v60sZWDd7ttAsixdOlS17Q7yC+4knCgOBmLbpus4n/CooWrfNasWdB/wVigGLku5s6dCxLxVO0OyeFKpbJu3bq//PILedEpLA3d4vbt240aNaI8O07c2pgOsVhco0aN48ePQ6TidQ6Hg+zgvn37AmIh1MhzU0XS3+dnhOLlWfpRUVGZmZlgWhYDOxyOhQsXUpjjPo15cJscM3yjOIQUNnmOGjUKagpGhzwASmnMz89/4403xGIxqptx6/4BisDi9L7qy/0IjdnEQU1hYWFbtmzR6/UIEhFwQj8zGo1FRUUjR45UqVRkB9+vWW/uEzxMmTLFVf5AR9Tr9cnJyWFhYbCFSMnz5r2uv4XRSUezMwmCbtjt9jt37jRu3Bi5nE8GitevX//s2bPYaoi9xGB+XM+dOxc+J04kmyvNH7M7BH5isbhfv355eXmQhpDOKIJNUHH9+vUBAwaQi5In3RMUlMlkISEh77//fkFBgesqQiftdvuqVavCw8OxF44n9sVOD7IV4uLiLl68CPow7WCTyWSz2W7duvXmm28qlUrYRpy7NwFIISEhS5cuRfoPqVzoEmziL7/8sjyZgIQLJ94nyDWJRNKzZ8/CwkImiuOlZrP5xo0bkZGRiHTyyh5MFNdqtYsXL0bmI4jADBlevXq1WbNmXLlefYzisPPCwsLWr19Pu27IW4b8JqvVeuzYsYYNG6ISO8EPV5KIb1uc2U+pVKrRaJo0aXL+/HlXCxipi2az+ebNmz169OAVxaGzymSyZs2aoSgCEz4hkYxGY0FBwfDhw+GkpJqgzBFxcl29enUYD0AyZk+w9DZt2oSQBCcrnZM+e9OIRqP54IMPcOodgTdGjSpbOPQFOi6vcsabUfjut1g2SBcKDg7et28fM00UFKSt5Ha7/datWz169EDEjtdeSqXSQYMGIT0VtRiZvOt0OgsKCqxWa1xcnFwuh4cZ/eF8UpERTcmfUqn022+/hSQlh4/RaMRxmQ6H4/Tp002aNMGWGD4UC4lEMnToUASKyJEOTQvuVp1O98orr6AKDWlp3iut9xwSosDAwGnTppHhC+yE2eRwODZs2ICkNqQg8cchTBRXqVRdu3YtKioiVCMbBRP09ttvS6VSTjQqX6I4xgiE6Nq1a0FBAemOiHZhpz7iCO+//z4VWKTwByf09xmK40VIzh8wYIBrESpkUwJBt2zZAiHOxxIDHotEIj8/P7VavWXLFpbwwdeSkhKn03nu3LnIyEi4QMj7xQnlYdxLJJLOnTsXFBRg+KyeAMUHDRpEagdPBOFcrt6PRGKxuH79+rdu3SJtlWnFmc3mkpKS5557DrND4cv7tfZnvN+gQYMjR47AeQWcYDINfMgZGRnDhg0LDg6GKx6yg2ptkgeV5N39Loi+MpkMRdohthQKRf369RcsWIAzITCFENDkRTSbzUVFRRMnTsTbuRVb1LEKL6RSafPmza9du2a992HSB+DhdDoPHz7crl07hO4A56hVggUGggBfWcShCC4wmHnyLp739/efNGnSH3/8odfrIcrJ+oRb2+FwLFmyJCAggJMwMJMCIDUKWrFGDVAvLCz861//yjd+M7sEMYeqy7t27WL1Cha50+ncs2cPGMx7IKf54tujTi/ChUajwaYAGhRzsFar9dq1a61atSKNk7kivJS/PkZxuIUDAgLGjBlDYRpY4cwhO53OlJSU6tWro6ak9zPrylegoVwuDwsLu3z5Mk6XqJD+169f79q1q0wmU6vVfn5+Go0GMTiAOha1m1nAFCOlEYmxynsfrVarVCpHjBiRk5ODt5MApK0xBoNh7dq1fn5+TEuGNZYqfyWFwM/PD8kukGlqtRp+PvQcoRD5vQ+T8dy8F6KeQgAgV2BgoEQiadKkiavahEQQhFDnzZuHYkFY/m7e8uf9r4EDB96vCAw42OFw5OfnJycnN2jQAAloYNby4+TAiLjpiiIswQSIUqvVEBNisTggIEChUDRr1mzr1q3ksAVKIe6L1AZUXV64cGHt2rXFYjEciT6bMGh/M2fOpA0wLOGCnl++fPmVV15Rq9VarRaLgfw/xOigmytZyP1L2I8VEh4e/uGHH5aUlGCvEfLLoDqAMmVlZdevX2/YsCFPUBoYGDhlyhTSkWngMHl//PHH8PBwWvk+mxF4ERMTE5l1ealvVqvVYDA8++yz3nsjKPDpg+w2FldIJJJGjRqdO3eO/Oo0QFxYLJbdu3cHBQX5+fkBy4n+bvCDnnFz4TMUhwWMcAxcX5s3bwZ+Q4lnDdlkMg0fPpzSYL0cpisFyP0mFovHjx9vsVigOsMBxuyMw+G4dOlSv379sJEH+i5huWvLzDuIfEEUkHcBRlFYWNiMGTPoaC9IQiIFCrzfuHGjTZs2gHASLMz2vbmGGImIiBg2bFjnzp2rVasWGhrq5+eHWAYkIVNfwbseJHGKMAJAjpo2Uqm0YcOG3377LYvC8MXCL5uVlVWvXj1K/uBJ0HlDtIf/W5Qrf++99+C+Y4VhHA6HTqeDcWwymU6ePJmQkBAeHo6NLphUT9cSmABwFRMTM3369Js3b8JBTVYmHMVwGttsNovFsmfPnjp16kAB5zwQ6H4a0OG6detu27bNFTaApsC5W7duzZkz5+mnn4Y4oIxxpVKJRlwBj6iHYDxIinXevXv3nTt3YusFPNgIHDJTP/R6/ciRI4Ex7kdRhf9Ffe/jx4+7ujohasePH89THXs3vYWLQiqVNmjQoKCggClboXSCSvPnzw8ICHDTzgP+F4Grj21xtVodGBg4dOhQbM1gDRMCzmKxDB48mHiGRkRMRXc8uvAlihNwApCaNGly4sQJKo/IGrXFYrl69WqnTp3ogByPxlXpw7Q8xWJxrVq1Nm3ahCO2WN0Am9lstvz8/EWLFjVt2hTlgT2Sh0RkQGD58RZdunTZvHkz9GMkedGLyFdaVlY2ZcoUlUpFOSuVDsqjB8A5jRo1Sk9PLygo2LFjx9///vfmzZtDQSGdA1oLnCKVOh7QAdCWwBsia+TIkSdPniRpz6QzgNzhcHz++ed0wB0RzaNB/SkeRvLanDlzSktLWSiOGAwVybLZbDqd7tChQ6NHj65fvz7qroB3FQoFaI1JpaklIUjHlisUimrVqjVp0mTKlClwW9E5QngdvLWIv0IXPnbsWHx8PNVb9X3FYEBsjx49XI/WhmVMuqTD4Th16lRCQsKzzz5brVo14DdVIGFSA9fYLATtBKgZGhrasmXLRYsWZWRkINkQBIECQRty7HZ7aWnpwoULg4KC1Go1WfMcsqxarW7cuLFOp0MglrnGnE7nlStXmjdvTpPC4XsrbUoqlSqVSj8/vw0bNpDmh+5RYseNGzcQS6u0NfcP0JT5GMXB5OHh4adPn3ZN3oaCa7fbf/31V5xqxTTLHiMUx9KAc0WhUGi12q5du96+fZsMUCbXQX/dvXt3VFSUl2N0nXSCcMosadu27blz5yr07dN2FZPJdObMmVGjRjVr1szf3x8xRxjWsLZdX4RljvmSy+XBwcEtWrT49NNPc3Jy4BOF6gDzwGw2QxIiyWv16tU1a9akqrTMSXd9URXugNsjIiJu3LiBAKJer8/Jydm5c+eECRNat25dt27dwMBA6BD0dso6ZAp/1ttJQGEvZYcOHZYtW5abm2s0GuHjdJ1oi8Vy4sSJ5s2bU/QEbnlWy8LX/9Qhh4ITFha2cOFC1tHRxE8AEjqqwWaz5eTk7NmzJzExsXXr1thqBSCHKxh/kbdCf8v3TnTq1GnmzJnff/99dnY27O+ysjJym2PB4KvNZoMH6ezZsy+88IJMJkOBTwI/n00enDmBgYEymWz69Ol37txhMhytZ4pgIaB169atDRs2jBo1qkmTJsHBwYh7icViogYuoNWiKlmbNm0mT57866+/FhYWQopRpgIcEpTD5XQ67969u3nz5qCgICjInPsnxGKxVqtdt24dbWljjtpisfzwww8hISEsX65vJoUidu3atcvLy2N2zOl06nQ6u91eUlKSmJjofX8eFopDUmNzPPJFmMOEsoJ647Nnz8YuLBqslwhHFg9/O82oq8BvSGeJRKJSqdRq9dSpU3EWJ3PIMEyxFXbu3LnIe6B2vL+Aq5awHIw9YMAAZLSxesKUVPAcZGVlbd68OSEhoXHjxgEBAWq1GgZ6hR2TSqXh4eHPP//86NGjv/322/z8fOxlpTPmyZoiYWi32w8fPly/fn30kA8xiFnAztL09HSmiYz+6HS6jIyM/fv3z58//80334yNja1evTrt6FH994fFhFKpNCIiolOnTklJSUeOHCkvs2gwGDDLrq4+2I25ubnt27eneDyFtyok6Z/6JhRGnOYbGRm5cOHC7OxseDOA2cBvpm+HydAGgyE7O/vq1aupqanlhUH+/ve/JyYmvvXWWwMGDBg4cOCwYcPGjh07c+bMlStXbtu2LSMjo6CgAM2yTCgsTgAGuAe4tX///s6dO5PDikQqi0V4nULyBaEEfVJSUm5uLjZ9oeYUuRAA5Ez6OJ3OW7dupaWlrV279tNPP508efKIESPefPPN119//a233ho9evS777772Wefbd++/fz583fu3AEFoBkAyOEfxn2ESPX3Phs2bIiJiWESxEua0M+hWEgkkubNm585c8bhcGCbGSX7INOwZ8+eCDxT3XJeZ4HZOFIrlEplaGjojz/+iNNjaS5I9dy7dy9K1sBdVLV6+0Rhvm1x5gBxDfcV0txIO4FLBtnLEP3Z2dkdO3ak05e9P9XNlyjOGjW8LDVq1Fi1apXBYDCbzbAIIRPg8bLb7UVFRcOHD2eaDa5JOayWPf0KntFqtZMmTbpz5w4KKwFTXdNEaOEbDIacnJzjx49v3rx53rx506ZNS0xMHDJkyOB7n1GjRiUlJc2aNWvt2rVHjx7Nzc2lTBem0EASDNqkrb87d+5s2rQpmb+eDucBnwe3R0dHu+61ox7CI2K1WvPz8zMyMn799deNGzcuXLhw+vTpEydOHDFixFv3PgMHDhwxYsT48eOnT5++bNmy1NTU33777e7duxBuLPmPwdIBXVarNTc3d+LEiUji43vUD0icR/cx6F+U4SyRSBISEhBupMMJIL7vl2UD5x6UNYgYsq1JtXQ6nWTlgwlYs0gsgggQvm7durVu3boikQjWMMlTXPiMphAQyM4AEnz44Yc4ewfOLvSWqnkzxwLi4L8giTB8g8Gg1+uNRqNerzeZTDhYGpKCIBwXdOY0VH68cePGjTiIhT+ayGSyd999Fw49ElvovMPhOHToEML/2PXns7nAi0h7EIlEEydOhMeCGcLEEd15eXmtW7eGA5NsLE+7ShT2MYrDbQPVKjY2FusFih14AAsK5Xh/+ukn7B2l3no6TObzDxHFkfUtEokiIyPPnDkD2KZ9R7Ao8PXq1at169alBEbOZQK8uIjjjh8/Hh44hJYAOSTlIPrIbeZ0OktLS4uLi0nnAFRTdBI/ZEmJCr/CmsLBS40aNaLwMHOyuL0GGd2jOLrKHAX6CUsPEsNkMpWVlYFp4VXFdYXhCbgYoZgikblcgZs6dSplP3Dud+GWaA+/NQJIxOGwirp27ZqamkoeFSb/MbkNMh1ABa0ZhiPwBqIfaRpYfrRRiux7VmsQTzab7dq1a++//z4y0mGIw99FQooMRx9QkKIyFPTy9/cfNGhQeno6a32S4swcF5ERzAonEosCoBKeZKE41BpaAzk5OZ988knNmjWRFMMkiPc0IVEICNm/fz8UOMgp6kP5xYwZMxDyh0fUB7PAfAX0KljkjRo1+uOPP8gdAt7D0aVWq/WLL74gI7VqQE4U9jGKIzoLv4hCoZg6dWpRURHTWUUIhwNpEhIS5HI50/3IpJhH1w8RxWF1IUDwyiuvZGZmAhWY0h/Krs1m++6776BKwhtUtfm9H2UAmUqlUi6X+/n5lfvPLl68CHWcTuygpYqljdnBYgGkEcAzBQJUMQjDCjevIvfFZrOZTCaDwbBgwYJatWqh2CrngTPW8MHt90NxDJDGghMOYbmRmMLocBOLkfL1yGMBulE7RCvAx4ULF8aOHVu9enUIXgqos7oqfGVTgJW+L5FIoqOjP/vss6ysLHi2kShLNhlzAmhjH/CJqagyHyM3EW5iwpgPYCWYzeZDhw69+uqr2CAIWcaMiJNUZY+B5++0SQz5aGKxuFu3bnv27KEAAaQq/jLHRUoraaz4X9xnLgyyKUk6GI1Gi8VSVlYGlDpx4sTAgQOBXhQlIoJ4j+IkB1UqVbt27UpKSuAtQIfJtrh582a7du3gxQHVvX+1R7NH7IrSLmvXriUnEDoJJjSbzRkZGU2bNgWJquaXI/L6HsUhv6BnV6tW7eDBgyTvMExUDwTbpKenR0ZGAnvwE49Iynz4IaI4GAl/pVLpyJEjaY8MUxsGBDqdzs8++wyFFjg316Ap4i8QtEWLFj/++COtd7JJmEsYK4X8Z/iKJwndzWZzWVkZ2sEDrL9o0GazXb169f3330edXWxyYU4TH9fg9vuhOAt9SbKx+k9GOQE8jBaoYlRSzPVXJpPp559/jo+PRzckEgnfWgsfNHwIbcKkY24HRGhKKpVqtdq4uLjk5OTc3FyIRRZEQXyQoYbpgYEOdRIPQN8EaxI+uaK4yWQ6evRoYmJinTp1FAoF6deATzAxiVRfwgYRB7Y4+gANPTo6eurUqefOnSN+pbVKPIqBE8fjguhAIsAVwlEbDpS8efPm3LlzGzVqhKgnEYdJEO9pQjgXFBREFUCp/+gzdv1hoz+lw/iScdFJLG8kA/fo0QNVMkg4IqnbYrHodLq3336bIv1V6CdR2McoDrYnF5RMJnv77behz9G6g26HLFGz2Txnzpzq1atTEkAVBoufPEQUhxaChSaRSEJCQpYvX440ZvLz0coq3z6elZU1cOBAbHmq8ngr/CF2pcPVBCeHTCarU6fOuHHjfvvtN4rW4wIoRYuauooLssiZwoEmkXkTQ7Pb7Tk5OUuWLMHhdaAG/pJfsMI+e38T3H4/FCfKUz9pyBBrEP7kaIQtTpKfOWTWqK1W65UrVyZMmPDUU09BZ0KojpJ/vR/an6gFklm4QDC4S5cumzZtysrKslqt5B5BGJLpBGadKEe+dMw0M4QMJkAKOqrzHDt2bPjw4c8++yy2SlOlnkeT9EAvGIIKhSI2NjY5ORkVBImD4VoAHzMdbhR6AH1AT4J2nGUOikF1zcrKWrlyZXx8vJcGVqWUhOyG2GrWrBnlIWJlop9lZWVFRUWvv/669xpDpf158Adq1qy5f/9+kIu0fiLpr7/+SoqppxYbhgmDLCAgYPfu3XBNkWYDt2e55zMpKYlXmvj5+YWGhm7YsAEno5D0pMVls9mysrJ69OiBlfvg1HN9kpz5Uqk0MzOTBDSRFFtDO3TowOuQRSKRWq2uX7/+gQMHqDAzszMY+8mTJ1u1agVxTwq366C8vAO7ELvbGzZs+Pnnn588eRI2NywcJuOREABuwRanB8iRQPQkKWGz2fLy8jZt2tSxY0eNRkP7wr3svKc/r1at2qhRo37++ee7d+/Cw0qbweBQJKnFxHWWc4I5dsu9D2kzWD74a7Vaz58/n5yc3Lx5cyjlWG6e9ll4/v8pwEJxKIAKhQJbh8eOHfvtt9/m5eWBcRELMd37IGhK3nVyImGlAbqYU+50OgsLCw0Gw5o1a1q0aBEREaHRaMjy4Fs6/P+Aq3QFFKdMAqVS6e/vX6tWrYSEhAMHDsANTvFvCidjGQMGsP7h2wD84NpgMEAxKikpwUa+pk2b4kAUvtVwEB8+j/fff5+ZlEs9dDgcv/zyC/NY2CrRj+MfyWSypKQkpkLJBLmysrKOHTuSz8mjdzMFSlhY2K5du4gsmE2kfBoMhrFjx3rUsqcPQ8fq0KHDlStX4LFkCk2Hw1FSUmK323fu3InNP562z3weKI7Siti6zaQnGFuv13fp0oXvdQq/y0svvZSTk0MmHXUGObN2u33btm1RUVFYjxRtYY7I+2sKNiG/VSaTxcTEDBs2bMuWLXfu3EGoEQhHrnJS+KjnWEfIGjYajYTi2At+9uzZqVOnNmjQAMUfmemN3vf/wVvAnKpUquDg4Oeff/6jjz46evRoTk5OWVkZTtygjF2DwQBZB8FO6j44BF8R2i8uLqboD0wanU5XVFS0c+fOv/71r1FRUdWqVUP8CHoSk9oP3nPhyf+lAAvFSYrB04Vjx9q3bz98+PClS5cePnwYm8fg0wP70lzCD0ZVSgBmTCDHgWCTJ08OCQlRKBSIb4GHHvGMBlAJnYTUQIawQqEIDAzs0KHDhAkTvv7669OnT9++fRtuXiS+wf1AREAVHSzysrKyrKysU6dOrV+//t133+3atWuNGjWw7Z54mlehScXjpFLp8OHDV61a9RXjs2bNmpSUlI0bNyYkJFDJ90dh2UB2N2nSJCUlJTk5edV/f1be+7z44otwinraYRAcf1HQfuXKlStWrPj3v//95ZdfrlmzZsWKFStXrvzyyy9RfNfT9j16Hsedvffee3gpc6DJyclr165dsWLFokWLmjRp4qXCR64mrVY7Z86cFf/9AQWWLl3arFkzVGD0aBQePQz+9/f3Hzp06IoVKz0F0xkAAAfvSURBVJhDXrVq1YoVK7766qtly5YtX768W7dudAA5H8sEbZJ+gwKocrk8MjIyPj5+6tSpa9eu/e2337KysqCIQ6cEbDPtHGAYEhJzcnJ+//33zZs3z5gxo0uXLsHBwTQEshBo7XtENy8fpkgZdF+tVtuiRYshQ4akpKRs37795MmTt27dKi4uRsoCbG6YJcw4KdLcSFOxWCxFRUU3btw4dOjQkiVLxowZ07p1axQPhiCFHwXpPl4ysJfDf+x/zkJx1NekfWhgZZyIBwNdq9VGR0d37Nhx6NChU6ZMWbBgwb///e/U1NR99z7bt29fv359SUkJbQQkAAM3WyyW/Pz8UaNGMUujU3T20aQmkYi6p1AoyJEAW1atVgcEBISEhNSoUaNVq1Z9+/adNGnS3Llzk5OTd+3a9dNPPx04cGDv3r07duyYNWvWhAkT3njjjfIUhPDwcI1Gg12wCMshOCqXy/39/UmjovdyfoHFA8DD+QcoTaNUKlGCEbVrUF2A87dXrUHaYYWyPGBL9f990FU6r6IKr4A8hXBB6SFsgEFiBBI4/P39feD8JGYAnGsYH4VCAYFYjruqe58qjJR+gmUOflMqlWiQ/qLQkFarBYf4AGYwXmyf+b+J/d9/cVOpVFKVFZ5scWa2ASQADA9cq1QqrPeoqKjnn3/+1VdfHT169Oeff/7dd9/t37//yJEjBw8e/P7777/66qvPPvts8uTJffr0ad26dXR0NDgHQoOP6D7NqUcXRENYxhg7bC2VSqXRaAIDAyMiIp577rnu3bsPHz582rRpn3766dq1a7dt2/bzzz//8ssvBw8e3L59+5o1axYsWPDBBx+MHj26a9eujRo1qlGjRkhISEBAAOr/u+pb8Dl51FvhYTYFCKJwQTllCAsBYCjPgnLQ8DDkHQQ9RADqf02dOhXhQyaEwxuPgytyc3MTEhKwvQQMhAbZnXs0vkNRpb4wU4FALsTLIXMpUAd9E7Ke6lWJxWJkaaG+B9QjADn4mxI9XNmdOsDVBaYMk6vRaLDHBu8FUiL0iB20XL3U+3aYPQwJCWHyDwU+iLWqoCACpUhXwFfkKGAeQbGqlZR58OHjDAn4S2AR4r20GMViMTYveH/UFcaIZAKMkdxOKK8Gk5HvRA3ahYExYlxMAYXlBkWT6EMI9OC0fZAnCcVp8ULcgVbwTkEeqtVq1H3Dk1RiFsIT7Eo5KABFrCw4NlBNGUP2waqvcOwgMmQXpBmxBAYFdRZ7gMGT0GnAJwhvk14FwQLiUD07ogCRkXyxaKTCjgk3HwIFMEPlhun8+fOZcRGE1eGBRw2HgoKCt956C0ltEEZVELgPYYTCKwUKCBQQKCBQQKDAk0oB6JJqtToyMnLDhg3I/qA9BgiiIMsDGbZDhgyhQ2+eVJoI4xIoIFBAoIBAAYECjwcF4FXGcR2RkZGHDh1C+iLtp4JfnXZV3rp1q3///giDwYfzeIxT6KVAAYECAgUECggUePIoAK84RYliY2PT0tJowxXVkMHOabjZr1+/3rt37yePFMKIBAoIFBAoIFBAoMBjRgFKdqDsre7du586dYrqHtC+c0A7KsOcPXu2T58+qDv4mA1Y6K5AAYECAgUECggUeJIowEyzRA7266+/np2dDUMcsI1aMSgmgFKmly5d6tKlC9LccGyRa4bqk0QlYSwCBQQKCBQQKCBQ4FGnALbraDSad955p6ioiM4qxQ40KmSGJLhz58717NkTB1L5+/vTthPaavKoj1bon0ABgQICBQQKCBR4kiiALchIeZsxY4bT6dTr9XQaFVUqRe6bXq9PT09v3LgxrHn8iiCcaeI/SSQSxiJQQKCAQAGBAgIFHlEKAIk1Go1YLK5Ro0ZKSkppaSlOVUGhPgJyxMttNtu5c+e6d++OGDkTwgUUf0TnWOiWQAGBAgIFBAo8qRSAR10qlarV6sDAwKCgoG+++QaWN8E21RnGASrFxcXnz59v3ry5YIs/qVwhjEuggEABgQICBR4PCpAxLZVKUYrv2WefTU1NdTgchYWFzGowqKSPA/twjlZ8fLxIJEKRQrTzeIxZ6KVAAYECAgUECggUeJIoQBV0gcqtW7c+efKk9d4H3nXUZEUpGJxr63A49u7dGxsbC4tcKAjzJPGDMBaBAgIFBAoIFHicKEDnHqLiv0QiefHFF69cuYIT7uBRR9Y6HSMPr/v+/fvbtGlDJ4g8TmMW+ipQQKCAQAGBAgIFngAKwBlOp9bg/GClUjlgwIC8vDwUZEVEHMegUX03GOu7d+9u3Lgxzi96AqghDEGggEABgQICBQQKPDYUAHhTdBxn9kkkEr97nxkzZuTk5DidTovFQmeY4vB5QDjOTVm3bl29evUemzELHRUoIFBAoIBAAYECTwYFWFlpcrlcJBLBsJbL5cHBwZ9//vnt27dzcnJu3LiRkZGRw/jcvn07694nNzf3X//6V0RExJNBE2EUAgUECggUECggUOAJoUBgYGCDBg3q1atXv379mJiYqP/+1K5dOywsDPefkAELwxAoIFBAoIBAAYECTwYFcPSZWq1W3fsg943+ymQyuVwOa14mkwlp6k/GpAujECggUECggECBJ4cCSF8XiUQ4kpwgXCqVArY19z5SqVSpVD45wxZGIlBAoIBAAYECAgWeAAqIxeLAwEDku7GOP5FKpTKZjAqv0sUTMGphCAIFBAoIFBAo8OhT4H8AQZVdg5EwRQMAAAAASUVORK5CYII=;" vertex="1" parent="1">
          <mxGeometry x="1430" y="610" width="135" height="73.91" as="geometry" />
        </mxCell>
        <mxCell id="oFETP92tCU4r7-I8MrHl-4" value="NR Oracle Service" style="rounded=1;whiteSpace=wrap;html=1;" vertex="1" parent="1">
          <mxGeometry x="1430" y="687" width="132" height="37.5" as="geometry" />
        </mxCell>
        <mxCell id="oFETP92tCU4r7-I8MrHl-5" style="edgeStyle=orthogonalEdgeStyle;rounded=0;orthogonalLoop=1;jettySize=auto;html=1;entryX=0.5;entryY=0;entryDx=0;entryDy=0;entryPerimeter=0;" edge="1" parent="1" target="BOXuw702CfrsA8beuOnQ-47">
          <mxGeometry relative="1" as="geometry">
            <mxPoint x="1610" y="396" as="sourcePoint" />
          </mxGeometry>
        </mxCell>
        <mxCell id="oFETP92tCU4r7-I8MrHl-14" value="Proxy API call to get JSON&lt;br&gt;Response&lt;div&gt;&lt;br&gt;&lt;/div&gt;" style="edgeLabel;html=1;align=center;verticalAlign=middle;resizable=0;points=[];" vertex="1" connectable="0" parent="oFETP92tCU4r7-I8MrHl-5">
          <mxGeometry x="-0.4344" y="3" relative="1" as="geometry">
            <mxPoint as="offset" />
          </mxGeometry>
        </mxCell>
        <mxCell id="oFETP92tCU4r7-I8MrHl-8" style="edgeStyle=orthogonalEdgeStyle;rounded=0;orthogonalLoop=1;jettySize=auto;html=1;entryX=0.513;entryY=1.033;entryDx=0;entryDy=0;entryPerimeter=0;" edge="1" parent="1" source="oFETP92tCU4r7-I8MrHl-3" target="BOXuw702CfrsA8beuOnQ-12">
          <mxGeometry relative="1" as="geometry">
            <Array as="points">
              <mxPoint x="1580" y="647" />
              <mxPoint x="1580" y="740" />
              <mxPoint x="976" y="740" />
            </Array>
          </mxGeometry>
        </mxCell>
        <mxCell id="oFETP92tCU4r7-I8MrHl-11" value="JDBC Connection &lt;br&gt;on port 1543 &lt;br&gt;Secured TCP &lt;br&gt;connection" style="edgeLabel;html=1;align=center;verticalAlign=middle;resizable=0;points=[];" vertex="1" connectable="0" parent="oFETP92tCU4r7-I8MrHl-8">
          <mxGeometry x="-0.2176" y="1" relative="1" as="geometry">
            <mxPoint x="-167" y="12" as="offset" />
          </mxGeometry>
        </mxCell>
        <mxCell id="oFETP92tCU4r7-I8MrHl-12" value="" style="sketch=0;outlineConnect=0;fontColor=#232F3E;gradientColor=none;fillColor=#C925D1;strokeColor=none;dashed=0;verticalLabelPosition=bottom;verticalAlign=top;align=center;html=1;fontSize=12;fontStyle=0;aspect=fixed;pointerEvents=1;shape=mxgraph.aws4.rds_oracle_instance;" vertex="1" parent="1">
          <mxGeometry x="936" y="414.5" width="78" height="78" as="geometry" />
        </mxCell>
        <mxCell id="oFETP92tCU4r7-I8MrHl-13" value="" style="shape=image;verticalLabelPosition=bottom;labelBackgroundColor=default;verticalAlign=top;aspect=fixed;imageAspect=0;image=data:image/jpeg,/9j/4AAQSkZJRgABAQAAAQABAAD/2wCEAAoHCBQREhcSEhISGBcZEhUYGRgXExcXGBkZFxgZGBoUGBcaICwwGh0pIhgXJDYkKTovMzMzGSI4PjgzPSwyMy8BCwsLDg4PHRISGTYjIyk0NS8yNDQzMy83Mi86Mi89NTUyMjU6MjMvMj01Mi8yMjI0NDIvMjIvMjoyMjovMjIyM//AABEIAK0BIwMBIgACEQEDEQH/xAAcAAEAAgMBAQEAAAAAAAAAAAAAAQYEBQcDAgj/xABJEAACAgECAwUDBQwIBQUBAAABAgADEQQhBRIxBgcTQVEiYXEUMoGRoRUjQlJTYnJzsbLB0TNjk6KzwtLwFzRDgpIlNURU4Qj/xAAaAQEAAgMBAAAAAAAAAAAAAAAAAgUBAwQG/8QAMBEAAgICAAQEAwcFAAAAAAAAAAECAwQREiExUQVBYXETFIEVMjORobHxIzRSYvD/2gAMAwEAAhEDEQA/AOuxIiTNZMSIgExIiATEiIBMSIgExIiATEiIBMSIgExIiATEiIBMSIgExIiATEiIBMSIgExIiATEiIBMSIgExIiAIiIBESImQTEiIBMSIgExIiATEiIBMSIgExInndatalmIAHnCW+SMNpLbPWYWq4nXXsWy34q7n6fIfTNJr+LvZlVyqf3j8T5fATTX6pU2O59B/H0nXDGSXFY9FXZ4hKcuCmO33N/dx9z81VH6RLH7MTFbi9x/6mPgq/ymmp+UXb00sR6hfZ/8zgQ/B9e3Q1r7jYh/cBkvjY0OSjv/AL1I/K51nOU9fXX7G4HFbvyh/wDFf5T3r45aPncrfEYP2Sp3cD4qN0dD8LF/zLNfbfxbSjmv0rOo6kVh9vUtSSF+Jj5jHlycdfQx8nmw5xs39Tpmn46jbOCh9fnL9Y/lNolgYZUgg9CDkTlPCu1NNxCv96Y9OYgoT6B/54lk0uqeo5Rseo8j8RDx65rdbMRz7qZcN0fqXSJgcP4ktwx0cDdf4j1Ezpxyi4vTRbV2xsjxRe0TEiJgmTEiIBMSIgExIiATEiIBMSIgExIiAfMZkRAJzGZEQCcxmREAmJEQCcxIiATmMyIgEW2hFLMcADJMqvENc1zZ6KPmr6e8++ZnHdXzN4anYbt7z5D6P99JpzLHFpSXG+pQeIZbnL4cei6+rMfU3EEVoCXYgADc7nAx7zLBw/gFdCh7gtlp35TuifR+Efefox1mB2KoF176gjZBhf0nzv8AQox/3TdcY4hXpqrNTcTyrvgdSTsqL7zsJw32uyfp5Fxh40aK138/c92LPux2H0AfR5TW3doNFWeV9XpwR1AsViPiFzic8vv1nF2LO/hUcxAUZ5Nj0C7eIR5s3nnGOky6OyOnUe0bHPvfl+oKBMV4tk1tLl6kbs+iqXDJ7foXmrtToD/8yj6X5R9bYm2p1SOoet0ZT0ZGDA/Aic0fsnpSNlsX3ixv82ZrbuBajRE36K58jcqNnIHqBtaPzSPhmSniWwW9b9iNXiOPY9b17l47TdldPrQW5RXbg4tRcZP9Yo+ePjv6GUzgmut0tx0Or2IPKjE5/RUN+Ejfgny6e4Wrsv2lGtqJYBbUwHUdDnpYv5pwdvIjHoTqO8PQh6V1K7PUwBI68jHH2MVI9MtNVVkq5bR0ZFELoOL/AIZuFYqQykgg5BHlLRwvXi5d9nHUev5w90pXCdX49Fdnmye1+kPZb7QZsNLeanDr5eXqPMS3trjbDa6+R5zGvnjWtPpvTRc4nxVYHUMvQgET6lVrR6RPa2iYzIiYJE5jMiIBOYzIiATmMyIgExmREAmJEQCIiIMCIiAIiIAiIgCIiSAnnqbeRGc+QJ//ACek1fHbMV8vqwH1b/wElCPFNI03z4K5S7Ir7MWJJ6kkn4mY2vflqsb0rb9kyJgccONLcf6p/wBkt58oP2PL1c7Vvuv3LH3dKPkLP+PbYfqCp/llX70NUbbtNo1OATztj1sbwkb6ALPrlk7tW/8ASVP59/8AiNKf2sbPGaM/kq/37ZRQW5JHrrG4wk15Js3tNSoqogwqqAB6AbCfcRPQLkeNb29sSZETJgqdI+ScWUJslo3HutyMf2igy2cbr59LcvrTZj4hSR9oEqnaQY12kP59X2Wr/OXbi1fLXYP6qz91pQZEVGxpdz12HNzoi32Kn2Js5tKR+La4+sK3+Yywys9hP+Xs/XH/AA0lmlxjPdSPOZq1kS9zfdn9RlWrPkcj4HqPr/bNvKvwizltX3gj7M/wEtAM4MmHDP35lz4da50pPy5CIiaDvEREAREQBERIgREQBERJAjMZkRBEnMZkhGPkZ9Chvd9cxtEtM+MxPUac+ok/Jz6iY4kOFnjmJ6nTn1E+TQ3u+uNoaZ8ZjMFGHkZEkYJzNJx9vmj3n+E3U0fHB80+8/7+ybsf8RHJnf28jUTA47/yt36mz90zK1F61qXc4UDc/wAPjKvrOMW6lXREARgVOdyQdjk9Bt5CdWXlV0x4ZPm1yS6nnqVqSl5Jou/dwccI/wC+/wDfMqHads8W05/q6v8AEtmJoOK6zS0/J6beSvLHl5a2+ccn2mUn7Zham62y1bncGxAArYAwFJI2Awd2P1zz6za4STafIvp59M4OK3zTRfYlL+6mq/Kj/wAU/wBMfdPU/lvsX/TLP7cx+z/QofheqLpEpf3R1X5b7B/pj5dqvy/7P5TH25R/i/0MfC/2RmdpP+c0X62v/Frl+7RV8quPWl/2NOXX+LY6OzhmQgoT1Ugggjb1A+qZt/EdZb8/Uu22Nz5Hy6Suu8QrnNySfMucbOqpqUJdUe3YT+gs/Xf5ElnlK0Zv0qk1lSmeZlAyOmMkdfIdJZuE8TXUpkDDD5y+nvHqJb4GbVZFQXJ+vmVmW/iTdi6M2ukOLEP54/bLcp2lS0g++L+kPs3lqr6TZmfeXsWXhX4b9z0iRE4y0JjMiIBOYkRAJzGZEQCcyRCVlvh6zKSsL/ORckiSi2ePgH1ETJiR4mT4UeK6cDrkz1CgdAJMTG2ZSSEREwZEREAREQBIKg9QJMoPajvT0ehZqa1bUWqSGCEKisPwWsOd/wBENjBBwRiAXlqAfd8JpOO6X2CQem85zX33tn2uHjHu1Jz9te8u/Z7tfpOLoyUOy2hctVYAr46cwwSGX3g7ZGQMibK5uElLsarq1ODj3Wij9rbSTVWOhyx95+aP4/XNpwDgy2nDZFdYGcbFifLP1kn+c1fbKkpqEVtiNv70tfZqzFT/AKw/urNVzU75y69Py0eahV/UjGS6b2vVE67U6LTnw2rqyB0FYYj4nHX4zXPxrReVa/2I/lK7xNibbCfOx/3jMDMqLr5KWkkTeS9tKKSLZ919MxAWvJJwAKhkk9ABPu6zAJOluAAySdOwAHqTiYvYJQdcmwOEcj3HGMj6zI7J9tdbqeNPorbENK2alQorQHFfPy+0BnyE3UVO2HE3r6HfjUu6vib1z7Hg/Eqz0X+6JjPrVPQfYJ48VULqLlAAAvsAA6ABzgCY2Zwyb3oqpylxNGeNLc4DJRaVPQityD8CBvMZkZW5WUqQdwQQR8Qek2/eh2z1fDdXXRpXRUOkR8GpGwxe1diRsMIu3umf2/A+VV9N6FPx9pt513Yvw4cW9nbleHqqvj3s1GmmFw0eFruRdlbIx7mTnA+g4+qZmlmGhxxFf0l/cksVtWwa7o4YfdfsXjhyZsB9P9/zlmXpNNwagk/EzE7V9u9Hws+E/NbfgE1Jj2cjI52OyZGNtzuDjBl9k2KU3+Re4FLhSk/PmWaJyb/jac/+3Jy+nyjf6/D/AIS99ke12l4sjeBzJaigvU+OYA7c6kbMudsjpkZAyM6FJHa4M30REkQET0Whj7vjPZaAOu/+/SRckiSi2Y6IW6CZFdAHXf8AZPaJFybJqKQiIkSQiIgCIiAIiIAiIgCIiAUDvf7RtodEK6XK26hmQMDhlrUA2Mp8juq+7nJG4ErPdV3e020Lr9ags5yTVU3zAgOPEdfwiSDgHbG++Rjz/wD6AU+Joz5FbwPiDXn9qzpvYmxW4ZoypyPkdA29VrVWH1gwDJt4Bo3Tw30mmKYxy+DXyj4DG30Sv9nu7vR6DVtq6g5P/TRiWWnIIYqTuxOcAncAnr1lziAcf493rFdQ9Oi0Aa1XZOa5SXLISCPDTfAIP4WfcJg0d7uqqfk1+gq5TjKqtlLgH8ICwtzefp06y4cW7fcK4bfaqqWuaz798nqUkuNjzuxUMRjBAJwc+eZTe3feJw/ieifTrp9SLMq1bvXVhGDDJyHJAK8w29YMaRZ7eA18QFOr0LfebyS2etZ3LHHrkMOX8bG+DtpeM9u9Hwpzp9BpkutTK2XuducbEAgZffOccoGNszx7vOJPp+z/ABB1Yhq7LeQ+as9VYBHpgnPxnn3G8Bqta7WWKrNUyJVkZ5WILM+D545QD5bzXGqCk5JczRDGqhJyUebPTh3e9qKrF+X6FAjHZq0etwvmyixm5+vTI69ZqO7e9be0LWIco76t1OCMqwcg4PTYidz4twyrV0tp9RWHrYYII6ejKfwWHUEbicH7rNKaOPCknJr+U1k4xnkV1zj6JsOgvHafiOh4KzWXVjUaq17LEq2wqs5IZs5Cjy5sEkg42zitJ3u645sOg05oBwQEt2H4pt5iuf8Atmqr044r2kevUnKHV3AjOM16cOVT4FawDj1J2n6CqoRECIiqoXlCqoCgDblAGwHukIwjFaSIRrhFaS0fmvvG7TV8U1FOoqVlxpFR1bco4stJXm/CGGUg+/yOQOldqe8G7hvEV0t+noNB8Jhbhy/gvszAZOSpFgx58vvnPe9rglWi4iVoUKltKXcgGFQszowUeQyhOPLmwNp0Tvr4F4+hr1aDLadhzepqswp+OG5D7gWMmTPTtDw4Uak8ijksAdAo232Krj377eTCeXa7tX9xPk+n09FNl1iGyzmBz5Kp9ndskOB6BQJse7Pidev4dU1wRrdKfCLMBleQAo4J6ewFyfMqZRuzCHjfaB9WwJpqfxRnOOSohaF9xJCsR54f3zTCpRk2clOJGuyUu/T0OwaDSWk133OFsNKh6kB8NXK+0FJOcA5+rM0/Ee73QanWDW2VZbcvWDiux9sO6+Z65A2bzzvm3RNx1mrv7P6R6/BbS6YpjHJ4KBQPcAPZx5EdJwzu+rFPaJaqGJrW/VVg5zzVqluOY+eyg/ECXfvQ7whpg2h0bZvYFbLFP9EDsVUj/qH+78ent3T9h20CHV6pcX2LypWetVZwTzDydsDI8gMdSRAOi+AM5Oes9AoHQCTEztmNIRETBkREQBERAEREAREQBERAEREAREQCpd4/Zf7p6I1pjxa256skAFgCChJ6BgcfHlnLewfb9+Ec2i1tVhqV22xiylifaXkbGVJ3xsQSTvnE7/NFx/snouIb6rTq7AYDjKuAOg51IJG52ORANFd3r8KVCwusY4zyLRYGPuBYBc/TNT2U7xdRxPVX6evTFUNTml03NRVDg3MdsMcYxjBwN+o2NfdFwtW5il7D8Vrjj+6Aftlw4VwjT6OvwtNSla9SEXBJxjLN1Y+85MA4J3WavRabWv8AdFVVuXlra5MojhvaDcw9h/Rj0wRkZ3uPeb2t4cdE+m0rU222BQDUoZUUMGZy4GM4UjAOd99pb+Pd3/D9dYbrqCLG+c6OyFvewGxPvxmfOg7u+HaeuytNOfvlZrdmd2fkPUKxPsZ8+XGYBSu6Tho1fB9dpiQPFssQMRkKWqQK2PPBwfolZ7Adp24Hq7tNra7FR2VbFAy1diE8tgXOGXDHOOo5SM4APb+zvZzTcOravSoyKz87Auz+1gLnLH0Anl2g7JaLiGDqdOrMBgWKSjgb4HOpBI3OxyN4BWON97PD6qWOmsa+3BCIKrEUNjZnZ1X2R7sn9s5z3R2s/Gkawkuy6gsT1LFGJJ9+czrHC+7ThmmcWLpy7Kcr4ljOoPrydD9IMz9B2L0Wn1ba6utxcz2MWNjkE2Z5/ZJxvzGAcg7YU28D458tRMo9r3152DizItqzjYjnYeeAynznSKe9fhTVh2usRuXPhmmwuD+LlVK5+nEtnE+FU6us1amlLEP4LjOD+Mp6qdzuMGVId0/Cubm8Gwj8Tx7OX4Zzn7YBxXtz2jbiesbUlSqcorrXzCLnGT6ksSfTmxP05qtKl9L02DKWVsjj1V15SPqMrvE+77h2p5A+nwK6/DRUdkVV5mc+ypGSWZiT1OZ76jtrw+nUWaW3VLXZUBzc4IXdQ2A+MEgEZHX6jAOCLxDUcGfX6EdbENDHp0ba0D31s4H6zPlOwdznAvkvDhc64s1LeIdt/DGRUPhjLj9ZOc8dFfH+OqmlU+G3Ij2AEFkrH3y8gjb2fZXPXlTzOJ+gqqlRQigBVUKoHQADAA+iAfc5j3o94J0XNotISNQVHiWfklYZAX1cgg58gfXp06VXjXd/w/W3vqNRU7WPy8xFrqPZUIMKDgbKIByLu61vC9I/yzX3O+oDEonhO61nP9KWx7TnqPTr1+b1PTd5/DLXStL7CzuqqPBsGWYgAZI23M8/+FHCv/r2f29v+qemm7sOGVOliUWBkdWU+NYcMpBBwTvuIBdIiIAiIgCIiAIiIAiIgCIiAIiIAiIgCIiAImsfj2kUlW1elVlJVgb6wVIOCpBOxBBGJl0ayu0kV2o5ARiEdWIWwcyMcHYMNwfMdIBkRMK3imnRfEfUUKnOa+ZrUC865zXzE45hg7ddjPrRcRpvz4N1VnLjm8OxH5c5xnlJxnB+owDLieVV6OWVHVijcrhWBKtgHlYD5pwQcH1nlVxCl+TkuqbxObw+WxTz8mebkwfaxg5x0xAMqJhavi2npYJdqKK2K8wV7URiMkcwDEbZB39xkafiuntx4eoofmZlXktRuZlXnZVwd2CkEgdAcwDOieVF6WDmR1YZZcqwYZUlWXI8wQQR5ERTej83I6tysVblYNysOqNjowyNjvvAPWJijiNPh+N41XhflPETw9jy/Pzjrt8Zj1cc0jsFTV6ZmOcKt9ZJwCxIAbyAJ+AMA2UpHHu7Dh+sta9hdXY7F3NVgAdm3LFXVgCTvtjeWajjelsYV16rTO7HCqt1bMds4ChsnYGZGu11WnTxL7a61yBzWOqLk9BzMQMwDU9mOyWk4YCNNWeZgA1jtzOwHkT5D3AATfzCs4rp0RbG1FC1v8xzagRv0WJwfonwvGdKazYNVpzWrBWcXIUDHopbOAfdANhEwk4rpzW1o1FBrXHM4tQouTgBnzgbnE99TqUrUvY6qoIBZmCqCSABk+pIH0wD2iayzj2kRiravSqwYqytfWGBBwVIJ2IO2J6W8Y0yWGt9Tp1sBAKNaiuCQCAVJzuCD9MAz4iIAiIgCIiAIiIAiIgCIiAIiIAiIgCIiAUjtBw6j7r8NBppxYOIFx4a+2RVWQW29o5JOT6mY2jq1Q4txBdE2kQLXoAwuqsYYFThAgrdeUDfrnyxiXxqlJDFVLLnlJAyM7HB8swtSglgqhmxkgDJx0yfPEA5BrWZdBQbX0wcdpLed7Afk4bm1HMzKWB8POdiennL/wBkb0dbAt3DLHDLzfIVCqFIPL4gDsc558H4++b1tHWw5TXWV5i2CgI5j1bGOu5398mjS1158OtEzjPKqrnHTOBv1MAp3DOM6fRa3iKaq+ulm1FdyCxwniVtQi81fN8/dGGFycjErvBHXR1cCbUstSg61maxgiqLarGQlmwBnnX6xOp36Wuwg2Vo5U5Usqtj3jI2k36auzHOiNjpzKGxn0z0gFG7x7tLquEarUUtpriorQWo1dhU+LWeUOucHD5xn8L3zYcb0tdXEeFrXWiA36skKiqCfkrjOAOuw390s66OsIUFdYQnJUIvKTtuVxg9B9Qno1SkhioJXPKSASMjBwfKAct4Bbq9IljaWtrRrNVq60BGU0+pW+xFtf0qKDLdd6vzp8cMufRcP1uk07W2X2cW1GlqOQ1rMUr57Tkj2ggd8kgZxuMzqtVaoMKoUZJwAAMncnAnwumrB5giBuZmzyjOWGGbOOpHU+cAovZPk0+ps4c+ltp091a26erULWcvUqJegCu4bOK7Mepcz67OaCoJxVhVUGTXatUYIoKDwK/ZU49kbnYepl6epSQxVSVzykgEjOxwfKFpUcwCqOYkthR7ROxJ9T8YBzju91NfJpFbUcFJ8BAErRRrA3h7KWNhy4/C9n16TcdtKKvlGnuOq0Nd1ddvh161QarFcoGYEsCrjlA5hk4J2lqTQVKQy01AjoRWoI+BA2npqNMlg5XRGGc4dQw+ODAOV8Q4ol9Ghda9Bp1TiOqTNgDaJildoa5SOTmrZicHb2j5zP41cj8OXkbh17DiWkyuiCrW33xOWtwXYBjuMk4wROiWaWt1CtWjKOgKKQPgCNp8po61GFrrAyDgIoGR0bGOo9YBQdBw5NXxDU1W6SvRj5AarKVZee5bmHLqPvYClV5SoYEkMcHG0+eCX2663TcPv5idA7PqyQwFj0k16Xc/OD/0p6g8k6IalLByq8wBAbA5gD1APpC1KCWCqC2OYgAE42GT54gHKeCalE1GrFuo4Ki/dXVFk1aL45XxdyrGwYBGcZB3z1mVr7imu4s/3MTWqvyZm5mq9kDSoccrgkg7n2Qek6M3DqWJLU1EkkkmtSST1JON57LUoJYKoLY5iAATgYGT54EA0vYnSGnh2mrNot5aEw6klWB9oBScZUAhRnGyjYTfT4qqVFCoqqo6BQAB57AT7gCIiAIiIAiIgCIiAIiIAiIgCIiAIiIAiIgCIiAIiIAiIgCIiAIiIAiIgCIiAIiIAiIgCIiAIiIAiIgCIiAIiIB//9k=;" vertex="1" parent="1">
          <mxGeometry x="1614.5" y="358.87" width="145.5" height="86.5" as="geometry" />
        </mxCell>
      </root>
    </mxGraphModel>
  </diagram>
</mxfile>
